SplineFontDB: 3.0
FontName: cmmi10
FullName: cmmi10
FamilyName: cmmi10
Weight: Book
Copyright: Copyright (C) 1994, Basil K. Malyshev. All Rights Reserved.012BaKoMa Fonts Collection, Level-B.
Version: 1.1/12-Nov-94
ItalicAngle: 0
UnderlinePosition: -123
UnderlineWidth: 20
Ascent: 1638
Descent: 410
sfntRevision: 0x00011999
LayerCount: 2
Layer: 0 1 "Back"  1
Layer: 1 1 "Fore"  0
XUID: [1021 99 1815243471 1914986]
FSType: 0
OS2Version: 1
OS2_WeightWidthSlopeOnly: 0
OS2_UseTypoMetrics: 1
CreationTime: -2082844800
ModificationTime: 1421634000
PfmFamily: 17
TTFWeight: 400
TTFWidth: 5
LineGap: 0
VLineGap: 0
Panose: 2 11 5 0 0 0 0 0 0 0
OS2TypoAscent: -194
OS2TypoAOffset: 1
OS2TypoDescent: -10
OS2TypoDOffset: 1
OS2TypoLinegap: 0
OS2WinAscent: 0
OS2WinAOffset: 1
OS2WinDescent: 0
OS2WinDOffset: 1
HheadAscent: 0
HheadAOffset: 1
HheadDescent: 0
HheadDOffset: 1
OS2SubXSize: 410
OS2SubYSize: 369
OS2SubXOff: 0
OS2SubYOff: -420
OS2SupXSize: 410
OS2SupYSize: 369
OS2SupXOff: 0
OS2SupYOff: 1175
OS2StrikeYSize: 102
OS2StrikeYPos: 530
OS2Vendor: 'PfEd'
OS2CodePages: 00000001.00000000
OS2UnicodeRanges: 00000000.00000000.00000000.00000000
MarkAttachClasses: 1
DEI: 91125
TtTable: prep
NPUSHB
 28
 7
 41
 3
 36
 5
 33
 16
 28
 4
 41
 88
 14
 13
 15
 135
 17
 110
 11
 104
 51
 88
 4
 88
 88
 45
 13
 53
 0
SCANTYPE
PUSHW_1
 828
SCANCTRL
SCVTCI
CALL
CALL
EndTTInstrs
TtTable: fpgm
NPUSHB
 22
 21
 20
 19
 18
 17
 16
 15
 14
 13
 12
 11
 10
 9
 8
 7
 6
 5
 4
 3
 2
 1
 0
FDEF
PUSHB_3
 0
 128
 0
RS
DUP
ROLL
DIV
ROLL
SWAP
WS
FLOOR
ODD
ENDF
FDEF
PUSHB_3
 42
 0
 0
RS
EQ
JROT
PUSHB_1
 0
CALL
IF
SLOOP
IP
EIF
PUSHB_1
 0
CALL
IF
SLOOP
ALIGNRP
EIF
PUSHB_1
 0
CALL
IF
PUSHB_1
 10
LOOPCALL
EIF
PUSHB_1
 1
RS
SRP0
PUSHB_1
 0
CALL
IF
SLOOP
ALIGNRP
EIF
PUSHB_1
 0
CALL
IF
PUSHB_1
 10
LOOPCALL
EIF
ENDF
FDEF
CALL
ENDF
FDEF
CALL
PUSHB_1
 2
LOOPCALL
ENDF
FDEF
PUSHB_1
 2
LOOPCALL
ENDF
FDEF
PUSHB_1
 1
DIV
PUSHB_1
 0
SWAP
WS
PUSHB_2
 1
 3
CINDEX
WS
DUP
GC[cur]
DUP
ROUND[Grey]
SUB
ABS
PUSHB_1
 3
CINDEX
GC[cur]
DUP

StartChar: .notdef
Encoding: 65536 -1 0
Width: 1536
Flags: W
LayerCount: 2
Fore
SplineSet
256 0 m 1,0,-1
 256 1280 l 1,1,-1
 1280 1280 l 1,2,-1
 1280 0 l 1,3,-1
 256 0 l 1,0,-1
1247 33 m 1,4,-1
 1247 1247 l 1,5,-1
 289 1247 l 1,6,-1
 289 33 l 1,7,-1
 1247 33 l 1,4,-1
EndSplineSet
EndChar

StartChar: exclam
Encoding: 33 33 4
Width: 1274
GlyphClass: 2
Flags: W
LayerCount: 2
Fore
SplineSet
248 -23 m 0,0,1
 132 -23 132 -23 80.5 62 c 128,-1,2
 29 147 29 147 29 270 c 0,3,4
 29 351 29 351 43.5 428.5 c 128,-1,5
 58 506 58 506 87.5 585.5 c 128,-1,6
 117 665 117 665 155 734.5 c 128,-1,7
 193 804 193 804 240 870 c 0,8,9
 249 883 249 883 264 883 c 0,10,11
 277 883 277 883 285 875 c 128,-1,12
 293 867 293 867 293 856 c 256,13,14
 293 845 293 845 287 836 c 0,15,16
 100 579 100 579 100 362 c 0,17,18
 100 268 100 268 143.5 200.5 c 128,-1,19
 187 133 187 133 276 133 c 0,20,21
 353 133 353 133 418.5 178 c 128,-1,22
 484 223 484 223 532 293 c 1,23,24
 532 329 532 329 544.5 405 c 128,-1,25
 557 481 557 481 583.5 540.5 c 128,-1,26
 610 600 610 600 647 600 c 0,27,28
 694 600 694 600 694 545 c 0,29,30
 694 513 694 513 680.5 464.5 c 128,-1,31
 667 416 667 416 650.5 374 c 128,-1,32
 634 332 634 332 610 279 c 1,33,34
 634 133 634 133 756 133 c 0,35,36
 827 133 827 133 898.5 174 c 128,-1,37
 970 215 970 215 1025 281.5 c 128,-1,38
 1080 348 1080 348 1111.5 425 c 128,-1,39
 1143 502 1143 502 1143 571 c 0,40,41
 1143 633 1143 633 1123.5 667.5 c 128,-1,42
 1104 702 1104 702 1072 740 c 128,-1,43
 1040 778 1040 778 1040 801 c 0,44,45
 1040 841 1040 841 1074 874 c 128,-1,46
 1108 907 1108 907 1147 907 c 0,47,48
 1197 907 1197 907 1218 861.5 c 128,-1,49
 1239 816 1239 816 1239 758 c 0,50,51
 1239 664 1239 664 1201.5 521 c 128,-1,52
 1164 378 1164 378 1116 283 c 0,53,54
 1050 154 1050 154 950.5 65.5 c 128,-1,55
 851 -23 851 -23 727 -23 c 0,56,57
 648 -23 648 -23 599.5 24.5 c 128,-1,58
 551 72 551 72 537 154 c 1,59,60
 480 73 480 73 407 25 c 128,-1,61
 334 -23 334 -23 248 -23 c 0,0,1
EndSplineSet
EndChar

StartChar: quotedbl
Encoding: 34 34 5
Width: 954
GlyphClass: 2
Flags: W
LayerCount: 2
Fore
SplineSet
55 213 m 0,0,1
 55 269 55 269 79.5 322 c 128,-1,2
 104 375 104 375 143.5 417 c 128,-1,3
 183 459 183 459 236 492 c 1,4,5
 158 546 158 546 158 631 c 0,6,7
 158 722 158 722 234 790.5 c 128,-1,8
 310 859 310 859 420 893.5 c 128,-1,9
 530 928 530 928 618 928 c 0,10,11
 655 928 655 928 717.5 911.5 c 128,-1,12
 780 895 780 895 827 868 c 128,-1,13
 874 841 874 841 874 809 c 0,14,15
 874 785 874 785 855.5 766.5 c 128,-1,16
 837 748 837 748 815 748 c 0,17,18
 806 748 806 748 769.5 769.5 c 128,-1,19
 733 791 733 791 692 808 c 128,-1,20
 651 825 651 825 602 825 c 0,21,22
 528 825 528 825 439.5 807.5 c 128,-1,23
 351 790 351 790 284 746.5 c 128,-1,24
 217 703 217 703 217 633 c 0,25,26
 217 566 217 566 293 520 c 1,27,28
 379 559 379 559 469 559 c 0,29,30
 629 559 629 559 629 502 c 0,31,32
 629 457 629 457 574.5 444.5 c 128,-1,33
 520 432 520 432 449 432 c 0,34,35
 353 432 353 432 291 461 c 1,36,37
 223 425 223 425 170 360 c 128,-1,38
 117 295 117 295 117 225 c 0,39,40
 117 159 117 159 161.5 122 c 128,-1,41
 206 85 206 85 271 71 c 128,-1,42
 336 57 336 57 401 57 c 0,43,44
 514 57 514 57 601 81.5 c 128,-1,45
 688 106 688 106 727 184 c 0,46,47
 733 197 733 197 750 197 c 1,48,49
 772 190 772 190 772 170 c 0,50,51
 772 168 772 168 766 150 c 1,52,53
 733 85 733 85 672.5 41 c 128,-1,54
 612 -3 612 -3 537.5 -24 c 128,-1,55
 463 -45 463 -45 385 -45 c 0,56,57
 258 -45 258 -45 156.5 23 c 128,-1,58
 55 91 55 91 55 213 c 0,0,1
371 492 m 1,59,60
 407 485 407 485 453 485 c 0,61,62
 543 485 543 485 565 498 c 1,63,64
 537 506 537 506 467 506 c 0,65,66
 416 506 416 506 371 492 c 1,59,60
EndSplineSet
EndChar

StartChar: numbersign
Encoding: 35 35 6
Width: 1210
GlyphClass: 2
Flags: W
LayerCount: 2
Fore
SplineSet
215 211 m 0,0,1
 215 278 215 278 236 354 c 1,2,-1
 313 664 l 2,3,4
 328 721 328 721 328 764 c 0,5,6
 328 852 328 852 268 852 c 0,7,8
 204 852 204 852 173 775.5 c 128,-1,9
 142 699 142 699 113 582 c 1,10,11
 113 576 113 576 107 572.5 c 128,-1,12
 101 569 101 569 96 569 c 2,13,-1
 72 569 l 2,14,15
 65 569 65 569 60 576.5 c 128,-1,16
 55 584 55 584 55 590 c 1,17,18
 77 679 77 679 97.5 741 c 128,-1,19
 118 803 118 803 161.5 854 c 128,-1,20
 205 905 205 905 270 905 c 0,21,22
 354 905 354 905 409.5 852 c 128,-1,23
 465 799 465 799 465 717 c 0,24,25
 465 688 465 688 459 659 c 1,26,-1
 381 350 l 2,27,28
 357 258 357 258 354 188 c 1,29,30
 354 31 354 31 506 31 c 0,31,32
 598 31 598 31 676.5 157.5 c 128,-1,33
 755 284 755 284 804.5 433.5 c 128,-1,34
 854 583 854 583 889 723 c 1,35,36
 553 834 553 834 553 1067 c 0,37,38
 553 1150 553 1150 593.5 1238 c 128,-1,39
 634 1326 634 1326 705 1385 c 128,-1,40
 776 1444 776 1444 860 1444 c 0,41,42
 930 1444 930 1444 976.5 1403 c 128,-1,43
 1023 1362 1023 1362 1048 1299 c 128,-1,44
 1073 1236 1073 1236 1082.5 1169 c 128,-1,45
 1092 1102 1092 1102 1092 1034 c 0,46,47
 1092 907 1092 907 1053 733 c 1,48,49
 1072 729 1072 729 1094 725 c 128,-1,50
 1116 721 1116 721 1133.5 714 c 128,-1,51
 1151 707 1151 707 1151 694 c 1,52,53
 1146 662 1146 662 1126 662 c 1,54,55
 1112 665 1112 665 1090 669.5 c 128,-1,56
 1068 674 1068 674 1038 680 c 1,57,58
 1003 544 1003 544 926 381.5 c 128,-1,59
 849 219 849 219 738.5 98 c 128,-1,60
 628 -23 628 -23 504 -23 c 0,61,62
 374 -23 374 -23 294.5 31.5 c 128,-1,63
 215 86 215 86 215 211 c 0,0,1
901 774 m 1,64,65
 961 1009 961 1009 961 1153 c 0,66,67
 961 1391 961 1391 856 1391 c 0,68,69
 788 1391 788 1391 732.5 1339 c 128,-1,70
 677 1287 677 1287 644.5 1211.5 c 128,-1,71
 612 1136 612 1136 612 1071 c 0,72,73
 612 880 612 880 901 774 c 1,64,65
EndSplineSet
EndChar

StartChar: dollar
Encoding: 36 36 7
Width: 1696
GlyphClass: 2
Flags: W
LayerCount: 2
Fore
SplineSet
231 217 m 0,0,1
 231 497 231 497 438 756 c 1,2,-1
 352 756 l 2,3,4
 277 756 277 756 212 709 c 128,-1,5
 147 662 147 662 104 590 c 0,6,7
 100 582 100 582 92 582 c 2,8,-1
 68 582 l 2,9,10
 49 582 49 582 49 602 c 0,11,12
 49 606 49 606 53 614 c 0,13,14
 120 728 120 728 196.5 805.5 c 128,-1,15
 273 883 273 883 369 883 c 2,16,-1
 1624 883 l 2,17,18
 1645 883 1645 883 1660 869 c 128,-1,19
 1675 855 1675 855 1675 831 c 0,20,21
 1675 801 1675 801 1653.5 778.5 c 128,-1,22
 1632 756 1632 756 1602 756 c 2,23,-1
 1526 756 l 1,24,25
 1546 678 1546 678 1546 612 c 0,26,27
 1546 522 1546 522 1508.5 410 c 128,-1,28
 1471 298 1471 298 1405 199 c 128,-1,29
 1339 100 1339 100 1251 38.5 c 128,-1,30
 1163 -23 1163 -23 1065 -23 c 0,31,32
 949 -23 949 -23 899.5 58 c 128,-1,33
 850 139 850 139 850 260 c 2,34,-1
 850 305 l 1,35,36
 774 164 774 164 662 70.5 c 128,-1,37
 550 -23 550 -23 412 -23 c 0,38,39
 317 -23 317 -23 274 47 c 128,-1,40
 231 117 231 117 231 217 c 0,0,1
434 104 m 0,41,42
 548 104 548 104 643 177 c 128,-1,43
 738 250 738 250 803 361.5 c 128,-1,44
 868 473 868 473 897 586 c 0,45,46
 901 602 901 602 915 602 c 2,47,-1
 940 602 l 2,48,49
 947 602 947 602 951.5 597 c 128,-1,50
 956 592 956 592 956 584 c 2,51,-1
 956 578 l 1,52,53
 922 439 922 439 922 336 c 0,54,55
 922 104 922 104 1085 104 c 0,56,57
 1168 104 1168 104 1243 153 c 128,-1,58
 1318 202 1318 202 1373 281 c 128,-1,59
 1428 360 1428 360 1457.5 446 c 128,-1,60
 1487 532 1487 532 1487 612 c 0,61,62
 1487 687 1487 687 1464 756 c 1,63,-1
 510 756 l 1,64,65
 414 641 414 641 357.5 524 c 128,-1,66
 301 407 301 407 301 285 c 0,67,68
 301 211 301 211 333 157.5 c 128,-1,69
 365 104 365 104 434 104 c 0,41,42
EndSplineSet
EndChar

StartChar: percent
Encoding: 37 37 8
Width: 1059
GlyphClass: 2
Flags: W
LayerCount: 2
Fore
SplineSet
150 -156 m 0,0,1
 150 -92 150 -92 161 -15 c 128,-1,2
 172 62 172 62 192 154.5 c 128,-1,3
 212 247 212 247 229.5 316.5 c 128,-1,4
 247 386 247 386 262 449 c 1,5,6
 284 529 284 529 328 609 c 128,-1,7
 372 689 372 689 434.5 755.5 c 128,-1,8
 497 822 497 822 576.5 863.5 c 128,-1,9
 656 905 656 905 741 905 c 0,10,11
 831 905 831 905 898 858.5 c 128,-1,12
 965 812 965 812 998.5 736.5 c 128,-1,13
 1032 661 1032 661 1032 571 c 0,14,15
 1032 472 1032 472 991.5 366 c 128,-1,16
 951 260 951 260 879.5 172 c 128,-1,17
 808 84 808 84 715 30.5 c 128,-1,18
 622 -23 622 -23 520 -23 c 0,19,20
 427 -23 427 -23 357.5 35.5 c 128,-1,21
 288 94 288 94 260 186 c 1,22,23
 217 -29 217 -29 217 -102 c 0,24,25
 217 -187 217 -187 281 -209 c 128,-1,26
 345 -231 345 -231 459 -231 c 0,27,28
 674 -231 674 -231 739 -252 c 1,29,30
 786 -275 786 -275 786 -332 c 0,31,32
 786 -391 786 -391 762 -397 c 1,33,-1
 737 -397 l 2,34,35
 731 -397 731 -397 726 -390 c 128,-1,36
 721 -383 721 -383 721 -377 c 2,37,-1
 721 -367 l 1,38,39
 717 -348 717 -348 641 -348 c 0,40,41
 596 -348 596 -348 524.5 -353 c 128,-1,42
 453 -358 453 -358 436 -358 c 0,43,44
 302 -358 302 -358 226 -318 c 128,-1,45
 150 -278 150 -278 150 -156 c 0,0,1
524 31 m 0,46,47
 608 31 608 31 675 99 c 128,-1,48
 742 167 742 167 786.5 268.5 c 128,-1,49
 831 370 831 370 855 476.5 c 128,-1,50
 879 583 879 583 879 659 c 0,51,52
 879 737 879 737 845 794.5 c 128,-1,53
 811 852 811 852 739 852 c 0,54,55
 629 852 629 852 546.5 744.5 c 128,-1,56
 464 637 464 637 419.5 489 c 128,-1,57
 375 341 375 341 375 236 c 0,58,59
 375 184 375 184 390.5 137.5 c 128,-1,60
 406 91 406 91 439 61 c 128,-1,61
 472 31 472 31 524 31 c 0,46,47
EndSplineSet
EndChar

StartChar: ampersand
Encoding: 38 38 9
Width: 741
GlyphClass: 2
Flags: W
LayerCount: 2
Fore
SplineSet
330 -170 m 1,0,1
 338 -143 338 -143 358 -143 c 0,2,3
 366 -143 366 -143 403.5 -155.5 c 128,-1,4
 441 -168 441 -168 465 -168 c 0,5,6
 502 -168 502 -168 525.5 -135 c 128,-1,7
 549 -102 549 -102 549 -63 c 0,8,9
 549 -5 549 -5 487 29 c 2,10,-1
 221 176 l 2,11,12
 150 215 150 215 108 285 c 128,-1,13
 66 355 66 355 66 436 c 0,14,15
 66 567 66 567 150 674.5 c 128,-1,16
 234 782 234 782 363.5 843.5 c 128,-1,17
 493 905 493 905 621 905 c 0,18,19
 686 905 686 905 760 889.5 c 128,-1,20
 834 874 834 874 834 838 c 0,21,22
 834 822 834 822 822.5 809.5 c 128,-1,23
 811 797 811 797 795 797 c 0,24,25
 791 797 791 797 750 814.5 c 128,-1,26
 709 832 709 832 678 842 c 128,-1,27
 647 852 647 852 616 852 c 0,28,29
 519 852 519 852 417 807 c 128,-1,30
 315 762 315 762 247.5 682 c 128,-1,31
 180 602 180 602 180 502 c 0,32,33
 180 441 180 441 211.5 392 c 128,-1,34
 243 343 243 343 299 313 c 2,35,-1
 582 156 l 2,36,37
 623 134 623 134 647.5 92 c 128,-1,38
 672 50 672 50 672 4 c 0,39,40
 672 -52 672 -52 643.5 -103.5 c 128,-1,41
 615 -155 615 -155 566 -188 c 128,-1,42
 517 -221 517 -221 461 -221 c 0,43,44
 429 -221 429 -221 379.5 -207.5 c 128,-1,45
 330 -194 330 -194 330 -170 c 1,0,1
EndSplineSet
EndChar

StartChar: quotesingle
Encoding: 39 39 10
Width: 1339
GlyphClass: 2
Flags: W
LayerCount: 2
Fore
SplineSet
334 -389 m 0,0,1
 334 -381 334 -381 338 -365 c 1,2,-1
 453 -4 l 1,3,4
 300 34 300 34 201 137 c 128,-1,5
 102 240 102 240 102 389 c 0,6,7
 102 464 102 464 130 558 c 128,-1,8
 158 652 158 652 202 736.5 c 128,-1,9
 246 821 246 821 297 877 c 1,10,11
 309 883 309 883 311 883 c 2,12,-1
 336 883 l 2,13,14
 342 883 342 883 347 877 c 128,-1,15
 352 871 352 871 352 864 c 0,16,17
 352 856 352 856 348 852 c 0,18,19
 314 815 314 815 281.5 761.5 c 128,-1,20
 249 708 249 708 223.5 649 c 128,-1,21
 198 590 198 590 181 525 c 128,-1,22
 164 460 164 460 164 412 c 0,23,24
 164 291 164 291 260.5 216.5 c 128,-1,25
 357 142 357 142 489 117 c 1,26,-1
 547 301 l 2,27,28
 585 420 585 420 622.5 513.5 c 128,-1,29
 660 607 660 607 716.5 696.5 c 128,-1,30
 773 786 773 786 853 845.5 c 128,-1,31
 933 905 933 905 1032 905 c 0,32,33
 1110 905 1110 905 1162.5 866 c 128,-1,34
 1215 827 1215 827 1240.5 762 c 128,-1,35
 1266 697 1266 697 1266 623 c 0,36,37
 1266 501 1266 501 1212 384.5 c 128,-1,38
 1158 268 1158 268 1064 175.5 c 128,-1,39
 970 83 970 83 852 30 c 128,-1,40
 734 -23 734 -23 614 -23 c 1,41,42
 598 -22 598 -22 579.5 -21 c 128,-1,43
 561 -20 561 -20 549 -20 c 1,44,-1
 481 -377 l 2,45,46
 475 -407 475 -407 450.5 -426.5 c 128,-1,47
 426 -446 426 -446 395 -446 c 0,48,49
 370 -446 370 -446 352 -430.5 c 128,-1,50
 334 -415 334 -415 334 -389 c 0,0,1
571 106 m 1,51,52
 594 104 594 104 637 104 c 0,53,54
 764 104 764 104 895.5 166.5 c 128,-1,55
 1027 229 1027 229 1113.5 338 c 128,-1,56
 1200 447 1200 447 1200 575 c 0,57,58
 1200 633 1200 633 1176.5 679 c 128,-1,59
 1153 725 1153 725 1110.5 751.5 c 128,-1,60
 1068 778 1068 778 1012 778 c 0,61,62
 853 778 853 778 746 624 c 128,-1,63
 639 470 639 470 606 293 c 2,64,-1
 571 106 l 1,51,52
EndSplineSet
EndChar

StartChar: parenleft
Encoding: 40 40 11
Width: 2048
GlyphClass: 2
Flags: W
LayerCount: 2
Fore
SplineSet
115 489 m 2,0,-1
 115 516 l 2,1,2
 115 524 115 524 127 532 c 1,3,4
 224 587 224 587 306 664 c 128,-1,5
 388 741 388 741 451 836 c 128,-1,6
 514 931 514 931 553 1032 c 1,7,8
 560 1047 560 1047 571 1047 c 2,9,-1
 612 1047 l 2,10,11
 633 1047 633 1047 633 1020 c 1,12,13
 538 739 538 739 305 553 c 1,14,-1
 1892 553 l 2,15,16
 1909 553 1909 553 1920 540 c 128,-1,17
 1931 527 1931 527 1931 512 c 256,18,19
 1931 497 1931 497 1920 484 c 128,-1,20
 1909 471 1909 471 1892 471 c 2,21,-1
 135 471 l 2,22,23
 130 471 130 471 122.5 477.5 c 128,-1,24
 115 484 115 484 115 489 c 2,0,-1
EndSplineSet
EndChar

StartChar: parenright
Encoding: 41 41 12
Width: 2048
GlyphClass: 2
Flags: W
LayerCount: 2
Fore
SplineSet
551 -4 m 1,0,1
 491 153 491 153 381 283 c 128,-1,2
 271 413 271 413 127 494 c 1,3,4
 115 498 115 498 115 508 c 2,5,-1
 115 535 l 2,6,7
 115 542 115 542 121.5 547.5 c 128,-1,8
 128 553 128 553 135 553 c 2,9,-1
 1892 553 l 2,10,11
 1909 553 1909 553 1920 540 c 128,-1,12
 1931 527 1931 527 1931 512 c 256,13,14
 1931 497 1931 497 1920 484 c 128,-1,15
 1909 471 1909 471 1892 471 c 2,16,-1
 305 471 l 1,17,18
 538 285 538 285 633 4 c 1,19,20
 633 -23 633 -23 612 -23 c 2,21,-1
 571 -23 l 2,22,23
 561 -23 561 -23 551 -4 c 1,0,1
EndSplineSet
EndChar

StartChar: asterisk
Encoding: 42 42 13
Width: 2048
GlyphClass: 2
Flags: W
LayerCount: 2
Fore
SplineSet
154 471 m 2,0,1
 137 471 137 471 126 484 c 128,-1,2
 115 497 115 497 115 512 c 256,3,4
 115 527 115 527 126 540 c 128,-1,5
 137 553 137 553 154 553 c 2,6,-1
 1741 553 l 1,7,8
 1508 739 1508 739 1413 1020 c 1,9,10
 1413 1047 1413 1047 1434 1047 c 2,11,-1
 1475 1047 l 2,12,13
 1485 1047 1485 1047 1495 1028 c 1,14,15
 1556 870 1556 870 1664.5 742.5 c 128,-1,16
 1773 615 1773 615 1921 532 c 1,17,18
 1931 522 1931 522 1931 516 c 2,19,-1
 1931 489 l 2,20,21
 1931 484 1931 484 1923.5 477.5 c 128,-1,22
 1916 471 1916 471 1911 471 c 2,23,-1
 154 471 l 2,0,1
EndSplineSet
EndChar

StartChar: plus
Encoding: 43 43 14
Width: 2048
GlyphClass: 2
Flags: W
LayerCount: 2
Fore
SplineSet
154 471 m 2,0,1
 137 471 137 471 126 484 c 128,-1,2
 115 497 115 497 115 512 c 256,3,4
 115 527 115 527 126 540 c 128,-1,5
 137 553 137 553 154 553 c 2,6,-1
 1911 553 l 2,7,8
 1918 553 1918 553 1924.5 547.5 c 128,-1,9
 1931 542 1931 542 1931 535 c 2,10,-1
 1931 508 l 2,11,12
 1931 499 1931 499 1921 494 c 0,13,14
 1822 437 1822 437 1740 360 c 128,-1,15
 1658 283 1658 283 1595 188 c 128,-1,16
 1532 93 1532 93 1493 -8 c 1,17,18
 1486 -23 1486 -23 1475 -23 c 2,19,-1
 1434 -23 l 2,20,21
 1413 -23 1413 -23 1413 4 c 1,22,23
 1508 285 1508 285 1741 471 c 1,24,-1
 154 471 l 2,0,1
EndSplineSet
EndChar

StartChar: comma
Encoding: 44 44 15
Width: 567
GlyphClass: 2
Flags: W
LayerCount: 2
Fore
SplineSet
115 711 m 0,0,1
 115 783 115 783 158.5 838 c 128,-1,2
 202 893 202 893 269 921.5 c 128,-1,3
 336 950 336 950 410 950 c 0,4,5
 427 950 427 950 440 939 c 128,-1,6
 453 928 453 928 453 909 c 0,7,8
 453 894 453 894 442 881 c 128,-1,9
 431 868 431 868 416 868 c 0,10,11
 364 868 364 868 314 850.5 c 128,-1,12
 264 833 264 833 230.5 797 c 128,-1,13
 197 761 197 761 197 711 c 0,14,15
 197 636 197 636 266 594.5 c 128,-1,16
 335 553 335 553 416 553 c 0,17,18
 431 553 431 553 442 540 c 128,-1,19
 453 527 453 527 453 512 c 0,20,21
 453 493 453 493 440 482 c 128,-1,22
 427 471 427 471 410 471 c 0,23,24
 298 471 298 471 206.5 536.5 c 128,-1,25
 115 602 115 602 115 711 c 0,0,1
EndSplineSet
EndChar

StartChar: hyphen
Encoding: 45 45 16
Width: 567
GlyphClass: 2
Flags: W
LayerCount: 2
Fore
SplineSet
115 512 m 0,0,1
 115 527 115 527 126 540 c 128,-1,2
 137 553 137 553 154 553 c 0,3,4
 233 553 233 553 302 594.5 c 128,-1,5
 371 636 371 636 371 711 c 0,6,7
 371 761 371 761 337.5 797 c 128,-1,8
 304 833 304 833 254.5 850.5 c 128,-1,9
 205 868 205 868 154 868 c 0,10,11
 137 868 137 868 126 881 c 128,-1,12
 115 894 115 894 115 909 c 0,13,14
 115 928 115 928 128 939 c 128,-1,15
 141 950 141 950 160 950 c 0,16,17
 272 950 272 950 362.5 884.5 c 128,-1,18
 453 819 453 819 453 711 c 0,19,20
 453 637 453 637 410 583 c 128,-1,21
 367 529 367 529 299.5 500 c 128,-1,22
 232 471 232 471 160 471 c 0,23,24
 141 471 141 471 128 482 c 128,-1,25
 115 493 115 493 115 512 c 0,0,1
EndSplineSet
EndChar

StartChar: period
Encoding: 46 46 17
Width: 1024
GlyphClass: 2
Flags: W
LayerCount: 2
Fore
SplineSet
55 31 m 2,0,-1
 55 995 l 2,1,2
 55 1011 55 1011 68 1021.5 c 128,-1,3
 81 1032 81 1032 96 1032 c 0,4,5
 107 1032 107 1032 119 1026 c 2,6,-1
 948 547 l 2,7,8
 967 536 967 536 967 512 c 256,9,10
 967 488 967 488 948 477 c 2,11,-1
 119 -2 l 2,12,13
 107 -8 107 -8 96 -8 c 0,14,15
 81 -8 81 -8 68 3 c 128,-1,16
 55 14 55 14 55 31 c 2,0,-1
137 104 m 1,17,-1
 844 512 l 1,18,-1
 137 920 l 1,19,-1
 137 104 l 1,17,-1
EndSplineSet
EndChar

StartChar: slash
Encoding: 47 47 18
Width: 1024
GlyphClass: 2
Flags: W
LayerCount: 2
Fore
SplineSet
76 477 m 1,0,1
 55 487 55 487 55 512 c 256,2,3
 55 537 55 537 76 547 c 1,4,-1
 905 1026 l 2,5,6
 914 1032 914 1032 926 1032 c 0,7,8
 941 1032 941 1032 954 1021.5 c 128,-1,9
 967 1011 967 1011 967 995 c 2,10,-1
 967 31 l 2,11,12
 967 14 967 14 954 3 c 128,-1,13
 941 -8 941 -8 926 -8 c 0,14,15
 914 -8 914 -8 905 -2 c 2,16,-1
 76 477 l 1,0,1
178 512 m 1,17,-1
 885 104 l 1,18,-1
 885 920 l 1,19,-1
 178 512 l 1,17,-1
EndSplineSet
EndChar

StartChar: zero
Encoding: 48 48 19
Width: 1024
GlyphClass: 2
Flags: W
LayerCount: 2
Fore
SplineSet
512 -45 m 256,0,1
 362 -45 362 -45 265.5 14.5 c 128,-1,2
 169 74 169 74 124.5 182 c 128,-1,3
 80 290 80 290 80 436 c 0,4,5
 80 545 80 545 104.5 635.5 c 128,-1,6
 129 726 129 726 180.5 791.5 c 128,-1,7
 232 857 232 857 315.5 892.5 c 128,-1,8
 399 928 399 928 512 928 c 256,9,10
 625 928 625 928 709 892 c 128,-1,11
 793 856 793 856 843.5 791 c 128,-1,12
 894 726 894 726 918 637.5 c 128,-1,13
 942 549 942 549 942 436 c 0,14,15
 942 290 942 290 897.5 182 c 128,-1,16
 853 74 853 74 757.5 14.5 c 128,-1,17
 662 -45 662 -45 512 -45 c 256,0,1
512 8 m 0,18,19
 630 8 630 8 686.5 73.5 c 128,-1,20
 743 139 743 139 755.5 229.5 c 128,-1,21
 768 320 768 320 768 459 c 0,22,23
 768 593 768 593 755.5 676 c 128,-1,24
 743 759 743 759 687 816.5 c 128,-1,25
 631 874 631 874 512 874 c 0,26,27
 392 874 392 874 335.5 816 c 128,-1,28
 279 758 279 758 266.5 675.5 c 128,-1,29
 254 593 254 593 254 459 c 0,30,31
 254 320 254 320 266.5 230 c 128,-1,32
 279 140 279 140 336 74 c 128,-1,33
 393 8 393 8 512 8 c 0,18,19
EndSplineSet
EndChar

StartChar: one
Encoding: 49 49 20
Width: 1024
GlyphClass: 2
Flags: W
LayerCount: 2
Fore
SplineSet
197 18 m 2,0,-1
 197 53 l 2,1,2
 197 60 197 60 204 66 c 128,-1,3
 211 72 211 72 217 72 c 0,4,5
 371 72 371 72 426 86 c 1,6,7
 453 97 453 97 453 141 c 2,8,-1
 453 795 l 1,9,10
 361 768 361 768 209 768 c 0,11,12
 203 768 203 768 193.5 773 c 128,-1,13
 184 778 184 778 184 786 c 2,14,-1
 184 821 l 2,15,16
 184 833 184 833 205 840 c 1,17,18
 319 840 319 840 407.5 858.5 c 128,-1,19
 496 877 496 877 567 926 c 0,20,21
 571 928 571 928 580 928 c 0,22,23
 604 928 604 928 604 909 c 2,24,-1
 604 141 l 2,25,26
 604 96 604 96 631 86 c 1,27,28
 688 72 688 72 840 72 c 0,29,30
 846 72 846 72 853 66 c 128,-1,31
 860 60 860 60 860 53 c 2,32,-1
 860 18 l 2,33,34
 860 11 860 11 852.5 5.5 c 128,-1,35
 845 0 845 0 838 0 c 2,36,-1
 219 0 l 2,37,38
 213 0 213 0 205 6.5 c 128,-1,39
 197 13 197 13 197 18 c 2,0,-1
EndSplineSet
EndChar

StartChar: two
Encoding: 50 50 21
Width: 1024
GlyphClass: 2
Flags: W
LayerCount: 2
Fore
SplineSet
90 18 m 2,0,-1
 90 55 l 2,1,2
 90 64 90 64 98 68 c 1,3,-1
 451 309 l 2,4,5
 505 345 505 345 552 378.5 c 128,-1,6
 599 412 599 412 639.5 448.5 c 128,-1,7
 680 485 680 485 706.5 533 c 128,-1,8
 733 581 733 581 733 635 c 0,9,10
 733 692 733 692 707 734.5 c 128,-1,11
 681 777 681 777 640 803 c 128,-1,12
 599 829 599 829 544.5 842.5 c 128,-1,13
 490 856 490 856 438 856 c 0,14,15
 370 856 370 856 307.5 830.5 c 128,-1,16
 245 805 245 805 209 752 c 1,17,18
 239 748 239 748 259 724.5 c 128,-1,19
 279 701 279 701 279 670 c 0,20,21
 279 637 279 637 255.5 612.5 c 128,-1,22
 232 588 232 588 197 588 c 256,23,24
 162 588 162 588 138.5 612.5 c 128,-1,25
 115 637 115 637 115 670 c 0,26,27
 115 759 115 759 172 817 c 128,-1,28
 229 875 229 875 314.5 901.5 c 128,-1,29
 400 928 400 928 483 928 c 0,30,31
 588 928 588 928 687 900.5 c 128,-1,32
 786 873 786 873 853 807.5 c 128,-1,33
 920 742 920 742 920 635 c 0,34,35
 920 566 920 566 886 515.5 c 128,-1,36
 852 465 852 465 800 429.5 c 128,-1,37
 748 394 748 394 676 358 c 1,38,-1
 598 322 l 1,39,40
 529 284 529 284 520 279 c 2,41,-1
 303 147 l 1,42,-1
 479 147 l 2,43,44
 774 147 774 147 819 152 c 1,45,46
 829 164 829 164 848 221 c 128,-1,47
 867 278 867 278 881 281 c 1,48,-1
 899 281 l 2,49,50
 920 281 920 281 920 254 c 1,51,-1
 862 18 l 2,52,53
 858 0 858 0 842 0 c 2,54,-1
 111 0 l 2,55,56
 105 0 105 0 97.5 6.5 c 128,-1,57
 90 13 90 13 90 18 c 2,0,-1
EndSplineSet
EndChar

StartChar: three
Encoding: 51 51 22
Width: 1024
GlyphClass: 2
Flags: W
LayerCount: 2
Fore
SplineSet
190 -236 m 1,0,1
 236 -306 236 -306 321.5 -341.5 c 128,-1,2
 407 -377 407 -377 502 -377 c 0,3,4
 621 -377 621 -377 675 -280.5 c 128,-1,5
 729 -184 729 -184 729 -55 c 0,6,7
 729 25 729 25 706.5 98 c 128,-1,8
 684 171 684 171 632 218.5 c 128,-1,9
 580 266 580 266 500 266 c 2,10,-1
 360 266 l 2,11,12
 342 266 342 266 342 285 c 2,13,-1
 342 303 l 2,14,15
 342 319 342 319 360 319 c 1,16,-1
 477 328 l 1,17,18
 581 328 581 328 636.5 433 c 128,-1,19
 692 538 692 538 692 651 c 0,20,21
 692 748 692 748 643.5 808 c 128,-1,22
 595 868 595 868 502 868 c 0,23,24
 421 868 421 868 348.5 840 c 128,-1,25
 276 812 276 812 233 754 c 1,26,27
 237 755 237 755 239.5 755.5 c 128,-1,28
 242 756 242 756 246 756 c 0,29,30
 275 756 275 756 298 742 c 128,-1,31
 321 728 321 728 334.5 704 c 128,-1,32
 348 680 348 680 348 651 c 256,33,34
 348 622 348 622 334.5 598.5 c 128,-1,35
 321 575 321 575 297.5 562 c 128,-1,36
 274 549 274 549 246 549 c 0,37,38
 202 549 202 549 171.5 577.5 c 128,-1,39
 141 606 141 606 141 651 c 0,40,41
 141 738 141 738 195.5 801.5 c 128,-1,42
 250 865 250 865 333 896.5 c 128,-1,43
 416 928 416 928 502 928 c 0,44,45
 567 928 567 928 633 910 c 128,-1,46
 699 892 699 892 755.5 857.5 c 128,-1,47
 812 823 812 823 846.5 771.5 c 128,-1,48
 881 720 881 720 881 653 c 0,49,50
 881 528 881 528 799.5 432 c 128,-1,51
 718 336 718 336 594 297 c 1,52,53
 659 286 659 286 721.5 255.5 c 128,-1,54
 784 225 784 225 832 179 c 128,-1,55
 880 133 880 133 908 74 c 128,-1,56
 936 15 936 15 936 -55 c 0,57,58
 936 -167 936 -167 874 -255.5 c 128,-1,59
 812 -344 812 -344 711.5 -393 c 128,-1,60
 611 -442 611 -442 502 -442 c 0,61,62
 402 -442 402 -442 306.5 -406.5 c 128,-1,63
 211 -371 211 -371 148.5 -298.5 c 128,-1,64
 86 -226 86 -226 86 -125 c 0,65,66
 86 -76 86 -76 119 -45 c 128,-1,67
 152 -14 152 -14 199 -14 c 0,68,69
 245 -14 245 -14 277 -45 c 128,-1,70
 309 -76 309 -76 309 -125 c 0,71,72
 309 -173 309 -173 276.5 -205.5 c 128,-1,73
 244 -238 244 -238 199 -238 c 1,74,75
 196 -237 196 -237 193.5 -236.5 c 128,-1,76
 191 -236 191 -236 190 -236 c 1,0,1
EndSplineSet
EndChar

StartChar: four
Encoding: 52 52 23
Width: 1024
GlyphClass: 2
Flags: W
LayerCount: 2
Fore
SplineSet
403 -379 m 2,0,-1
 403 -344 l 2,1,2
 403 -337 403 -337 410 -331.5 c 128,-1,3
 417 -326 417 -326 424 -326 c 0,4,5
 573 -326 573 -326 592 -305 c 0,6,7
 602 -293 602 -293 602 -256 c 2,8,-1
 602 0 l 1,9,-1
 78 0 l 2,10,11
 74 0 74 0 65.5 6.5 c 128,-1,12
 57 13 57 13 57 18 c 2,13,-1
 57 63 l 2,14,15
 57 72 57 72 63 78 c 1,16,-1
 682 940 l 1,17,18
 692 950 692 950 705 950 c 2,19,-1
 737 950 l 2,20,21
 747 950 747 950 753.5 944 c 128,-1,22
 760 938 760 938 760 928 c 2,23,-1
 760 72 l 1,24,-1
 944 72 l 2,25,26
 950 72 950 72 957.5 66 c 128,-1,27
 965 60 965 60 965 53 c 2,28,-1
 965 18 l 2,29,30
 965 12 965 12 957 6 c 128,-1,31
 949 0 949 0 944 0 c 2,32,-1
 760 0 l 1,33,-1
 760 -256 l 2,34,35
 760 -287 760 -287 770 -305 c 1,36,37
 788 -326 788 -326 938 -326 c 0,38,39
 945 -326 945 -326 951.5 -331.5 c 128,-1,40
 958 -337 958 -337 958 -344 c 2,41,-1
 958 -379 l 2,42,43
 958 -385 958 -385 951 -391 c 128,-1,44
 944 -397 944 -397 936 -397 c 2,45,-1
 426 -397 l 2,46,47
 419 -397 419 -397 411 -390.5 c 128,-1,48
 403 -384 403 -384 403 -379 c 2,0,-1
127 72 m 1,49,-1
 614 72 l 1,50,-1
 614 750 l 1,51,-1
 127 72 l 1,49,-1
EndSplineSet
EndChar

StartChar: five
Encoding: 53 53 24
Width: 1024
GlyphClass: 2
Flags: W
LayerCount: 2
Fore
SplineSet
178 -172 m 1,0,1
 211 -264 211 -264 293 -320.5 c 128,-1,2
 375 -377 375 -377 471 -377 c 0,3,4
 549 -377 549 -377 602 -344 c 128,-1,5
 655 -311 655 -311 685.5 -256.5 c 128,-1,6
 716 -202 716 -202 728.5 -136.5 c 128,-1,7
 741 -71 741 -71 741 4 c 0,8,9
 741 95 741 95 726.5 178.5 c 128,-1,10
 712 262 712 262 666.5 323.5 c 128,-1,11
 621 385 621 385 535 385 c 0,12,13
 444 385 444 385 385.5 352.5 c 128,-1,14
 327 320 327 320 288 274 c 128,-1,15
 249 228 249 228 246 227 c 1,16,-1
 223 227 l 2,17,18
 218 227 218 227 210.5 233.5 c 128,-1,19
 203 240 203 240 203 246 c 2,20,-1
 203 911 l 2,21,22
 203 917 203 917 209.5 922.5 c 128,-1,23
 216 928 216 928 223 928 c 2,24,-1
 229 928 l 1,25,26
 374 864 374 864 522 864 c 0,27,28
 671 864 671 864 815 928 c 1,29,-1
 821 928 l 2,30,31
 828 928 828 928 834 923 c 128,-1,32
 840 918 840 918 840 911 c 2,33,-1
 840 893 l 2,34,35
 840 883 840 883 836 883 c 1,36,37
 765 795 765 795 661 745.5 c 128,-1,38
 557 696 557 696 446 696 c 0,39,40
 365 696 365 696 274 721 c 1,41,-1
 274 336 l 1,42,43
 376 438 376 438 535 438 c 0,44,45
 648 438 648 438 735.5 375.5 c 128,-1,46
 823 313 823 313 871.5 211 c 128,-1,47
 920 109 920 109 920 2 c 0,48,49
 920 -119 920 -119 860 -220.5 c 128,-1,50
 800 -322 800 -322 696.5 -382 c 128,-1,51
 593 -442 593 -442 473 -442 c 0,52,53
 375 -442 375 -442 288.5 -392 c 128,-1,54
 202 -342 202 -342 152 -256 c 128,-1,55
 102 -170 102 -170 102 -74 c 0,56,57
 102 -31 102 -31 131 -2 c 128,-1,58
 160 27 160 27 203 27 c 0,59,60
 230 27 230 27 253.5 14 c 128,-1,61
 277 1 277 1 290 -22.5 c 128,-1,62
 303 -46 303 -46 303 -74 c 0,63,64
 303 -101 303 -101 290 -124.5 c 128,-1,65
 277 -148 277 -148 253.5 -161 c 128,-1,66
 230 -174 230 -174 203 -174 c 0,67,68
 186 -174 186 -174 178 -172 c 1,0,1
EndSplineSet
EndChar

StartChar: six
Encoding: 54 54 25
Width: 1024
GlyphClass: 2
Flags: W
LayerCount: 2
Fore
SplineSet
512 -45 m 0,0,1
 385 -45 385 -45 300 22.5 c 128,-1,2
 215 90 215 90 168.5 197.5 c 128,-1,3
 122 305 122 305 104 423 c 128,-1,4
 86 541 86 541 86 662 c 0,5,6
 86 824 86 824 149 987 c 128,-1,7
 212 1150 212 1150 334.5 1257 c 128,-1,8
 457 1364 457 1364 625 1364 c 0,9,10
 698 1364 698 1364 757 1338 c 128,-1,11
 816 1312 816 1312 850.5 1261 c 128,-1,12
 885 1210 885 1210 885 1137 c 0,13,14
 885 1096 885 1096 858 1069 c 128,-1,15
 831 1042 831 1042 791 1042 c 0,16,17
 750 1042 750 1042 722 1069 c 128,-1,18
 694 1096 694 1096 694 1137 c 256,19,20
 694 1178 694 1178 722.5 1205.5 c 128,-1,21
 751 1233 751 1233 791 1233 c 0,22,23
 794 1233 794 1233 796 1232.5 c 128,-1,24
 798 1232 798 1232 799 1231 c 1,25,26
 774 1268 774 1268 725.5 1286.5 c 128,-1,27
 677 1305 677 1305 625 1305 c 0,28,29
 563 1305 563 1305 509 1278 c 128,-1,30
 455 1251 455 1251 411 1204 c 128,-1,31
 367 1157 367 1157 340 1104 c 0,32,33
 298 1020 298 1020 284 915.5 c 128,-1,34
 270 811 270 811 270 684 c 1,35,36
 308 771 308 771 375 825 c 128,-1,37
 442 879 442 879 530 879 c 0,38,39
 621 879 621 879 696 842 c 128,-1,40
 771 805 771 805 825 739.5 c 128,-1,41
 879 674 879 674 907.5 590 c 128,-1,42
 936 506 936 506 936 420 c 0,43,44
 936 300 936 300 882.5 191.5 c 128,-1,45
 829 83 829 83 732 19 c 128,-1,46
 635 -45 635 -45 512 -45 c 0,0,1
512 20 m 0,47,48
 616 20 616 20 669.5 79.5 c 128,-1,49
 723 139 723 139 737.5 222 c 128,-1,50
 752 305 752 305 752 420 c 0,51,52
 752 530 752 530 739.5 615 c 128,-1,53
 727 700 727 700 675.5 762.5 c 128,-1,54
 624 825 624 825 522 825 c 0,55,56
 437 825 437 825 381.5 770 c 128,-1,57
 326 715 326 715 300 632 c 128,-1,58
 274 549 274 549 274 465 c 0,59,60
 274 436 274 436 276 422 c 0,61,62
 276 419 276 419 275.5 417 c 128,-1,63
 275 415 275 415 274 412 c 1,64,65
 274 324 274 324 294 234.5 c 128,-1,66
 314 145 314 145 367.5 82.5 c 128,-1,67
 421 20 421 20 512 20 c 0,47,48
EndSplineSet
EndChar

StartChar: seven
Encoding: 55 55 26
Width: 1024
GlyphClass: 2
Flags: W
LayerCount: 2
Fore
SplineSet
360 -348 m 0,0,1
 360 -131 360 -131 435.5 76.5 c 128,-1,2
 511 284 511 284 647 471 c 1,3,-1
 836 725 l 1,4,-1
 582 725 l 2,5,6
 270 725 270 725 221 717 c 1,7,8
 196 672 196 672 174 545 c 1,9,10
 169 526 169 526 154 526 c 2,11,-1
 135 526 l 2,12,13
 115 526 115 526 115 553 c 1,14,-1
 184 930 l 2,15,16
 186 937 186 937 191.5 942.5 c 128,-1,17
 197 948 197 948 205 948 c 2,18,-1
 223 948 l 2,19,20
 233 948 233 948 238.5 941.5 c 128,-1,21
 244 935 244 935 244 926 c 2,22,-1
 244 920 l 1,23,24
 248 896 248 896 365 889.5 c 128,-1,25
 482 883 482 883 588 883 c 2,26,-1
 973 883 l 2,27,28
 979 883 979 883 986 877 c 128,-1,29
 993 871 993 871 993 864 c 2,30,-1
 993 829 l 2,31,32
 993 827 993 827 992.5 826 c 128,-1,33
 992 825 992 825 991 823 c 2,34,-1
 709 442 l 1,35,36
 634 337 634 337 600 208 c 128,-1,37
 566 79 566 79 558.5 -45 c 128,-1,38
 551 -169 551 -169 551 -348 c 0,39,40
 551 -388 551 -388 524 -415 c 128,-1,41
 497 -442 497 -442 457 -442 c 0,42,43
 416 -442 416 -442 388 -415 c 128,-1,44
 360 -388 360 -388 360 -348 c 0,0,1
EndSplineSet
EndChar

StartChar: eight
Encoding: 56 56 27
Width: 1024
GlyphClass: 2
Flags: W
LayerCount: 2
Fore
SplineSet
86 311 m 0,0,1
 86 438 86 438 169 532.5 c 128,-1,2
 252 627 252 627 383 690 c 1,3,-1
 297 743 l 1,4,5
 227 790 227 790 184 864 c 128,-1,6
 141 938 141 938 141 1022 c 0,7,8
 141 1119 141 1119 193 1198 c 128,-1,9
 245 1277 245 1277 330.5 1320.5 c 128,-1,10
 416 1364 416 1364 512 1364 c 0,11,12
 603 1364 603 1364 688 1327 c 128,-1,13
 773 1290 773 1290 827 1221.5 c 128,-1,14
 881 1153 881 1153 881 1059 c 0,15,16
 881 866 881 866 633 739 c 1,17,-1
 758 659 l 2,18,19
 840 606 840 606 888 522 c 128,-1,20
 936 438 936 438 936 344 c 0,21,22
 936 235 936 235 876.5 145 c 128,-1,23
 817 55 817 55 718.5 5 c 128,-1,24
 620 -45 620 -45 512 -45 c 0,25,26
 406 -45 406 -45 307.5 -2 c 128,-1,27
 209 41 209 41 147.5 122.5 c 128,-1,28
 86 204 86 204 86 311 c 0,0,1
195 311 m 0,29,30
 195 187 195 187 290.5 103.5 c 128,-1,31
 386 20 386 20 512 20 c 0,32,33
 589 20 589 20 662 51.5 c 128,-1,34
 735 83 735 83 781 142 c 128,-1,35
 827 201 827 201 827 279 c 0,36,37
 827 340 827 340 792.5 393.5 c 128,-1,38
 758 447 758 447 705 481 c 2,39,-1
 436 653 l 1,40,41
 367 620 367 620 313 568.5 c 128,-1,42
 259 517 259 517 227 450.5 c 128,-1,43
 195 384 195 384 195 311 c 0,29,30
338 930 m 1,44,-1
 580 774 l 1,45,46
 668 822 668 822 726 894.5 c 128,-1,47
 784 967 784 967 784 1057 c 0,48,49
 784 1128 784 1128 745 1185 c 128,-1,50
 706 1242 706 1242 643 1273.5 c 128,-1,51
 580 1305 580 1305 510 1305 c 0,52,53
 409 1305 409 1305 323.5 1247.5 c 128,-1,54
 238 1190 238 1190 238 1094 c 0,55,56
 238 997 238 997 338 930 c 1,44,-1
EndSplineSet
EndChar

StartChar: nine
Encoding: 57 57 28
Width: 1024
GlyphClass: 2
Flags: W
LayerCount: 2
Fore
SplineSet
231 -315 m 1,0,1
 288 -377 288 -377 426 -377 c 0,2,3
 511 -377 511 -377 578 -324 c 128,-1,4
 645 -271 645 -271 686 -188 c 0,5,6
 729 -99 729 -99 740.5 -5 c 128,-1,7
 752 89 752 89 752 221 c 1,8,9
 716 138 716 138 647 84.5 c 128,-1,10
 578 31 578 31 489 31 c 0,11,12
 372 31 372 31 279.5 93 c 128,-1,13
 187 155 187 155 136.5 258 c 128,-1,14
 86 361 86 361 86 477 c 0,15,16
 86 601 86 601 143 704 c 128,-1,17
 200 807 200 807 299 867.5 c 128,-1,18
 398 928 398 928 522 928 c 256,19,20
 646 928 646 928 728.5 863.5 c 128,-1,21
 811 799 811 799 856 695.5 c 128,-1,22
 901 592 901 592 918.5 475.5 c 128,-1,23
 936 359 936 359 936 244 c 0,24,25
 936 90 936 90 877 -70 c 128,-1,26
 818 -230 818 -230 702 -336 c 128,-1,27
 586 -442 586 -442 426 -442 c 0,28,29
 306 -442 306 -442 221.5 -387.5 c 128,-1,30
 137 -333 137 -333 137 -219 c 0,31,32
 137 -179 137 -179 165 -152 c 128,-1,33
 193 -125 193 -125 233 -125 c 0,34,35
 274 -125 274 -125 301 -152 c 128,-1,36
 328 -179 328 -179 328 -219 c 256,37,38
 328 -259 328 -259 300 -287 c 128,-1,39
 272 -315 272 -315 231 -315 c 1,0,1
500 84 m 0,40,41
 583 84 583 84 639.5 138 c 128,-1,42
 696 192 696 192 722 272.5 c 128,-1,43
 748 353 748 353 748 436 c 0,44,45
 748 463 748 463 745 475 c 1,46,47
 746 478 746 478 747 480 c 128,-1,48
 748 482 748 482 748 483 c 0,49,50
 748 571 748 571 729.5 658 c 128,-1,51
 711 745 711 745 661 806.5 c 128,-1,52
 611 868 611 868 522 868 c 0,53,54
 439 868 439 868 388.5 834.5 c 128,-1,55
 338 801 338 801 311.5 744 c 128,-1,56
 285 687 285 687 277.5 624 c 128,-1,57
 270 561 270 561 270 477 c 0,58,59
 270 402 270 402 276 337 c 128,-1,60
 282 272 282 272 304 213.5 c 128,-1,61
 326 155 326 155 374 119.5 c 128,-1,62
 422 84 422 84 500 84 c 0,40,41
EndSplineSet
EndChar

StartChar: colon
Encoding: 58 58 29
Width: 567
GlyphClass: 2
Flags: W
LayerCount: 2
Fore
SplineSet
172 113 m 0,0,1
 172 159 172 159 206 192 c 128,-1,2
 240 225 240 225 285 225 c 0,3,4
 313 225 313 225 340 210 c 128,-1,5
 367 195 367 195 382 168 c 128,-1,6
 397 141 397 141 397 113 c 0,7,8
 397 68 397 68 364 34 c 128,-1,9
 331 0 331 0 285 0 c 0,10,11
 240 0 240 0 206 34 c 128,-1,12
 172 68 172 68 172 113 c 0,0,1
EndSplineSet
EndChar

StartChar: semicolon
Encoding: 59 59 30
Width: 567
GlyphClass: 2
Flags: W
LayerCount: 2
Fore
SplineSet
203 -369 m 0,0,1
 203 -360 203 -360 211 -352 c 0,2,3
 285 -281 285 -281 326 -188 c 128,-1,4
 367 -95 367 -95 367 8 c 2,5,-1
 367 33 l 1,6,7
 334 0 334 0 285 0 c 0,8,9
 238 0 238 0 205 33 c 128,-1,10
 172 66 172 66 172 113 c 0,11,12
 172 161 172 161 205 193 c 128,-1,13
 238 225 238 225 285 225 c 0,14,15
 358 225 358 225 389 157.5 c 128,-1,16
 420 90 420 90 420 8 c 0,17,18
 420 -106 420 -106 374.5 -208.5 c 128,-1,19
 329 -311 329 -311 246 -393 c 1,20,21
 238 -397 238 -397 233 -397 c 0,22,23
 223 -397 223 -397 213 -388 c 128,-1,24
 203 -379 203 -379 203 -369 c 0,0,1
EndSplineSet
EndChar

StartChar: less
Encoding: 60 60 31
Width: 1591
GlyphClass: 2
Flags: W
LayerCount: 2
Fore
SplineSet
190 477 m 2,0,1
 170 486 170 486 170 512 c 256,2,3
 170 538 170 538 197 551 c 2,4,-1
 1366 1102 l 2,5,6
 1374 1106 1374 1106 1380 1106 c 0,7,8
 1398 1106 1398 1106 1409.5 1093.5 c 128,-1,9
 1421 1081 1421 1081 1421 1065 c 0,10,11
 1421 1040 1421 1040 1397 1026 c 1,12,-1
 307 512 l 1,13,-1
 1403 -6 l 1,14,15
 1421 -12 1421 -12 1421 -41 c 0,16,17
 1421 -57 1421 -57 1409.5 -69.5 c 128,-1,18
 1398 -82 1398 -82 1380 -82 c 0,19,20
 1374 -82 1374 -82 1366 -78 c 2,21,-1
 190 477 l 2,0,1
EndSplineSet
EndChar

StartChar: equal
Encoding: 61 61 32
Width: 1024
GlyphClass: 2
Flags: W
LayerCount: 2
Fore
SplineSet
115 -471 m 0,0,1
 115 -465 115 -465 117 -463 c 1,2,-1
 829 1511 l 2,3,4
 833 1523 833 1523 843 1529.5 c 128,-1,5
 853 1536 853 1536 866 1536 c 0,6,7
 884 1536 884 1536 895.5 1525 c 128,-1,8
 907 1514 907 1514 907 1495 c 2,9,-1
 907 1487 l 1,10,-1
 195 -487 l 1,11,12
 183 -512 183 -512 156 -512 c 0,13,14
 139 -512 139 -512 127 -500 c 128,-1,15
 115 -488 115 -488 115 -471 c 0,0,1
EndSplineSet
EndChar

StartChar: greater
Encoding: 62 62 33
Width: 1591
GlyphClass: 2
Flags: W
LayerCount: 2
Fore
SplineSet
170 -41 m 0,0,1
 170 -15 170 -15 197 -2 c 2,2,-1
 1284 512 l 1,3,-1
 190 1030 l 1,4,5
 170 1036 170 1036 170 1065 c 0,6,7
 170 1079 170 1079 181.5 1092.5 c 128,-1,8
 193 1106 193 1106 211 1106 c 0,9,10
 215 1106 215 1106 227 1102 c 1,11,-1
 1403 547 l 2,12,13
 1421 538 1421 538 1421 512 c 0,14,15
 1421 485 1421 485 1397 475 c 1,16,-1
 227 -78 l 1,17,18
 215 -82 215 -82 211 -82 c 0,19,20
 193 -82 193 -82 181.5 -68.5 c 128,-1,21
 170 -55 170 -55 170 -41 c 0,0,1
EndSplineSet
EndChar

StartChar: question
Encoding: 63 63 34
Width: 1024
GlyphClass: 2
Flags: W
LayerCount: 2
Fore
SplineSet
190 55 m 0,0,1
 190 59 190 59 193 63 c 2,2,-1
 391 426 l 1,3,-1
 23 600 l 1,4,5
 6 606 6 606 6 623 c 0,6,7
 6 633 6 633 13 639 c 128,-1,8
 20 645 20 645 31 645 c 1,9,-1
 438 567 l 1,10,-1
 489 977 l 1,11,12
 493 986 493 986 499 990.5 c 128,-1,13
 505 995 505 995 512 995 c 256,14,15
 519 995 519 995 526 989.5 c 128,-1,16
 533 984 533 984 535 977 c 1,17,-1
 586 567 l 1,18,-1
 993 645 l 1,19,20
 1004 645 1004 645 1011 639 c 128,-1,21
 1018 633 1018 633 1018 623 c 0,22,23
 1018 608 1018 608 1006 602 c 2,24,-1
 633 426 l 1,25,-1
 829 66 l 1,26,27
 834 59 834 59 834 55 c 0,28,29
 834 33 834 33 811 33 c 0,30,31
 799 33 799 33 797 37 c 1,32,-1
 512 340 l 1,33,-1
 231 41 l 1,34,35
 226 33 226 33 213 33 c 0,36,37
 190 33 190 33 190 55 c 0,0,1
EndSplineSet
EndChar

StartChar: at
Encoding: 64 64 35
Width: 1085
GlyphClass: 2
Flags: W
LayerCount: 2
Fore
SplineSet
82 319 m 0,0,1
 82 433 82 433 130 545.5 c 128,-1,2
 178 658 178 658 261.5 747 c 128,-1,3
 345 836 345 836 454 889 c 128,-1,4
 563 942 563 942 680 942 c 0,5,6
 786 942 786 942 856 878 c 128,-1,7
 926 814 926 814 944 709 c 1,8,9
 968 797 968 797 983.5 881 c 128,-1,10
 999 965 999 965 999 1049 c 0,11,12
 999 1143 999 1143 968.5 1225 c 128,-1,13
 938 1307 938 1307 873.5 1357 c 128,-1,14
 809 1407 809 1407 713 1407 c 0,15,16
 625 1407 625 1407 549.5 1367 c 128,-1,17
 474 1327 474 1327 428 1251 c 1,18,19
 432 1252 432 1252 435 1252.5 c 128,-1,20
 438 1253 438 1253 442 1253 c 0,21,22
 477 1253 477 1253 499.5 1232 c 128,-1,23
 522 1211 522 1211 522 1178 c 0,24,25
 522 1132 522 1132 487.5 1097.5 c 128,-1,26
 453 1063 453 1063 406 1063 c 0,27,28
 372 1063 372 1063 349 1083.5 c 128,-1,29
 326 1104 326 1104 326 1137 c 256,30,31
 326 1170 326 1170 343 1211.5 c 128,-1,32
 360 1253 360 1253 385 1291.5 c 128,-1,33
 410 1330 410 1330 436 1356 c 0,34,35
 473 1393 473 1393 518 1417.5 c 128,-1,36
 563 1442 563 1442 614 1454 c 128,-1,37
 665 1466 665 1466 717 1466 c 0,38,39
 826 1466 826 1466 909 1422 c 128,-1,40
 992 1378 992 1378 1047.5 1304 c 128,-1,41
 1103 1230 1103 1230 1131 1135.5 c 128,-1,42
 1159 1041 1159 1041 1159 938 c 0,43,44
 1159 795 1159 795 1110 622 c 128,-1,45
 1061 449 1061 449 971.5 299 c 128,-1,46
 882 149 882 149 751.5 52 c 128,-1,47
 621 -45 621 -45 463 -45 c 0,48,49
 357 -45 357 -45 270.5 0.5 c 128,-1,50
 184 46 184 46 133 130.5 c 128,-1,51
 82 215 82 215 82 319 c 0,0,1
248 242 m 0,52,53
 248 137 248 137 306.5 78.5 c 128,-1,54
 365 20 365 20 469 20 c 0,55,56
 577 20 577 20 656.5 83.5 c 128,-1,57
 736 147 736 147 785.5 240 c 128,-1,58
 835 333 835 333 872 446 c 1,59,-1
 872 451 l 2,60,61
 872 455 872 455 874 457 c 1,62,63
 903 541 903 541 903 629 c 0,64,65
 903 701 903 701 879 760 c 128,-1,66
 855 819 855 819 805.5 854 c 128,-1,67
 756 889 756 889 686 889 c 0,68,69
 614 889 614 889 550 859 c 128,-1,70
 486 829 486 829 435.5 777 c 128,-1,71
 385 725 385 725 354 662 c 0,72,73
 319 591 319 591 283.5 452.5 c 128,-1,74
 248 314 248 314 248 242 c 0,52,53
EndSplineSet
EndChar

StartChar: A
Encoding: 65 65 36
Width: 1536
GlyphClass: 2
Flags: W
LayerCount: 2
Fore
SplineSet
92 0 m 2,0,1
 72 0 72 0 72 27 c 1,2,3
 80 72 80 72 98 72 c 0,4,5
 181 72 181 72 241.5 105 c 128,-1,6
 302 138 302 138 346 207 c 1,7,8
 350 211 350 211 350 211 c 1,9,-1
 1081 1444 l 1,10,11
 1097 1466 1097 1466 1120 1466 c 2,12,-1
 1147 1466 l 2,13,14
 1153 1466 1153 1466 1159 1463.5 c 128,-1,15
 1165 1461 1165 1461 1169.5 1455.5 c 128,-1,16
 1174 1450 1174 1450 1174 1444 c 2,17,-1
 1298 121 l 2,18,19
 1298 112 1298 112 1307 94 c 1,20,21
 1327 72 1327 72 1460 72 c 0,22,23
 1481 72 1481 72 1481 45 c 1,24,25
 1474 18 1474 18 1469.5 9 c 128,-1,26
 1465 0 1465 0 1446 0 c 2,27,-1
 934 0 l 2,28,29
 915 0 915 0 915 27 c 1,30,31
 926 72 926 72 942 72 c 0,32,33
 1104 72 1104 72 1114 127 c 1,34,-1
 1083 465 l 1,35,-1
 578 465 l 1,36,-1
 414 190 l 1,37,38
 399 168 399 168 399 139 c 0,39,40
 399 103 399 103 433.5 87.5 c 128,-1,41
 468 72 468 72 510 72 c 0,42,43
 530 72 530 72 530 45 c 1,44,45
 523 16 523 16 519 8 c 128,-1,46
 515 0 515 0 496 0 c 2,47,-1
 92 0 l 2,0,1
618 537 m 1,48,-1
 1075 537 l 1,49,-1
 1014 1200 l 1,50,-1
 618 537 l 1,48,-1
EndSplineSet
EndChar

StartChar: B
Encoding: 66 66 37
Width: 1552
GlyphClass: 2
Flags: W
LayerCount: 2
Fore
SplineSet
102 0 m 2,0,1
 82 0 82 0 82 27 c 1,2,3
 83 32 83 32 86 44 c 128,-1,4
 89 56 89 56 94 64 c 128,-1,5
 99 72 99 72 109 72 c 0,6,7
 167 72 167 72 210 75 c 128,-1,8
 253 78 253 78 283 86 c 1,9,10
 307 95 307 95 322 141 c 1,11,-1
 602 1266 l 2,12,13
 606 1286 606 1286 606 1294 c 0,14,15
 606 1316 606 1316 582 1319 c 1,16,17
 543 1327 543 1327 434 1327 c 0,18,19
 414 1327 414 1327 414 1354 c 1,20,21
 415 1359 415 1359 418 1371.5 c 128,-1,22
 421 1384 421 1384 426.5 1391.5 c 128,-1,23
 432 1399 432 1399 440 1399 c 2,24,-1
 1174 1399 l 2,25,26
 1241 1399 1241 1399 1306.5 1382.5 c 128,-1,27
 1372 1366 1372 1366 1427.5 1330 c 128,-1,28
 1483 1294 1483 1294 1515.5 1240.5 c 128,-1,29
 1548 1187 1548 1187 1548 1116 c 0,30,31
 1548 1039 1548 1039 1508.5 973 c 128,-1,32
 1469 907 1469 907 1406.5 858 c 128,-1,33
 1344 809 1344 809 1271.5 777.5 c 128,-1,34
 1199 746 1199 746 1120 731 c 1,35,36
 1176 731 1176 731 1233.5 709 c 128,-1,37
 1291 687 1291 687 1336 649 c 128,-1,38
 1381 611 1381 611 1408.5 558 c 128,-1,39
 1436 505 1436 505 1436 444 c 0,40,41
 1436 321 1436 321 1350 219 c 128,-1,42
 1264 117 1264 117 1133.5 58.5 c 128,-1,43
 1003 0 1003 0 881 0 c 2,44,-1
 102 0 l 2,0,1
479 88 m 0,45,46
 479 72 479 72 549 72 c 2,47,-1
 842 72 l 2,48,49
 942 72 942 72 1034 127.5 c 128,-1,50
 1126 183 1126 183 1181.5 275 c 128,-1,51
 1237 367 1237 367 1237 467 c 0,52,53
 1237 528 1237 528 1211.5 582.5 c 128,-1,54
 1186 637 1186 637 1138 668.5 c 128,-1,55
 1090 700 1090 700 1028 700 c 2,56,-1
 629 700 l 1,57,-1
 487 133 l 2,58,59
 479 105 479 105 479 88 c 0,45,46
643 754 m 1,60,-1
 954 754 l 2,61,62
 1052 754 1052 754 1144.5 804 c 128,-1,63
 1237 854 1237 854 1295.5 940 c 128,-1,64
 1354 1026 1354 1026 1354 1122 c 0,65,66
 1354 1211 1354 1211 1298.5 1269 c 128,-1,67
 1243 1327 1243 1327 1155 1327 c 2,68,-1
 874 1327 l 2,69,70
 819 1327 819 1327 800 1317 c 128,-1,71
 781 1307 781 1307 768 1257 c 2,72,-1
 643 754 l 1,60,-1
EndSplineSet
EndChar

StartChar: C
Encoding: 67 67 38
Width: 1462
GlyphClass: 2
Flags: W
LayerCount: 2
Fore
SplineSet
299 442 m 0,0,1
 299 319 299 319 346.5 225.5 c 128,-1,2
 394 132 394 132 484.5 79.5 c 128,-1,3
 575 27 575 27 698 27 c 0,4,5
 827 27 827 27 946.5 93 c 128,-1,6
 1066 159 1066 159 1150.5 269.5 c 128,-1,7
 1235 380 1235 380 1266 504 c 0,8,9
 1270 516 1270 516 1282 516 c 2,10,-1
 1307 516 l 2,11,12
 1315 516 1315 516 1320 510.5 c 128,-1,13
 1325 505 1325 505 1325 498 c 0,14,15
 1325 496 1325 496 1323 492 c 0,16,17
 1288 350 1288 350 1187.5 225.5 c 128,-1,18
 1087 101 1087 101 947 28 c 128,-1,19
 807 -45 807 -45 659 -45 c 0,20,21
 499 -45 499 -45 372 27 c 128,-1,22
 245 99 245 99 174.5 227 c 128,-1,23
 104 355 104 355 104 516 c 0,24,25
 104 688 104 688 181 856.5 c 128,-1,26
 258 1025 258 1025 388 1156.5 c 128,-1,27
 518 1288 518 1288 684.5 1366 c 128,-1,28
 851 1444 851 1444 1022 1444 c 0,29,30
 1090 1444 1090 1444 1152 1423.5 c 128,-1,31
 1214 1403 1214 1403 1267 1361 c 128,-1,32
 1320 1319 1320 1319 1354 1264 c 1,33,-1
 1516 1440 l 1,34,35
 1516 1444 1516 1444 1526 1444 c 2,36,-1
 1538 1444 l 2,37,38
 1546 1444 1546 1444 1551 1437 c 128,-1,39
 1556 1430 1556 1430 1556 1423 c 1,40,-1
 1417 870 l 1,41,42
 1417 856 1417 856 1401 856 c 2,43,-1
 1364 856 l 2,44,45
 1348 856 1348 856 1348 879 c 1,46,47
 1356 924 1356 924 1356 987 c 0,48,49
 1356 1087 1356 1087 1322 1175.5 c 128,-1,50
 1288 1264 1288 1264 1216.5 1318 c 128,-1,51
 1145 1372 1145 1372 1042 1372 c 0,52,53
 875 1372 875 1372 736 1288 c 128,-1,54
 597 1204 597 1204 500.5 1067.5 c 128,-1,55
 404 931 404 931 351.5 764.5 c 128,-1,56
 299 598 299 598 299 442 c 0,0,1
EndSplineSet
EndChar

StartChar: D
Encoding: 68 68 39
Width: 1694
GlyphClass: 2
Flags: W
LayerCount: 2
Fore
SplineSet
100 0 m 2,0,1
 80 0 80 0 80 27 c 1,2,3
 81 32 81 32 84 44.5 c 128,-1,4
 87 57 87 57 92.5 64.5 c 128,-1,5
 98 72 98 72 106 72 c 0,6,7
 231 72 231 72 281 86 c 1,8,9
 307 95 307 95 319 141 c 2,10,-1
 600 1266 l 2,11,12
 604 1286 604 1286 604 1294 c 0,13,14
 604 1316 604 1316 580 1319 c 1,15,16
 541 1327 541 1327 432 1327 c 0,17,18
 412 1327 412 1327 412 1354 c 1,19,20
 413 1359 413 1359 416 1371.5 c 128,-1,21
 419 1384 419 1384 424.5 1391.5 c 128,-1,22
 430 1399 430 1399 438 1399 c 2,23,-1
 1174 1399 l 2,24,25
 1317 1399 1317 1399 1424 1329.5 c 128,-1,26
 1531 1260 1531 1260 1588 1142.5 c 128,-1,27
 1645 1025 1645 1025 1645 883 c 0,28,29
 1645 726 1645 726 1580 569 c 128,-1,30
 1515 412 1515 412 1398 282 c 128,-1,31
 1281 152 1281 152 1131 76 c 128,-1,32
 981 0 981 0 823 0 c 2,33,-1
 100 0 l 2,0,1
483 88 m 0,34,35
 483 72 483 72 553 72 c 2,36,-1
 791 72 l 2,37,38
 905 72 905 72 1011 119 c 128,-1,39
 1117 166 1117 166 1200 248 c 0,40,41
 1277 325 1277 325 1336 450 c 128,-1,42
 1395 575 1395 575 1427.5 711 c 128,-1,43
 1460 847 1460 847 1460 961 c 0,44,45
 1460 1044 1460 1044 1435.5 1111 c 128,-1,46
 1411 1178 1411 1178 1366.5 1226 c 128,-1,47
 1322 1274 1322 1274 1255 1300.5 c 128,-1,48
 1188 1327 1188 1327 1104 1327 c 2,49,-1
 879 1327 l 2,50,51
 823 1327 823 1327 805 1317.5 c 128,-1,52
 787 1308 787 1308 772 1257 c 1,53,-1
 492 133 l 1,54,55
 483 108 483 108 483 88 c 0,34,35
EndSplineSet
EndChar

StartChar: E
Encoding: 69 69 40
Width: 1511
GlyphClass: 2
Flags: W
LayerCount: 2
Fore
SplineSet
96 0 m 2,0,1
 76 0 76 0 76 27 c 1,2,3
 77 32 77 32 80 44.5 c 128,-1,4
 83 57 83 57 88.5 64.5 c 128,-1,5
 94 72 94 72 102 72 c 0,6,7
 227 72 227 72 276 86 c 1,8,9
 303 95 303 95 315 141 c 2,10,-1
 596 1266 l 2,11,12
 600 1286 600 1286 600 1294 c 0,13,14
 600 1316 600 1316 575 1319 c 1,15,16
 537 1327 537 1327 428 1327 c 0,17,18
 408 1327 408 1327 408 1354 c 1,19,20
 409 1359 409 1359 412 1371.5 c 128,-1,21
 415 1384 415 1384 420.5 1391.5 c 128,-1,22
 426 1399 426 1399 434 1399 c 2,23,-1
 1544 1399 l 2,24,25
 1565 1399 1565 1399 1565 1372 c 1,26,-1
 1516 948 l 2,27,28
 1516 943 1516 943 1508.5 936.5 c 128,-1,29
 1501 930 1501 930 1495 930 c 2,30,-1
 1477 930 l 2,31,32
 1456 930 1456 930 1456 956 c 1,33,34
 1468 1056 1468 1056 1468 1104 c 0,35,36
 1468 1186 1468 1186 1440 1231.5 c 128,-1,37
 1412 1277 1412 1277 1365.5 1297 c 128,-1,38
 1319 1317 1319 1317 1262.5 1322 c 128,-1,39
 1206 1327 1206 1327 1114 1327 c 2,40,-1
 881 1327 l 2,41,42
 825 1327 825 1327 807 1317.5 c 128,-1,43
 789 1308 789 1308 774 1257 c 1,44,-1
 651 762 l 1,45,-1
 811 762 l 2,46,47
 915 762 915 762 968 776.5 c 128,-1,48
 1021 791 1021 791 1052 837 c 128,-1,49
 1083 883 1083 883 1108 983 c 0,50,51
 1110 990 1110 990 1115.5 995.5 c 128,-1,52
 1121 1001 1121 1001 1128 1001 c 2,53,-1
 1147 1001 l 2,54,55
 1167 1001 1167 1001 1167 975 c 1,56,-1
 1040 469 l 2,57,58
 1036 451 1036 451 1020 451 c 2,59,-1
 1001 451 l 2,60,61
 981 451 981 451 981 477 c 1,62,63
 1001 559 1001 559 1001 598 c 0,64,65
 1001 658 1001 658 947 674 c 128,-1,66
 893 690 893 690 803 690 c 2,67,-1
 633 690 l 1,68,-1
 494 133 l 1,69,70
 485 108 485 108 485 88 c 0,71,72
 485 72 485 72 555 72 c 2,73,-1
 803 72 l 2,74,75
 951 72 951 72 1043 95 c 128,-1,76
 1135 118 1135 118 1195.5 168.5 c 128,-1,77
 1256 219 1256 219 1300 297 c 128,-1,78
 1344 375 1344 375 1407 524 c 1,79,80
 1411 537 1411 537 1425 537 c 2,81,-1
 1444 537 l 2,82,83
 1452 537 1452 537 1458 530 c 128,-1,84
 1464 523 1464 523 1464 514 c 0,85,86
 1464 510 1464 510 1462 506 c 2,87,-1
 1251 12 l 1,88,89
 1247 0 1247 0 1235 0 c 2,90,-1
 96 0 l 2,0,1
EndSplineSet
EndChar

StartChar: F
Encoding: 70 70 41
Width: 1317
GlyphClass: 2
Flags: W
LayerCount: 2
Fore
SplineSet
96 0 m 2,0,1
 76 0 76 0 76 27 c 1,2,3
 77 32 77 32 80 44.5 c 128,-1,4
 83 57 83 57 88.5 64.5 c 128,-1,5
 94 72 94 72 102 72 c 0,6,7
 227 72 227 72 276 86 c 1,8,9
 303 95 303 95 315 141 c 2,10,-1
 596 1266 l 2,11,12
 600 1286 600 1286 600 1294 c 0,13,14
 600 1316 600 1316 575 1319 c 1,15,16
 537 1327 537 1327 428 1327 c 0,17,18
 408 1327 408 1327 408 1354 c 1,19,20
 409 1359 409 1359 412 1371.5 c 128,-1,21
 415 1384 415 1384 420.5 1391.5 c 128,-1,22
 426 1399 426 1399 434 1399 c 2,23,-1
 1516 1399 l 2,24,25
 1536 1399 1536 1399 1536 1372 c 1,26,-1
 1487 948 l 2,27,28
 1487 942 1487 942 1480 936 c 128,-1,29
 1473 930 1473 930 1466 930 c 2,30,-1
 1448 930 l 2,31,32
 1427 930 1427 930 1427 956 c 1,33,34
 1440 1049 1440 1049 1440 1108 c 0,35,36
 1440 1210 1440 1210 1396 1258 c 128,-1,37
 1352 1306 1352 1306 1285 1316.5 c 128,-1,38
 1218 1327 1218 1327 1100 1327 c 2,39,-1
 881 1327 l 2,40,41
 825 1327 825 1327 807 1317.5 c 128,-1,42
 789 1308 789 1308 774 1257 c 1,43,-1
 643 735 l 1,44,-1
 797 735 l 2,45,46
 873 735 873 735 920 743 c 128,-1,47
 967 751 967 751 998 774 c 128,-1,48
 1029 797 1029 797 1049.5 840.5 c 128,-1,49
 1070 884 1070 884 1087 956 c 1,50,51
 1093 975 1093 975 1108 975 c 2,52,-1
 1126 975 l 2,53,54
 1147 975 1147 975 1147 948 c 1,55,-1
 1022 442 l 1,56,57
 1013 424 1013 424 1001 424 c 2,58,-1
 983 424 l 2,59,60
 963 424 963 424 963 451 c 1,61,62
 968 472 968 472 971 486 c 128,-1,63
 974 500 974 500 978.5 526.5 c 128,-1,64
 983 553 983 553 983 573 c 0,65,66
 983 632 983 632 931 648 c 128,-1,67
 879 664 879 664 795 664 c 2,68,-1
 627 664 l 1,69,-1
 494 133 l 2,70,71
 489 113 489 113 489 113 c 1,72,73
 489 89 489 89 504 86 c 0,74,75
 557 72 557 72 713 72 c 0,76,77
 733 72 733 72 733 45 c 1,78,79
 726 16 726 16 722 8 c 128,-1,80
 718 0 718 0 698 0 c 2,81,-1
 96 0 l 2,0,1
EndSplineSet
EndChar

StartChar: G
Encoding: 71 71 42
Width: 1610
GlyphClass: 2
Flags: W
LayerCount: 2
Fore
SplineSet
299 449 m 0,0,1
 299 322 299 322 349.5 226.5 c 128,-1,2
 400 131 400 131 495 79 c 128,-1,3
 590 27 590 27 715 27 c 0,4,5
 837 27 837 27 947 84.5 c 128,-1,6
 1057 142 1057 142 1085 250 c 2,7,-1
 1130 426 l 2,8,9
 1131 432 1131 432 1132 438.5 c 128,-1,10
 1133 445 1133 445 1133 449 c 0,11,12
 1133 470 1133 470 1120 473 c 0,13,14
 1069 487 1069 487 915 487 c 0,15,16
 895 487 895 487 895 514 c 1,17,18
 901 539 901 539 906 549 c 128,-1,19
 911 559 911 559 930 559 c 2,20,-1
 1458 559 l 2,21,22
 1479 559 1479 559 1479 532 c 1,23,24
 1478 527 1478 527 1475 515 c 128,-1,25
 1472 503 1472 503 1467 495 c 128,-1,26
 1462 487 1462 487 1452 487 c 0,27,28
 1384 487 1384 487 1352.5 476 c 128,-1,29
 1321 465 1321 465 1309 418 c 2,30,-1
 1264 242 l 1,31,-1
 1206 14 l 2,32,33
 1203 0 1203 0 1188 0 c 0,34,35
 1171 0 1171 0 1139 46 c 128,-1,36
 1107 92 1107 92 1094 123 c 1,37,38
 1023 39 1023 39 904 -3 c 128,-1,39
 785 -45 785 -45 659 -45 c 0,40,41
 500 -45 500 -45 372.5 27 c 128,-1,42
 245 99 245 99 174.5 227 c 128,-1,43
 104 355 104 355 104 516 c 0,44,45
 104 688 104 688 180.5 855.5 c 128,-1,46
 257 1023 257 1023 388 1155.5 c 128,-1,47
 519 1288 519 1288 685.5 1366 c 128,-1,48
 852 1444 852 1444 1022 1444 c 0,49,50
 1090 1444 1090 1444 1152.5 1423 c 128,-1,51
 1215 1402 1215 1402 1268.5 1360.5 c 128,-1,52
 1322 1319 1322 1319 1356 1264 c 1,53,-1
 1518 1440 l 1,54,55
 1518 1444 1518 1444 1528 1444 c 2,56,-1
 1540 1444 l 2,57,58
 1548 1444 1548 1444 1553.5 1437.5 c 128,-1,59
 1559 1431 1559 1431 1559 1423 c 1,60,-1
 1419 870 l 1,61,62
 1419 856 1419 856 1403 856 c 2,63,-1
 1366 856 l 2,64,65
 1350 856 1350 856 1350 879 c 1,66,67
 1358 924 1358 924 1358 985 c 0,68,69
 1358 1086 1358 1086 1324 1175 c 128,-1,70
 1290 1264 1290 1264 1218 1318 c 128,-1,71
 1146 1372 1146 1372 1042 1372 c 0,72,73
 877 1372 877 1372 737 1288.5 c 128,-1,74
 597 1205 597 1205 500 1068 c 128,-1,75
 403 931 403 931 351 767 c 128,-1,76
 299 603 299 603 299 449 c 0,0,1
EndSplineSet
EndChar

StartChar: H
Encoding: 72 72 43
Width: 1702
GlyphClass: 2
Flags: W
LayerCount: 2
Fore
SplineSet
96 0 m 2,0,1
 76 0 76 0 76 27 c 1,2,3
 77 32 77 32 80 44.5 c 128,-1,4
 83 57 83 57 88.5 64.5 c 128,-1,5
 94 72 94 72 102 72 c 0,6,7
 227 72 227 72 276 86 c 1,8,9
 303 95 303 95 315 141 c 2,10,-1
 596 1266 l 2,11,12
 600 1286 600 1286 600 1294 c 0,13,14
 600 1316 600 1316 575 1319 c 1,15,16
 537 1327 537 1327 428 1327 c 0,17,18
 408 1327 408 1327 408 1354 c 1,19,20
 415 1380 415 1380 419 1389.5 c 128,-1,21
 423 1399 423 1399 442 1399 c 2,22,-1
 993 1399 l 2,23,24
 1014 1399 1014 1399 1014 1372 c 1,25,26
 1013 1367 1013 1367 1010 1355 c 128,-1,27
 1007 1343 1007 1343 1002 1335 c 128,-1,28
 997 1327 997 1327 987 1327 c 0,29,30
 862 1327 862 1327 813 1313 c 1,31,32
 786 1303 786 1303 774 1257 c 2,33,-1
 651 764 l 1,34,-1
 1266 764 l 1,35,-1
 1391 1266 l 2,36,37
 1395 1286 1395 1286 1395 1294 c 0,38,39
 1395 1316 1395 1316 1370 1319 c 1,40,41
 1331 1327 1331 1327 1223 1327 c 0,42,43
 1202 1327 1202 1327 1202 1354 c 1,44,45
 1209 1380 1209 1380 1213 1389.5 c 128,-1,46
 1217 1399 1217 1399 1237 1399 c 2,47,-1
 1788 1399 l 2,48,49
 1808 1399 1808 1399 1808 1372 c 1,50,51
 1807 1367 1807 1367 1804 1354.5 c 128,-1,52
 1801 1342 1801 1342 1795.5 1334.5 c 128,-1,53
 1790 1327 1790 1327 1782 1327 c 0,54,55
 1657 1327 1657 1327 1608 1313 c 1,56,57
 1581 1304 1581 1304 1569 1257 c 2,58,-1
 1288 133 l 2,59,60
 1284 113 1284 113 1284 104 c 0,61,62
 1284 83 1284 83 1309 80 c 1,63,64
 1348 72 1348 72 1456 72 c 0,65,66
 1477 72 1477 72 1477 45 c 1,67,68
 1471 21 1471 21 1465 10.5 c 128,-1,69
 1459 0 1459 0 1442 0 c 2,70,-1
 891 0 l 2,71,72
 870 0 870 0 870 27 c 1,73,74
 874 42 874 42 876 49 c 128,-1,75
 878 56 878 56 883.5 64 c 128,-1,76
 889 72 889 72 897 72 c 0,77,78
 1022 72 1022 72 1071 86 c 1,79,80
 1098 95 1098 95 1110 141 c 2,81,-1
 1247 692 l 1,82,-1
 633 692 l 1,83,-1
 494 133 l 1,84,85
 489 108 489 108 489 104 c 0,86,87
 489 83 489 83 514 80 c 1,88,89
 553 72 553 72 662 72 c 0,90,91
 682 72 682 72 682 45 c 1,92,93
 675 18 675 18 670.5 9 c 128,-1,94
 666 0 666 0 647 0 c 2,95,-1
 96 0 l 2,0,1
EndSplineSet
EndChar

StartChar: I
Encoding: 73 73 44
Width: 899
GlyphClass: 2
Flags: W
LayerCount: 2
Fore
SplineSet
86 0 m 2,0,1
 66 0 66 0 66 27 c 1,2,3
 74 72 74 72 92 72 c 0,4,5
 213 72 213 72 256 80 c 1,6,7
 303 91 303 91 315 141 c 2,8,-1
 596 1266 l 2,9,10
 600 1286 600 1286 600 1292 c 0,11,12
 600 1305 600 1305 593.5 1310.5 c 128,-1,13
 587 1316 587 1316 573 1319 c 0,14,15
 532 1327 532 1327 418 1327 c 0,16,17
 397 1327 397 1327 397 1354 c 1,18,19
 404 1380 404 1380 408 1389.5 c 128,-1,20
 412 1399 412 1399 432 1399 c 2,21,-1
 1004 1399 l 2,22,23
 1024 1399 1024 1399 1024 1372 c 1,24,25
 1023 1367 1023 1367 1020 1355 c 128,-1,26
 1017 1343 1017 1343 1012 1335 c 128,-1,27
 1007 1327 1007 1327 997 1327 c 0,28,29
 877 1327 877 1327 831 1319 c 1,30,31
 786 1308 786 1308 774 1257 c 2,32,-1
 494 133 l 1,33,34
 489 108 489 108 489 106 c 0,35,36
 489 101 489 101 490.5 96.5 c 128,-1,37
 492 92 492 92 496.5 88.5 c 128,-1,38
 501 85 501 85 505.5 83.5 c 128,-1,39
 510 82 510 82 516 80 c 0,40,41
 555 72 555 72 672 72 c 0,42,43
 692 72 692 72 692 45 c 1,44,45
 685 16 685 16 681 8 c 128,-1,46
 677 0 677 0 657 0 c 2,47,-1
 86 0 l 2,0,1
EndSplineSet
EndChar

StartChar: J
Encoding: 74 74 45
Width: 1135
GlyphClass: 2
Flags: W
LayerCount: 2
Fore
SplineSet
223 123 m 1,0,1
 243 66 243 66 297 37 c 128,-1,2
 351 8 351 8 414 8 c 0,3,4
 478 8 478 8 537.5 52.5 c 128,-1,5
 597 97 597 97 638.5 164 c 128,-1,6
 680 231 680 231 696 297 c 2,7,-1
 938 1266 l 2,8,9
 940 1274 940 1274 940.5 1278 c 128,-1,10
 941 1282 941 1282 942 1286 c 1,11,12
 942 1308 942 1308 926 1313 c 0,13,14
 872 1327 872 1327 707 1327 c 0,15,16
 686 1327 686 1327 686 1354 c 1,17,18
 690 1370 690 1370 692.5 1379 c 128,-1,19
 695 1388 695 1388 701.5 1393.5 c 128,-1,20
 708 1399 708 1399 721 1399 c 2,21,-1
 1276 1399 l 2,22,23
 1296 1399 1296 1399 1296 1372 c 1,24,25
 1288 1327 1288 1327 1270 1327 c 0,26,27
 1198 1327 1198 1327 1161 1316 c 128,-1,28
 1124 1305 1124 1305 1110 1257 c 1,29,-1
 868 289 l 2,30,31
 845 194 845 194 774.5 117.5 c 128,-1,32
 704 41 704 41 607 -2 c 128,-1,33
 510 -45 510 -45 412 -45 c 0,34,35
 304 -45 304 -45 222.5 15 c 128,-1,36
 141 75 141 75 141 178 c 0,37,38
 141 246 141 246 178 295 c 128,-1,39
 215 344 215 344 283 344 c 0,40,41
 322 344 322 344 348.5 320 c 128,-1,42
 375 296 375 296 375 258 c 0,43,44
 375 203 375 203 334 162 c 128,-1,45
 293 121 293 121 238 121 c 0,46,47
 227 121 227 121 223 123 c 1,0,1
EndSplineSet
EndChar

StartChar: K
Encoding: 75 75 46
Width: 1739
GlyphClass: 2
Flags: W
LayerCount: 2
Fore
SplineSet
96 0 m 2,0,1
 76 0 76 0 76 27 c 1,2,3
 77 32 77 32 80 44.5 c 128,-1,4
 83 57 83 57 88.5 64.5 c 128,-1,5
 94 72 94 72 102 72 c 0,6,7
 227 72 227 72 276 86 c 1,8,9
 303 95 303 95 315 141 c 2,10,-1
 596 1266 l 2,11,12
 600 1286 600 1286 600 1294 c 0,13,14
 600 1316 600 1316 575 1319 c 1,15,16
 537 1327 537 1327 428 1327 c 0,17,18
 408 1327 408 1327 408 1354 c 1,19,20
 415 1380 415 1380 419 1389.5 c 128,-1,21
 423 1399 423 1399 442 1399 c 2,22,-1
 993 1399 l 2,23,24
 1014 1399 1014 1399 1014 1372 c 1,25,26
 1013 1367 1013 1367 1010 1355 c 128,-1,27
 1007 1343 1007 1343 1002 1335 c 128,-1,28
 997 1327 997 1327 987 1327 c 0,29,30
 862 1327 862 1327 813 1313 c 1,31,32
 786 1303 786 1303 774 1257 c 2,33,-1
 608 594 l 1,34,-1
 1411 1214 l 1,35,36
 1413 1218 1413 1218 1436.5 1241.5 c 128,-1,37
 1460 1265 1460 1265 1460 1288 c 0,38,39
 1460 1327 1460 1327 1391 1327 c 0,40,41
 1370 1327 1370 1327 1370 1354 c 1,42,43
 1374 1370 1374 1370 1376.5 1379 c 128,-1,44
 1379 1388 1379 1388 1385.5 1393.5 c 128,-1,45
 1392 1399 1392 1399 1405 1399 c 2,46,-1
 1802 1399 l 2,47,48
 1813 1399 1813 1399 1818 1391 c 128,-1,49
 1823 1383 1823 1383 1823 1372 c 1,50,51
 1822 1367 1822 1367 1818.5 1354 c 128,-1,52
 1815 1341 1815 1341 1809.5 1334 c 128,-1,53
 1804 1327 1804 1327 1794 1327 c 0,54,55
 1644 1327 1644 1327 1466 1188 c 0,56,57
 1465 1187 1465 1187 1463 1186.5 c 128,-1,58
 1461 1186 1461 1186 1459 1185.5 c 128,-1,59
 1457 1185 1457 1185 1456 1184 c 2,60,-1
 1034 856 l 1,61,-1
 1341 137 l 1,62,63
 1369 92 1369 92 1401 82 c 128,-1,64
 1433 72 1433 72 1499 72 c 0,65,66
 1520 72 1520 72 1520 45 c 1,67,68
 1514 21 1514 21 1508 10.5 c 128,-1,69
 1502 0 1502 0 1485 0 c 2,70,-1
 1010 0 l 2,71,72
 991 0 991 0 991 27 c 1,73,74
 994 48 994 48 998 60 c 128,-1,75
 1002 72 1002 72 1018 72 c 0,76,77
 1070 72 1070 72 1106.5 82.5 c 128,-1,78
 1143 93 1143 93 1143 131 c 0,79,80
 1143 145 1143 145 1141 152 c 2,81,-1
 887 743 l 1,82,-1
 588 512 l 1,83,-1
 494 133 l 1,84,85
 489 108 489 108 489 104 c 0,86,87
 489 83 489 83 514 80 c 1,88,89
 553 72 553 72 662 72 c 0,90,91
 682 72 682 72 682 45 c 1,92,93
 675 16 675 16 671 8 c 128,-1,94
 667 0 667 0 647 0 c 2,95,-1
 96 0 l 2,0,1
EndSplineSet
EndChar

StartChar: L
Encoding: 76 76 47
Width: 1393
GlyphClass: 2
Flags: W
LayerCount: 2
Fore
SplineSet
96 0 m 2,0,1
 76 0 76 0 76 27 c 1,2,3
 77 32 77 32 80 44.5 c 128,-1,4
 83 57 83 57 88.5 64.5 c 128,-1,5
 94 72 94 72 102 72 c 0,6,7
 227 72 227 72 276 86 c 1,8,9
 303 95 303 95 315 141 c 2,10,-1
 596 1266 l 2,11,12
 600 1286 600 1286 600 1294 c 0,13,14
 600 1316 600 1316 575 1319 c 1,15,16
 537 1327 537 1327 428 1327 c 0,17,18
 408 1327 408 1327 408 1354 c 1,19,20
 415 1380 415 1380 419 1389.5 c 128,-1,21
 423 1399 423 1399 442 1399 c 2,22,-1
 1047 1399 l 2,23,24
 1065 1399 1065 1399 1065 1372 c 1,25,26
 1062 1351 1062 1351 1058 1339 c 128,-1,27
 1054 1327 1054 1327 1038 1327 c 0,28,29
 887 1327 887 1327 836 1317 c 0,30,31
 786 1308 786 1308 774 1257 c 2,32,-1
 494 133 l 1,33,34
 485 108 485 108 485 88 c 0,35,36
 485 72 485 72 555 72 c 2,37,-1
 745 72 l 2,38,39
 906 72 906 72 1006 136 c 128,-1,40
 1106 200 1106 200 1154 280.5 c 128,-1,41
 1202 361 1202 361 1234.5 447.5 c 128,-1,42
 1267 534 1267 534 1282 537 c 1,43,-1
 1300 537 l 2,44,45
 1321 537 1321 537 1321 510 c 1,46,-1
 1139 14 l 1,47,48
 1136 0 1136 0 1120 0 c 2,49,-1
 96 0 l 2,0,1
EndSplineSet
EndChar

StartChar: M
Encoding: 77 77 48
Width: 1987
GlyphClass: 2
Flags: W
LayerCount: 2
Fore
SplineSet
104 0 m 2,0,1
 84 0 84 0 84 27 c 1,2,3
 85 32 85 32 88 44 c 128,-1,4
 91 56 91 56 96 64 c 128,-1,5
 101 72 101 72 111 72 c 0,6,7
 306 72 306 72 338 197 c 2,8,-1
 604 1266 l 2,9,10
 608 1286 608 1286 608 1294 c 0,11,12
 608 1316 608 1316 584 1319 c 1,13,14
 545 1327 545 1327 436 1327 c 0,15,16
 416 1327 416 1327 416 1354 c 1,17,18
 417 1359 417 1359 420 1371.5 c 128,-1,19
 423 1384 423 1384 428.5 1391.5 c 128,-1,20
 434 1399 434 1399 442 1399 c 2,21,-1
 803 1399 l 2,22,23
 826 1399 826 1399 829 1376 c 2,24,-1
 989 203 l 1,25,-1
 1735 1376 l 2,26,27
 1749 1399 1749 1399 1774 1399 c 2,28,-1
 2122 1399 l 2,29,30
 2142 1399 2142 1399 2142 1372 c 1,31,32
 2141 1367 2141 1367 2138 1354.5 c 128,-1,33
 2135 1342 2135 1342 2129.5 1334.5 c 128,-1,34
 2124 1327 2124 1327 2116 1327 c 0,35,36
 1991 1327 1991 1327 1942 1313 c 1,37,38
 1915 1304 1915 1304 1903 1257 c 2,39,-1
 1622 133 l 2,40,41
 1618 113 1618 113 1618 104 c 0,42,43
 1618 96 1618 96 1620.5 90.5 c 128,-1,44
 1623 85 1623 85 1627.5 83.5 c 128,-1,45
 1632 82 1632 82 1642 80 c 0,46,47
 1681 72 1681 72 1790 72 c 0,48,49
 1810 72 1810 72 1810 45 c 1,50,51
 1803 16 1803 16 1799 8 c 128,-1,52
 1795 0 1795 0 1776 0 c 2,53,-1
 1241 0 l 2,54,55
 1221 0 1221 0 1221 27 c 1,56,57
 1222 32 1222 32 1225 44.5 c 128,-1,58
 1228 57 1228 57 1233.5 64.5 c 128,-1,59
 1239 72 1239 72 1247 72 c 0,60,61
 1372 72 1372 72 1421 86 c 1,62,63
 1448 95 1448 95 1460 141 c 2,64,-1
 1755 1327 l 1,65,-1
 928 23 l 1,66,67
 916 0 916 0 887 0 c 0,68,69
 861 0 861 0 858 23 c 2,70,-1
 684 1311 l 1,71,-1
 403 188 l 2,72,73
 401 183 401 183 400 175.5 c 128,-1,74
 399 168 399 168 397 158 c 1,75,76
 397 105 397 105 443.5 88.5 c 128,-1,77
 490 72 490 72 557 72 c 0,78,79
 578 72 578 72 578 45 c 1,80,81
 571 18 571 18 566.5 9 c 128,-1,82
 562 0 562 0 543 0 c 2,83,-1
 104 0 l 2,0,1
EndSplineSet
EndChar

StartChar: N
Encoding: 78 78 49
Width: 1645
GlyphClass: 2
Flags: W
LayerCount: 2
Fore
SplineSet
96 0 m 2,0,1
 76 0 76 0 76 27 c 1,2,3
 77 32 77 32 80 44.5 c 128,-1,4
 83 57 83 57 88.5 64.5 c 128,-1,5
 94 72 94 72 102 72 c 0,6,7
 298 72 298 72 330 197 c 2,8,-1
 608 1317 l 1,9,10
 551 1327 551 1327 428 1327 c 0,11,12
 408 1327 408 1327 408 1354 c 1,13,14
 409 1359 409 1359 412 1371.5 c 128,-1,15
 415 1384 415 1384 420.5 1391.5 c 128,-1,16
 426 1399 426 1399 434 1399 c 2,17,-1
 788 1399 l 2,18,19
 803 1399 803 1399 807 1386 c 1,20,-1
 1262 303 l 1,21,-1
 1489 1210 l 1,22,23
 1493 1232 1493 1232 1493 1241 c 0,24,25
 1493 1327 1493 1327 1335 1327 c 0,26,27
 1315 1327 1315 1327 1315 1354 c 1,28,29
 1322 1380 1322 1380 1326 1389.5 c 128,-1,30
 1330 1399 1330 1399 1350 1399 c 2,31,-1
 1788 1399 l 2,32,33
 1808 1399 1808 1399 1808 1372 c 1,34,35
 1807 1367 1807 1367 1804 1354.5 c 128,-1,36
 1801 1342 1801 1342 1795.5 1334.5 c 128,-1,37
 1790 1327 1790 1327 1782 1327 c 0,38,39
 1586 1327 1586 1327 1554 1202 c 2,40,-1
 1260 18 l 1,41,42
 1253 0 1253 0 1239 0 c 2,43,-1
 1214 0 l 2,44,45
 1200 0 1200 0 1196 14 c 1,46,-1
 674 1253 l 1,47,-1
 670 1266 l 1,48,49
 666 1270 666 1270 666 1272 c 2,50,-1
 395 188 l 2,51,52
 393 183 393 183 392 175.5 c 128,-1,53
 391 168 391 168 389 158 c 1,54,55
 389 105 389 105 435 88.5 c 128,-1,56
 481 72 481 72 549 72 c 0,57,58
 569 72 569 72 569 45 c 1,59,60
 562 17 562 17 557 8.5 c 128,-1,61
 552 0 552 0 535 0 c 2,62,-1
 96 0 l 2,0,1
EndSplineSet
EndChar

StartChar: O
Encoding: 79 79 50
Width: 1561
GlyphClass: 2
Flags: W
LayerCount: 2
Fore
SplineSet
623 -45 m 0,0,1
 469 -45 469 -45 350 25.5 c 128,-1,2
 231 96 231 96 166.5 221.5 c 128,-1,3
 102 347 102 347 102 500 c 0,4,5
 102 723 102 723 228.5 944 c 128,-1,6
 355 1165 355 1165 562 1304.5 c 128,-1,7
 769 1444 769 1444 995 1444 c 0,8,9
 1112 1444 1112 1444 1209 1402 c 128,-1,10
 1306 1360 1306 1360 1373 1285.5 c 128,-1,11
 1440 1211 1440 1211 1476.5 1111 c 128,-1,12
 1513 1011 1513 1011 1513 893 c 0,13,14
 1513 724 1513 724 1441 556.5 c 128,-1,15
 1369 389 1369 389 1241.5 251.5 c 128,-1,16
 1114 114 1114 114 955 34.5 c 128,-1,17
 796 -45 796 -45 623 -45 c 0,0,1
639 16 m 0,18,19
 788 16 788 16 917 110.5 c 128,-1,20
 1046 205 1046 205 1137 354.5 c 128,-1,21
 1228 504 1228 504 1276.5 668.5 c 128,-1,22
 1325 833 1325 833 1325 975 c 0,23,24
 1325 1086 1325 1086 1287 1178.5 c 128,-1,25
 1249 1271 1249 1271 1170 1327.5 c 128,-1,26
 1091 1384 1091 1384 981 1384 c 0,27,28
 873 1384 873 1384 771 1332 c 128,-1,29
 669 1280 669 1280 586 1194 c 0,30,31
 501 1107 501 1107 435 978.5 c 128,-1,32
 369 850 369 850 335 708.5 c 128,-1,33
 301 567 301 567 301 442 c 0,34,35
 301 268 301 268 386.5 142 c 128,-1,36
 472 16 472 16 639 16 c 0,18,19
EndSplineSet
EndChar

StartChar: P
Encoding: 80 80 51
Width: 1315
GlyphClass: 2
Flags: W
LayerCount: 2
Fore
SplineSet
100 0 m 2,0,1
 80 0 80 0 80 27 c 1,2,3
 81 32 81 32 84 44.5 c 128,-1,4
 87 57 87 57 92.5 64.5 c 128,-1,5
 98 72 98 72 106 72 c 0,6,7
 231 72 231 72 281 86 c 1,8,9
 307 95 307 95 319 141 c 2,10,-1
 600 1266 l 2,11,12
 604 1286 604 1286 604 1294 c 0,13,14
 604 1316 604 1316 580 1319 c 1,15,16
 541 1327 541 1327 432 1327 c 0,17,18
 412 1327 412 1327 412 1354 c 1,19,20
 413 1359 413 1359 416 1371.5 c 128,-1,21
 419 1384 419 1384 424.5 1391.5 c 128,-1,22
 430 1399 430 1399 438 1399 c 2,23,-1
 1145 1399 l 2,24,25
 1242 1399 1242 1399 1333 1364.5 c 128,-1,26
 1424 1330 1424 1330 1482 1259 c 128,-1,27
 1540 1188 1540 1188 1540 1087 c 0,28,29
 1540 957 1540 957 1448.5 855 c 128,-1,30
 1357 753 1357 753 1220.5 696 c 128,-1,31
 1084 639 1084 639 956 639 c 2,32,-1
 623 639 l 1,33,-1
 498 133 l 2,34,35
 494 113 494 113 494 104 c 0,36,37
 494 96 494 96 496.5 90.5 c 128,-1,38
 499 85 499 85 503.5 83.5 c 128,-1,39
 508 82 508 82 518 80 c 0,40,41
 557 72 557 72 666 72 c 0,42,43
 686 72 686 72 686 45 c 1,44,45
 679 16 679 16 675 8 c 128,-1,46
 671 0 671 0 651 0 c 2,47,-1
 100 0 l 2,0,1
633 700 m 1,48,-1
 920 700 l 2,49,50
 1119 700 1119 700 1223 807 c 1,51,52
 1276 860 1276 860 1309.5 960 c 128,-1,53
 1343 1060 1343 1060 1343 1141 c 0,54,55
 1343 1242 1343 1242 1266 1284.5 c 128,-1,56
 1189 1327 1189 1327 1075 1327 c 2,57,-1
 879 1327 l 2,58,59
 823 1327 823 1327 805 1317.5 c 128,-1,60
 787 1308 787 1308 772 1257 c 1,61,-1
 633 700 l 1,48,-1
EndSplineSet
EndChar

StartChar: Q
Encoding: 81 81 52
Width: 1618
GlyphClass: 2
Flags: W
LayerCount: 2
Fore
SplineSet
623 -45 m 0,0,1
 469 -45 469 -45 350 25.5 c 128,-1,2
 231 96 231 96 166.5 221.5 c 128,-1,3
 102 347 102 347 102 500 c 0,4,5
 102 723 102 723 228.5 944 c 128,-1,6
 355 1165 355 1165 562 1304.5 c 128,-1,7
 769 1444 769 1444 995 1444 c 0,8,9
 1112 1444 1112 1444 1209 1402 c 128,-1,10
 1306 1360 1306 1360 1373 1285.5 c 128,-1,11
 1440 1211 1440 1211 1476.5 1111 c 128,-1,12
 1513 1011 1513 1011 1513 893 c 0,13,14
 1513 757 1513 757 1466 619.5 c 128,-1,15
 1419 482 1419 482 1335 363.5 c 128,-1,16
 1251 245 1251 245 1139 155 c 128,-1,17
 1027 65 1027 65 899 12 c 1,18,19
 912 -82 912 -82 939 -136 c 128,-1,20
 966 -190 966 -190 1042 -190 c 0,21,22
 1122 -190 1122 -190 1192.5 -132 c 128,-1,23
 1263 -74 1263 -74 1282 4 c 0,24,25
 1286 23 1286 23 1305 23 c 0,26,27
 1327 23 1327 23 1327 -4 c 1,28,29
 1312 -70 1312 -70 1282.5 -137.5 c 128,-1,30
 1253 -205 1253 -205 1211.5 -263.5 c 128,-1,31
 1170 -322 1170 -322 1113 -359.5 c 128,-1,32
 1056 -397 1056 -397 987 -397 c 0,33,34
 815 -397 815 -397 815 -176 c 0,35,36
 815 -163 815 -163 820 -106.5 c 128,-1,37
 825 -50 825 -50 825 -14 c 1,38,39
 726 -45 726 -45 623 -45 c 0,0,1
547 96 m 0,40,41
 547 14 547 14 637 14 c 0,42,43
 728 14 728 14 829 59 c 1,44,-1
 829 78 l 2,45,46
 829 161 829 161 803 207.5 c 128,-1,47
 777 254 777 254 702 254 c 0,48,49
 665 254 665 254 628.5 231.5 c 128,-1,50
 592 209 592 209 569.5 172.5 c 128,-1,51
 547 136 547 136 547 96 c 0,40,41
494 92 m 0,52,53
 494 146 494 146 524 196 c 128,-1,54
 554 246 554 246 602 276.5 c 128,-1,55
 650 307 650 307 705 307 c 0,56,57
 794 307 794 307 834.5 247 c 128,-1,58
 875 187 875 187 889 90 c 1,59,60
 1020 168 1020 168 1120 313 c 128,-1,61
 1220 458 1220 458 1272.5 631.5 c 128,-1,62
 1325 805 1325 805 1325 961 c 0,63,64
 1325 1074 1325 1074 1287.5 1170 c 128,-1,65
 1250 1266 1250 1266 1172.5 1325 c 128,-1,66
 1095 1384 1095 1384 981 1384 c 0,67,68
 871 1384 871 1384 769 1330 c 128,-1,69
 667 1276 667 1276 580 1186 c 0,70,71
 496 1099 496 1099 429.5 970.5 c 128,-1,72
 363 842 363 842 327 702 c 128,-1,73
 291 562 291 562 291 434 c 0,74,75
 291 303 291 303 342 196 c 128,-1,76
 393 89 393 89 502 41 c 1,77,78
 494 62 494 62 494 92 c 0,52,53
EndSplineSet
EndChar

StartChar: R
Encoding: 82 82 53
Width: 1554
GlyphClass: 2
Flags: W
LayerCount: 2
Fore
SplineSet
100 0 m 2,0,1
 80 0 80 0 80 27 c 1,2,3
 81 32 81 32 84 44.5 c 128,-1,4
 87 57 87 57 92.5 64.5 c 128,-1,5
 98 72 98 72 106 72 c 0,6,7
 231 72 231 72 281 86 c 1,8,9
 307 95 307 95 319 141 c 2,10,-1
 600 1266 l 2,11,12
 604 1286 604 1286 604 1294 c 0,13,14
 604 1316 604 1316 580 1319 c 1,15,16
 541 1327 541 1327 432 1327 c 0,17,18
 412 1327 412 1327 412 1354 c 1,19,20
 413 1359 413 1359 416 1371.5 c 128,-1,21
 419 1384 419 1384 424.5 1391.5 c 128,-1,22
 430 1399 430 1399 438 1399 c 2,23,-1
 1059 1399 l 2,24,25
 1133 1399 1133 1399 1213 1382 c 128,-1,26
 1293 1365 1293 1365 1360 1328.5 c 128,-1,27
 1427 1292 1427 1292 1470 1231.5 c 128,-1,28
 1513 1171 1513 1171 1513 1090 c 0,29,30
 1513 987 1513 987 1445 906 c 128,-1,31
 1377 825 1377 825 1273 770.5 c 128,-1,32
 1169 716 1169 716 1071 694 c 1,33,34
 1151 665 1151 665 1202 601.5 c 128,-1,35
 1253 538 1253 538 1253 455 c 0,36,37
 1253 444 1253 444 1252.5 438.5 c 128,-1,38
 1252 433 1252 433 1251 426 c 2,39,-1
 1235 244 l 1,40,41
 1233 204 1233 204 1231 176 c 128,-1,42
 1229 148 1229 148 1229 131 c 0,43,44
 1229 75 1229 75 1245.5 41.5 c 128,-1,45
 1262 8 1262 8 1311 8 c 0,46,47
 1375 8 1375 8 1423.5 67.5 c 128,-1,48
 1472 127 1472 127 1487 197 c 1,49,50
 1496 215 1496 215 1507 215 c 2,51,-1
 1526 215 l 2,52,53
 1546 215 1546 215 1546 188 c 1,54,55
 1531 129 1531 129 1498.5 76 c 128,-1,56
 1466 23 1466 23 1416.5 -11 c 128,-1,57
 1367 -45 1367 -45 1309 -45 c 0,58,59
 1189 -45 1189 -45 1104.5 8.5 c 128,-1,60
 1020 62 1020 62 1020 176 c 0,61,62
 1020 219 1020 219 1028 252 c 2,63,-1
 1073 434 l 1,64,65
 1081 459 1081 459 1081 492 c 0,66,67
 1081 577 1081 577 1023.5 625.5 c 128,-1,68
 966 674 966 674 879 674 c 2,69,-1
 627 674 l 1,70,-1
 492 133 l 2,71,72
 487 116 487 116 487 104 c 0,73,74
 487 83 487 83 512 80 c 1,75,76
 551 72 551 72 659 72 c 0,77,78
 680 72 680 72 680 45 c 1,79,80
 673 16 673 16 669 8 c 128,-1,81
 665 0 665 0 645 0 c 2,82,-1
 100 0 l 2,0,1
639 727 m 1,83,-1
 866 727 l 2,84,85
 1089 727 1089 727 1202 840 c 0,86,87
 1254 892 1254 892 1284.5 972.5 c 128,-1,88
 1315 1053 1315 1053 1315 1133 c 0,89,90
 1315 1209 1315 1209 1270.5 1252 c 128,-1,91
 1226 1295 1226 1295 1160.5 1311 c 128,-1,92
 1095 1327 1095 1327 1016 1327 c 2,93,-1
 879 1327 l 2,94,95
 823 1327 823 1327 805 1317.5 c 128,-1,96
 787 1308 787 1308 772 1257 c 1,97,-1
 639 727 l 1,83,-1
EndSplineSet
EndChar

StartChar: S
Encoding: 83 83 54
Width: 1255
GlyphClass: 2
Flags: W
LayerCount: 2
Fore
SplineSet
125 -45 m 2,0,1
 119 -45 119 -45 114 -38 c 128,-1,2
 109 -31 109 -31 109 -25 c 1,3,-1
 227 453 l 1,4,5
 231 465 231 465 244 465 c 2,6,-1
 268 465 l 2,7,8
 276 465 276 465 280.5 459 c 128,-1,9
 285 453 285 453 285 444 c 1,10,11
 268 374 268 374 268 319 c 0,12,13
 268 171 268 171 370 99 c 128,-1,14
 472 27 472 27 627 27 c 0,15,16
 694 27 694 27 759 60 c 128,-1,17
 824 93 824 93 872.5 146 c 128,-1,18
 921 199 921 199 950 264.5 c 128,-1,19
 979 330 979 330 979 397 c 0,20,21
 979 469 979 469 941 525.5 c 128,-1,22
 903 582 903 582 836 598 c 1,23,-1
 586 664 l 2,24,25
 485 691 485 691 425 772.5 c 128,-1,26
 365 854 365 854 365 956 c 0,27,28
 365 1079 365 1079 438 1193 c 128,-1,29
 511 1307 511 1307 628.5 1375.5 c 128,-1,30
 746 1444 746 1444 868 1444 c 0,31,32
 962 1444 962 1444 1040.5 1409.5 c 128,-1,33
 1119 1375 1119 1375 1161 1300 c 1,34,-1
 1278 1438 l 1,35,36
 1290 1444 1290 1444 1292 1444 c 2,37,-1
 1305 1444 l 2,38,39
 1313 1444 1313 1444 1318 1437 c 128,-1,40
 1323 1430 1323 1430 1323 1423 c 1,41,-1
 1204 948 l 2,42,43
 1201 934 1201 934 1188 934 c 2,44,-1
 1163 934 l 2,45,46
 1145 934 1145 934 1145 956 c 1,47,48
 1155 1021 1155 1021 1155 1069 c 0,49,50
 1155 1164 1155 1164 1122.5 1234.5 c 128,-1,51
 1090 1305 1090 1305 1024.5 1341.5 c 128,-1,52
 959 1378 959 1378 862 1378 c 0,53,54
 780 1378 780 1378 699 1331 c 128,-1,55
 618 1284 618 1284 568 1206 c 128,-1,56
 518 1128 518 1128 518 1044 c 0,57,58
 518 978 518 978 556.5 927 c 128,-1,59
 595 876 595 876 659 858 c 1,60,-1
 909 793 l 2,61,62
 977 775 977 775 1027.5 729.5 c 128,-1,63
 1078 684 1078 684 1104 621.5 c 128,-1,64
 1130 559 1130 559 1130 485 c 0,65,66
 1130 388 1130 388 1089 293.5 c 128,-1,67
 1048 199 1048 199 974.5 121 c 128,-1,68
 901 43 901 43 808 -1 c 128,-1,69
 715 -45 715 -45 618 -45 c 0,70,71
 374 -45 374 -45 268 98 c 1,72,-1
 154 -39 l 1,73,74
 142 -45 142 -45 139 -45 c 2,75,-1
 125 -45 l 2,0,1
EndSplineSet
EndChar

StartChar: T
Encoding: 84 84 55
Width: 1196
GlyphClass: 2
Flags: W
LayerCount: 2
Fore
SplineSet
94 27 m 1,0,1
 95 32 95 32 98.5 45 c 128,-1,2
 102 58 102 58 107.5 65 c 128,-1,3
 113 72 113 72 123 72 c 0,4,5
 299 72 299 72 356 82 c 1,6,7
 411 96 411 96 422 141 c 2,8,-1
 702 1266 l 1,9,10
 711 1291 711 1291 711 1311 c 0,11,12
 711 1327 711 1327 639 1327 c 2,13,-1
 520 1327 l 2,14,15
 383 1327 383 1327 308.5 1285 c 128,-1,16
 234 1243 234 1243 199 1174 c 128,-1,17
 164 1105 164 1105 109 948 c 0,18,19
 102 930 102 930 88 930 c 2,20,-1
 70 930 l 2,21,22
 49 930 49 930 49 956 c 1,23,-1
 195 1380 l 1,24,25
 199 1399 199 1399 215 1399 c 2,26,-1
 1425 1399 l 2,27,28
 1446 1399 1446 1399 1446 1372 c 1,29,-1
 1378 948 l 2,30,31
 1378 942 1378 942 1371 936 c 128,-1,32
 1364 930 1364 930 1358 930 c 2,33,-1
 1339 930 l 2,34,35
 1319 930 1319 930 1319 956 c 1,36,37
 1341 1101 1341 1101 1341 1161 c 0,38,39
 1341 1233 1341 1233 1311 1270 c 128,-1,40
 1281 1307 1281 1307 1233 1317 c 128,-1,41
 1185 1327 1185 1327 1108 1327 c 2,42,-1
 987 1327 l 2,43,44
 932 1327 932 1327 913 1317 c 128,-1,45
 894 1307 894 1307 881 1257 c 2,46,-1
 600 133 l 2,47,48
 599 129 599 129 598.5 125 c 128,-1,49
 598 121 598 121 596 115 c 1,50,51
 596 89 596 89 627 82 c 1,52,53
 680 72 680 72 854 72 c 0,54,55
 874 72 874 72 874 45 c 1,56,57
 867 16 867 16 863 8 c 128,-1,58
 859 0 859 0 840 0 c 2,59,-1
 115 0 l 2,60,61
 94 0 94 0 94 27 c 1,0,1
EndSplineSet
EndChar

StartChar: U
Encoding: 85 85 56
Width: 1397
GlyphClass: 2
Flags: W
LayerCount: 2
Fore
SplineSet
301 285 m 0,0,1
 301 210 301 210 330.5 151 c 128,-1,2
 360 92 360 92 416 59.5 c 128,-1,3
 472 27 472 27 547 27 c 0,4,5
 635 27 635 27 718.5 63 c 128,-1,6
 802 99 802 99 869 163 c 128,-1,7
 936 227 936 227 983.5 309 c 128,-1,8
 1031 391 1031 391 1051 471 c 2,9,-1
 1235 1210 l 1,10,11
 1239 1232 1239 1232 1239 1241 c 0,12,13
 1239 1327 1239 1327 1081 1327 c 0,14,15
 1061 1327 1061 1327 1061 1354 c 1,16,17
 1068 1380 1068 1380 1072 1389.5 c 128,-1,18
 1076 1399 1076 1399 1096 1399 c 2,19,-1
 1540 1399 l 2,20,21
 1549 1399 1549 1399 1555 1390 c 128,-1,22
 1561 1381 1561 1381 1561 1372 c 0,23,24
 1561 1371 1561 1371 1557 1356.5 c 128,-1,25
 1553 1342 1553 1342 1547.5 1334.5 c 128,-1,26
 1542 1327 1542 1327 1534 1327 c 0,27,28
 1338 1327 1338 1327 1307 1202 c 2,29,-1
 1122 463 l 1,30,31
 1099 367 1099 367 1044.5 276.5 c 128,-1,32
 990 186 990 186 910.5 112.5 c 128,-1,33
 831 39 831 39 735.5 -3 c 128,-1,34
 640 -45 640 -45 541 -45 c 0,35,36
 428 -45 428 -45 334.5 4.5 c 128,-1,37
 241 54 241 54 188 143 c 128,-1,38
 135 232 135 232 135 348 c 0,39,40
 135 415 135 415 150 471 c 1,41,-1
 348 1266 l 2,42,43
 352 1286 352 1286 352 1294 c 0,44,45
 352 1316 352 1316 328 1319 c 1,46,47
 289 1327 289 1327 180 1327 c 0,48,49
 160 1327 160 1327 160 1354 c 1,50,51
 167 1380 167 1380 171 1389.5 c 128,-1,52
 175 1399 175 1399 195 1399 c 2,53,-1
 745 1399 l 2,54,55
 766 1399 766 1399 766 1372 c 1,56,57
 765 1367 765 1367 762 1355 c 128,-1,58
 759 1343 759 1343 754 1335 c 128,-1,59
 749 1327 749 1327 739 1327 c 0,60,61
 614 1327 614 1327 565 1313 c 1,62,63
 538 1303 538 1303 526 1257 c 2,64,-1
 328 463 l 2,65,66
 301 355 301 355 301 285 c 0,0,1
EndSplineSet
EndChar

StartChar: V
Encoding: 86 86 57
Width: 1194
GlyphClass: 2
Flags: W
LayerCount: 2
Fore
SplineSet
451 -23 m 2,0,-1
 287 1282 l 1,1,2
 272 1327 272 1327 133 1327 c 0,3,4
 113 1327 113 1327 113 1354 c 1,5,6
 117 1376 117 1376 123 1387.5 c 128,-1,7
 129 1399 129 1399 147 1399 c 2,8,-1
 647 1399 l 2,9,10
 658 1399 658 1399 663 1391 c 128,-1,11
 668 1383 668 1383 668 1372 c 1,12,13
 660 1327 660 1327 641 1327 c 0,14,15
 481 1327 481 1327 471 1272 c 1,16,-1
 606 201 l 1,17,-1
 1237 1208 l 1,18,19
 1255 1242 1255 1242 1255 1262 c 0,20,21
 1255 1298 1255 1298 1222.5 1312.5 c 128,-1,22
 1190 1327 1190 1327 1147 1327 c 0,23,24
 1126 1327 1126 1327 1126 1354 c 1,25,26
 1130 1370 1130 1370 1133 1379 c 128,-1,27
 1136 1388 1136 1388 1142 1393.5 c 128,-1,28
 1148 1399 1148 1399 1161 1399 c 2,29,-1
 1556 1399 l 2,30,31
 1575 1399 1575 1399 1575 1372 c 1,32,33
 1567 1327 1567 1327 1548 1327 c 0,34,35
 1394 1327 1394 1327 1307 1192 c 1,36,37
 1303 1188 1303 1188 1300 1188 c 1,38,-1
 545 -23 l 1,39,40
 530 -45 530 -45 506 -45 c 2,41,-1
 477 -45 l 2,42,43
 454 -45 454 -45 451 -23 c 2,0,-1
EndSplineSet
EndChar

StartChar: W
Encoding: 87 87 58
Width: 1933
GlyphClass: 2
Flags: W
LayerCount: 2
Fore
SplineSet
365 -23 m 1,0,-1
 270 1282 l 1,1,2
 263 1312 263 1312 225 1319.5 c 128,-1,3
 187 1327 187 1327 131 1327 c 0,4,5
 111 1327 111 1327 111 1354 c 1,6,7
 118 1380 118 1380 122 1389.5 c 128,-1,8
 126 1399 126 1399 145 1399 c 2,9,-1
 633 1399 l 2,10,11
 653 1399 653 1399 653 1372 c 1,12,13
 645 1327 645 1327 627 1327 c 0,14,15
 463 1327 463 1327 453 1270 c 1,16,-1
 526 236 l 1,17,-1
 1038 1128 l 1,18,-1
 1028 1282 l 1,19,20
 1021 1312 1021 1312 983 1319.5 c 128,-1,21
 945 1327 945 1327 889 1327 c 0,22,23
 868 1327 868 1327 868 1354 c 1,24,25
 875 1380 875 1380 879 1389.5 c 128,-1,26
 883 1399 883 1399 903 1399 c 2,27,-1
 1391 1399 l 2,28,29
 1411 1399 1411 1399 1411 1372 c 1,30,31
 1410 1367 1410 1367 1407 1355 c 128,-1,32
 1404 1343 1404 1343 1399 1335 c 128,-1,33
 1394 1327 1394 1327 1384 1327 c 0,34,35
 1219 1327 1219 1327 1210 1270 c 1,36,-1
 1210 1255 l 1,37,-1
 1284 236 l 1,38,-1
 1841 1208 l 2,39,40
 1853 1230 1853 1230 1853 1251 c 0,41,42
 1853 1293 1853 1293 1812 1310 c 128,-1,43
 1771 1327 1771 1327 1720 1327 c 0,44,45
 1700 1327 1700 1327 1700 1354 c 1,46,47
 1704 1370 1704 1370 1706.5 1379 c 128,-1,48
 1709 1388 1709 1388 1715.5 1393.5 c 128,-1,49
 1722 1399 1722 1399 1735 1399 c 2,50,-1
 2126 1399 l 2,51,52
 2146 1399 2146 1399 2146 1372 c 1,53,54
 2145 1367 2145 1367 2142 1354.5 c 128,-1,55
 2139 1342 2139 1342 2133.5 1334.5 c 128,-1,56
 2128 1327 2128 1327 2120 1327 c 0,57,58
 1974 1327 1974 1327 1898 1194 c 1,59,60
 1892 1188 1892 1188 1892 1188 c 1,61,-1
 1198 -23 l 1,62,63
 1187 -45 1187 -45 1163 -45 c 2,64,-1
 1147 -45 l 2,65,66
 1122 -45 1122 -45 1122 -23 c 1,67,-1
 1044 1032 l 1,68,-1
 442 -23 l 1,69,70
 427 -45 427 -45 406 -45 c 2,71,-1
 389 -45 l 2,72,73
 365 -45 365 -45 365 -23 c 1,0,-1
EndSplineSet
EndChar

StartChar: X
Encoding: 88 88 59
Width: 1696
GlyphClass: 2
Flags: W
LayerCount: 2
Fore
SplineSet
74 0 m 2,0,1
 53 0 53 0 53 27 c 1,2,3
 54 32 54 32 57.5 45 c 128,-1,4
 61 58 61 58 66.5 65 c 128,-1,5
 72 72 72 72 82 72 c 0,6,7
 268 72 268 72 401 211 c 0,8,9
 403 213 403 213 405.5 214 c 128,-1,10
 408 215 408 215 408 215 c 1,11,-1
 856 698 l 1,12,-1
 612 1286 l 1,13,14
 591 1313 591 1313 544 1320 c 128,-1,15
 497 1327 497 1327 434 1327 c 0,16,17
 414 1327 414 1327 414 1354 c 1,18,19
 421 1380 421 1380 425 1389.5 c 128,-1,20
 429 1399 429 1399 449 1399 c 2,21,-1
 961 1399 l 2,22,23
 981 1399 981 1399 981 1372 c 1,24,25
 980 1367 980 1367 976.5 1354 c 128,-1,26
 973 1341 973 1341 967.5 1334 c 128,-1,27
 962 1327 962 1327 952 1327 c 0,28,29
 914 1327 914 1327 873.5 1314.5 c 128,-1,30
 833 1302 833 1302 817 1274 c 1,31,-1
 993 850 l 1,32,-1
 1329 1210 l 1,33,34
 1332 1217 1332 1217 1343 1234.5 c 128,-1,35
 1354 1252 1354 1252 1354 1268 c 0,36,37
 1354 1298 1354 1298 1328 1312.5 c 128,-1,38
 1302 1327 1302 1327 1266 1327 c 0,39,40
 1245 1327 1245 1327 1245 1354 c 1,41,42
 1252 1380 1252 1380 1256 1389.5 c 128,-1,43
 1260 1399 1260 1399 1280 1399 c 2,44,-1
 1724 1399 l 2,45,46
 1735 1399 1735 1399 1740 1391 c 128,-1,47
 1745 1383 1745 1383 1745 1372 c 1,48,49
 1744 1367 1744 1367 1741 1355 c 128,-1,50
 1738 1343 1738 1343 1733 1335 c 128,-1,51
 1728 1327 1728 1327 1718 1327 c 0,52,53
 1623 1327 1623 1327 1543.5 1292.5 c 128,-1,54
 1464 1258 1464 1258 1397 1188 c 0,55,56
 1396 1187 1396 1187 1394.5 1186.5 c 128,-1,57
 1393 1186 1393 1186 1391 1184 c 2,58,-1
 1020 784 l 1,59,-1
 1300 113 l 1,60,61
 1333 72 1333 72 1479 72 c 0,62,63
 1499 72 1499 72 1499 45 c 1,64,65
 1492 18 1492 18 1487.5 9 c 128,-1,66
 1483 0 1483 0 1464 0 c 2,67,-1
 952 0 l 2,68,69
 932 0 932 0 932 27 c 1,70,71
 933 32 933 32 936 44.5 c 128,-1,72
 939 57 939 57 944.5 64.5 c 128,-1,73
 950 72 950 72 958 72 c 0,74,75
 998 72 998 72 1039 84.5 c 128,-1,76
 1080 97 1080 97 1096 125 c 1,77,-1
 883 635 l 1,78,-1
 469 188 l 1,79,80
 466 181 466 181 455 164 c 128,-1,81
 444 147 444 147 444 131 c 0,82,83
 444 101 444 101 472 86.5 c 128,-1,84
 500 72 500 72 532 72 c 0,85,86
 553 72 553 72 553 45 c 1,87,88
 546 16 546 16 542 8 c 128,-1,89
 538 0 538 0 518 0 c 2,90,-1
 74 0 l 2,0,1
EndSplineSet
EndChar

StartChar: Y
Encoding: 89 89 60
Width: 1188
GlyphClass: 2
Flags: W
LayerCount: 2
Fore
SplineSet
182 27 m 1,0,1
 183 32 183 32 186 44 c 128,-1,2
 189 56 189 56 194 64 c 128,-1,3
 199 72 199 72 209 72 c 0,4,5
 334 72 334 72 383 86 c 0,6,7
 393 89 393 89 401.5 100 c 128,-1,8
 410 111 410 111 415 123 c 128,-1,9
 420 135 420 135 424 147 c 2,10,-1
 526 559 l 1,11,-1
 262 1286 l 1,12,13
 244 1313 244 1313 197 1320 c 128,-1,14
 150 1327 150 1327 88 1327 c 0,15,16
 68 1327 68 1327 68 1354 c 1,17,18
 74 1379 74 1379 79 1389 c 128,-1,19
 84 1399 84 1399 102 1399 c 2,20,-1
 618 1399 l 2,21,22
 637 1399 637 1399 637 1372 c 1,23,24
 629 1327 629 1327 610 1327 c 0,25,26
 465 1327 465 1327 465 1282 c 1,27,-1
 696 651 l 1,28,-1
 1180 1210 l 1,29,30
 1184 1220 1184 1220 1194 1234.5 c 128,-1,31
 1204 1249 1204 1249 1209 1259 c 128,-1,32
 1214 1269 1214 1269 1214 1282 c 0,33,34
 1214 1327 1214 1327 1130 1327 c 0,35,36
 1110 1327 1110 1327 1110 1354 c 1,37,38
 1114 1370 1114 1370 1116.5 1379 c 128,-1,39
 1119 1388 1119 1388 1125.5 1393.5 c 128,-1,40
 1132 1399 1132 1399 1145 1399 c 2,41,-1
 1542 1399 l 2,42,43
 1551 1399 1551 1399 1557 1390 c 128,-1,44
 1563 1381 1563 1381 1563 1372 c 1,45,46
 1559 1357 1559 1357 1557 1350.5 c 128,-1,47
 1555 1344 1555 1344 1550 1335.5 c 128,-1,48
 1545 1327 1545 1327 1534 1327 c 0,49,50
 1452 1327 1452 1327 1379 1291.5 c 128,-1,51
 1306 1256 1306 1256 1251 1192 c 0,52,53
 1249 1190 1249 1190 1246.5 1188.5 c 128,-1,54
 1244 1187 1244 1187 1241 1184 c 2,55,-1
 700 559 l 1,56,-1
 594 135 l 1,57,58
 594 130 594 130 592 120 c 128,-1,59
 590 110 590 110 590 104 c 0,60,61
 590 96 590 96 592.5 90.5 c 128,-1,62
 595 85 595 85 599.5 83.5 c 128,-1,63
 604 82 604 82 614 80 c 0,64,65
 653 72 653 72 762 72 c 0,66,67
 782 72 782 72 782 45 c 1,68,69
 775 16 775 16 771 8 c 128,-1,70
 767 0 767 0 748 0 c 2,71,-1
 203 0 l 2,72,73
 182 0 182 0 182 27 c 1,0,1
EndSplineSet
EndChar

StartChar: Z
Encoding: 90 90 61
Width: 1397
GlyphClass: 2
Flags: W
LayerCount: 2
Fore
SplineSet
119 16 m 0,0,1
 119 46 119 46 133 63 c 2,2,-1
 1260 1327 l 1,3,-1
 958 1327 l 2,4,5
 808 1327 808 1327 709.5 1291.5 c 128,-1,6
 611 1256 611 1256 546.5 1173.5 c 128,-1,7
 482 1091 482 1091 438 948 c 1,8,9
 434 930 434 930 418 930 c 2,10,-1
 399 930 l 2,11,12
 379 930 379 930 379 956 c 1,13,-1
 508 1380 l 1,14,15
 512 1399 512 1399 528 1399 c 2,16,-1
 1462 1399 l 2,17,18
 1479 1399 1479 1399 1479 1382 c 0,19,20
 1479 1352 1479 1352 1466 1339 c 1,21,-1
 344 78 l 1,22,-1
 655 78 l 2,23,24
 836 78 836 78 939.5 122.5 c 128,-1,25
 1043 167 1043 167 1103.5 263 c 128,-1,26
 1164 359 1164 359 1221 537 c 0,27,28
 1223 544 1223 544 1228.5 549.5 c 128,-1,29
 1234 555 1234 555 1241 555 c 2,30,-1
 1260 555 l 2,31,32
 1280 555 1280 555 1280 528 c 1,33,-1
 1118 18 l 1,34,35
 1109 0 1109 0 1098 0 c 2,36,-1
 137 0 l 2,37,38
 119 0 119 0 119 16 c 0,0,1
EndSplineSet
EndChar

StartChar: bracketleft
Encoding: 91 91 62
Width: 795
GlyphClass: 2
Flags: W
LayerCount: 2
Fore
SplineSet
115 -27 m 2,0,-1
 115 1518 l 2,1,2
 115 1525 115 1525 121.5 1530.5 c 128,-1,3
 128 1536 128 1536 135 1536 c 2,4,-1
 154 1536 l 2,5,6
 161 1536 161 1536 167.5 1530.5 c 128,-1,7
 174 1525 174 1525 174 1518 c 2,8,-1
 174 864 l 1,9,10
 219 907 219 907 279 926.5 c 128,-1,11
 339 946 339 946 408 946 c 0,12,13
 482 946 482 946 544.5 906.5 c 128,-1,14
 607 867 607 867 643.5 801 c 128,-1,15
 680 735 680 735 680 662 c 0,16,17
 680 514 680 514 607 385.5 c 128,-1,18
 534 257 534 257 425 158.5 c 128,-1,19
 316 60 316 60 166 -41 c 1,20,21
 158 -45 158 -45 154 -45 c 2,22,-1
 135 -45 l 2,23,24
 130 -45 130 -45 122.5 -38.5 c 128,-1,25
 115 -32 115 -32 115 -27 c 2,0,-1
174 41 m 1,26,27
 268 130 268 130 341.5 226 c 128,-1,28
 415 322 415 322 460.5 434 c 128,-1,29
 506 546 506 546 506 662 c 0,30,31
 506 705 506 705 495 751.5 c 128,-1,32
 484 798 484 798 457 831 c 128,-1,33
 430 864 430 864 385 864 c 0,34,35
 305 864 305 864 239.5 830.5 c 128,-1,36
 174 797 174 797 174 725 c 2,37,-1
 174 41 l 1,26,27
EndSplineSet
EndChar

StartChar: backslash
Encoding: 92 92 63
Width: 795
GlyphClass: 2
Flags: W
LayerCount: 2
Fore
SplineSet
176 -174 m 2,0,1
 170 -174 170 -174 162 -167.5 c 128,-1,2
 154 -161 154 -161 154 -156 c 2,3,-1
 154 1470 l 2,4,5
 154 1480 154 1480 166.5 1487.5 c 128,-1,6
 179 1495 179 1495 190 1495 c 0,7,8
 197 1495 197 1495 205 1490 c 128,-1,9
 213 1485 213 1485 213 1477 c 2,10,-1
 213 899 l 1,11,-1
 612 1057 l 1,12,-1
 618 1057 l 2,13,14
 625 1057 625 1057 633 1051.5 c 128,-1,15
 641 1046 641 1046 641 1038 c 2,16,-1
 641 -424 l 2,17,18
 641 -433 641 -433 626.5 -441 c 128,-1,19
 612 -449 612 -449 604 -449 c 0,20,21
 598 -449 598 -449 590 -443 c 128,-1,22
 582 -437 582 -437 582 -430 c 2,23,-1
 582 -16 l 1,24,-1
 184 -174 l 1,25,-1
 176 -174 l 2,0,1
213 16 m 1,26,-1
 582 162 l 1,27,-1
 582 866 l 1,28,-1
 213 721 l 1,29,-1
 213 16 l 1,26,-1
EndSplineSet
EndChar

StartChar: bracketright
Encoding: 93 93 64
Width: 795
GlyphClass: 2
Flags: W
LayerCount: 2
Fore
SplineSet
199 -428 m 2,0,-1
 199 -156 l 1,1,-1
 145 -174 l 1,2,-1
 137 -174 l 2,3,4
 131 -174 131 -174 123 -167.5 c 128,-1,5
 115 -161 115 -161 115 -156 c 2,6,-1
 115 -18 l 2,7,8
 115 -6 115 -6 131 -2 c 1,9,-1
 199 23 l 1,10,-1
 199 727 l 1,11,-1
 145 711 l 2,12,13
 141 709 141 709 137 709 c 0,14,15
 131 709 131 709 123 715.5 c 128,-1,16
 115 722 115 722 115 727 c 2,17,-1
 115 864 l 2,18,19
 115 875 115 875 131 883 c 1,20,-1
 199 905 l 1,21,-1
 199 1335 l 2,22,23
 199 1344 199 1344 212 1351 c 128,-1,24
 225 1358 225 1358 236 1358 c 0,25,26
 243 1358 243 1358 250.5 1352.5 c 128,-1,27
 258 1347 258 1347 258 1339 c 2,28,-1
 258 924 l 1,29,-1
 537 1018 l 1,30,-1
 537 1448 l 2,31,32
 537 1459 537 1459 549 1464.5 c 128,-1,33
 561 1470 561 1470 573 1470 c 0,34,35
 580 1470 580 1470 588 1465 c 128,-1,36
 596 1460 596 1460 596 1452 c 2,37,-1
 596 1038 l 1,38,-1
 651 1057 l 1,39,-1
 657 1057 l 2,40,41
 664 1057 664 1057 672 1051.5 c 128,-1,42
 680 1046 680 1046 680 1038 c 2,43,-1
 680 901 l 2,44,45
 680 890 680 890 666 885 c 2,46,-1
 596 860 l 1,47,-1
 596 156 l 1,48,-1
 651 174 l 1,49,-1
 657 174 l 2,50,51
 664 174 664 174 672 169 c 128,-1,52
 680 164 680 164 680 156 c 2,53,-1
 680 18 l 2,54,55
 680 7 680 7 666 2 c 2,56,-1
 596 -23 l 1,57,-1
 596 -311 l 2,58,59
 596 -320 596 -320 582.5 -327 c 128,-1,60
 569 -334 569 -334 559 -334 c 0,61,62
 553 -334 553 -334 545 -327.5 c 128,-1,63
 537 -321 537 -321 537 -315 c 2,64,-1
 537 -41 l 1,65,-1
 258 -135 l 1,66,-1
 258 -424 l 2,67,68
 258 -433 258 -433 244 -439.5 c 128,-1,69
 230 -446 230 -446 221 -446 c 0,70,71
 215 -446 215 -446 207 -439.5 c 128,-1,72
 199 -433 199 -433 199 -428 c 2,0,-1
258 41 m 1,73,-1
 537 135 l 1,74,-1
 537 842 l 1,75,-1
 258 748 l 1,76,-1
 258 41 l 1,73,-1
EndSplineSet
EndChar

StartChar: asciicircum
Encoding: 94 94 65
Width: 2048
GlyphClass: 2
Flags: W
LayerCount: 2
Fore
SplineSet
121 717 m 0,0,1
 115 726 115 726 115 735 c 0,2,3
 115 747 115 747 124.5 755.5 c 128,-1,4
 134 764 134 764 145 764 c 0,5,6
 162 764 162 764 168 752 c 1,7,8
 306 560 306 560 534.5 466.5 c 128,-1,9
 763 373 763 373 1024 373 c 0,10,11
 1145 373 1145 373 1267.5 395 c 128,-1,12
 1390 417 1390 417 1502 463 c 128,-1,13
 1614 509 1614 509 1710 580 c 128,-1,14
 1806 651 1806 651 1878 752 c 1,15,16
 1884 764 1884 764 1901 764 c 0,17,18
 1914 764 1914 764 1922.5 756.5 c 128,-1,19
 1931 749 1931 749 1931 735 c 0,20,21
 1931 723 1931 723 1925 717 c 1,22,23
 1774 504 1774 504 1532.5 388 c 128,-1,24
 1291 272 1291 272 1024 272 c 0,25,26
 848 272 848 272 679 323.5 c 128,-1,27
 510 375 510 375 365 476 c 128,-1,28
 220 577 220 577 121 717 c 0,0,1
EndSplineSet
EndChar

StartChar: underscore
Encoding: 95 95 66
Width: 2048
GlyphClass: 2
Flags: W
LayerCount: 2
Fore
SplineSet
115 291 m 256,0,1
 115 303 115 303 121 309 c 1,2,3
 219 457 219 457 363 564.5 c 128,-1,4
 507 672 507 672 675.5 728 c 128,-1,5
 844 784 844 784 1024 784 c 0,6,7
 1202 784 1202 784 1370.5 728 c 128,-1,8
 1539 672 1539 672 1682.5 565 c 128,-1,9
 1826 458 1826 458 1925 309 c 0,10,11
 1931 300 1931 300 1931 291 c 0,12,13
 1931 278 1931 278 1922.5 270 c 128,-1,14
 1914 262 1914 262 1901 262 c 0,15,16
 1884 262 1884 262 1878 274 c 1,17,18
 1786 412 1786 412 1650 503.5 c 128,-1,19
 1514 595 1514 595 1354 639.5 c 128,-1,20
 1194 684 1194 684 1024 684 c 0,21,22
 853 684 853 684 693 639.5 c 128,-1,23
 533 595 533 595 396.5 503.5 c 128,-1,24
 260 412 260 412 168 274 c 1,25,26
 162 262 162 262 145 262 c 0,27,28
 134 262 134 262 124.5 270.5 c 128,-1,29
 115 279 115 279 115 291 c 256,0,1
EndSplineSet
EndChar

StartChar: grave
Encoding: 96 96 67
Width: 852
GlyphClass: 2
Flags: W
LayerCount: 2
Fore
SplineSet
49 152 m 0,0,1
 40 152 40 152 30 163 c 128,-1,2
 20 174 20 174 20 184 c 0,3,4
 20 201 20 201 190 356 c 1,5,6
 190 365 190 365 189.5 371 c 128,-1,7
 189 377 189 377 188 383 c 1,8,9
 188 471 188 471 202 562.5 c 128,-1,10
 216 654 216 654 240.5 745 c 128,-1,11
 265 836 265 836 302 935 c 128,-1,12
 339 1034 339 1034 377 1108 c 1,13,14
 443 1243 443 1243 521 1343.5 c 128,-1,15
 599 1444 599 1444 694 1444 c 0,16,17
 759 1444 759 1444 787 1399.5 c 128,-1,18
 815 1355 815 1355 815 1288 c 0,19,20
 815 913 815 913 317 406 c 1,21,22
 309 318 309 318 309 281 c 0,23,24
 309 25 309 25 426 25 c 0,25,26
 476 25 476 25 525.5 51.5 c 128,-1,27
 575 78 575 78 610.5 109 c 128,-1,28
 646 140 646 140 709 201 c 0,29,30
 713 205 713 205 721 205 c 0,31,32
 732 205 732 205 742 193 c 128,-1,33
 752 181 752 181 752 170 c 0,34,35
 752 163 752 163 743 156 c 1,36,37
 652 67 652 67 579 18 c 128,-1,38
 506 -31 506 -31 422 -31 c 0,39,40
 314 -31 314 -31 261.5 62 c 128,-1,41
 209 155 209 155 195 283 c 1,42,43
 140 228 140 228 61 156 c 1,44,45
 59 152 59 152 49 152 c 0,0,1
334 504 m 1,46,47
 443 620 443 620 538 748 c 128,-1,48
 633 876 633 876 696.5 1017.5 c 128,-1,49
 760 1159 760 1159 760 1294 c 0,50,51
 760 1391 760 1391 692 1391 c 0,52,53
 619 1391 619 1391 543 1216.5 c 128,-1,54
 467 1042 467 1042 413 839 c 128,-1,55
 359 636 359 636 334 504 c 1,46,47
EndSplineSet
EndChar

StartChar: a
Encoding: 97 97 68
Width: 1081
GlyphClass: 2
Flags: W
LayerCount: 2
Fore
SplineSet
356 -23 m 0,0,1
 227 -23 227 -23 152.5 74.5 c 128,-1,2
 78 172 78 172 78 305 c 0,3,4
 78 436 78 436 146 577 c 128,-1,5
 214 718 214 718 329.5 811.5 c 128,-1,6
 445 905 445 905 578 905 c 0,7,8
 639 905 639 905 687 872 c 128,-1,9
 735 839 735 839 762 782 c 1,10,11
 785 864 785 864 852 864 c 0,12,13
 878 864 878 864 895.5 848.5 c 128,-1,14
 913 833 913 833 913 807 c 0,15,16
 913 801 913 801 912.5 798 c 128,-1,17
 912 795 912 795 911 791 c 2,18,-1
 768 219 l 1,19,20
 754 158 754 158 754 119 c 0,21,22
 754 31 754 31 813 31 c 0,23,24
 877 31 877 31 910.5 112.5 c 128,-1,25
 944 194 944 194 967 301 c 1,26,27
 971 313 971 313 983 313 c 2,28,-1
 1008 313 l 2,29,30
 1016 313 1016 313 1021 306 c 128,-1,31
 1026 299 1026 299 1026 293 c 1,32,33
 990 150 990 150 947.5 63.5 c 128,-1,34
 905 -23 905 -23 809 -23 c 0,35,36
 740 -23 740 -23 687 17.5 c 128,-1,37
 634 58 634 58 621 125 c 1,38,39
 489 -23 489 -23 356 -23 c 0,0,1
358 31 m 0,40,41
 432 31 432 31 501.5 86.5 c 128,-1,42
 571 142 571 142 621 217 c 0,43,44
 623 219 623 219 623 223 c 2,45,-1
 733 668 l 1,46,-1
 735 674 l 1,47,48
 723 747 723 747 682.5 799.5 c 128,-1,49
 642 852 642 852 573 852 c 256,50,51
 504 852 504 852 444.5 795.5 c 128,-1,52
 385 739 385 739 344 662 c 1,53,54
 304 580 304 580 267.5 437 c 128,-1,55
 231 294 231 294 231 215 c 0,56,57
 231 144 231 144 261.5 87.5 c 128,-1,58
 292 31 292 31 358 31 c 0,40,41
EndSplineSet
EndChar

StartChar: b
Encoding: 98 98 69
Width: 879
GlyphClass: 2
Flags: W
LayerCount: 2
Fore
SplineSet
354 -23 m 0,0,1
 230 -23 230 -23 161 74 c 128,-1,2
 92 171 92 171 92 301 c 0,3,4
 92 320 92 320 101.5 375.5 c 128,-1,5
 111 431 111 431 111 444 c 1,6,-1
 309 1239 l 2,7,8
 317 1274 317 1274 319 1294 c 1,9,10
 319 1327 319 1327 186 1327 c 0,11,12
 166 1327 166 1327 166 1354 c 1,13,14
 167 1359 167 1359 170.5 1372 c 128,-1,15
 174 1385 174 1385 179.5 1392 c 128,-1,16
 185 1399 185 1399 195 1399 c 2,17,-1
 471 1421 l 1,18,19
 496 1421 496 1421 496 1395 c 1,20,-1
 344 791 l 1,21,22
 460 905 460 905 578 905 c 0,23,24
 665 905 665 905 727.5 859 c 128,-1,25
 790 813 790 813 821 738 c 128,-1,26
 852 663 852 663 852 578 c 0,27,28
 852 479 852 479 813.5 373.5 c 128,-1,29
 775 268 775 268 707 177.5 c 128,-1,30
 639 87 639 87 548 32 c 128,-1,31
 457 -23 457 -23 354 -23 c 0,0,1
358 31 m 256,32,33
 428 31 428 31 489 89.5 c 128,-1,34
 550 148 550 148 588 221 c 1,35,36
 629 303 629 303 664.5 443.5 c 128,-1,37
 700 584 700 584 700 668 c 0,38,39
 700 741 700 741 669.5 796.5 c 128,-1,40
 639 852 639 852 573 852 c 0,41,42
 499 852 499 852 431.5 797.5 c 128,-1,43
 364 743 364 743 313 668 c 1,44,-1
 256 436 l 1,45,46
 223 307 223 307 221 229 c 1,47,48
 221 152 221 152 254.5 91.5 c 128,-1,49
 288 31 288 31 358 31 c 256,32,33
EndSplineSet
EndChar

StartChar: c
Encoding: 99 99 70
Width: 885
GlyphClass: 2
Flags: W
LayerCount: 2
Fore
SplineSet
240 244 m 0,0,1
 240 155 240 155 285.5 93 c 128,-1,2
 331 31 331 31 416 31 c 0,3,4
 538 31 538 31 650.5 87 c 128,-1,5
 763 143 763 143 834 242 c 1,6,7
 840 248 840 248 850 248 c 256,8,9
 860 248 860 248 870.5 236.5 c 128,-1,10
 881 225 881 225 881 215 c 0,11,12
 881 207 881 207 877 203 c 0,13,14
 802 98 802 98 675 37.5 c 128,-1,15
 548 -23 548 -23 412 -23 c 0,16,17
 314 -23 314 -23 239 23.5 c 128,-1,18
 164 70 164 70 123 148 c 128,-1,19
 82 226 82 226 82 324 c 0,20,21
 82 462 82 462 159 598 c 128,-1,22
 236 734 236 734 364 819.5 c 128,-1,23
 492 905 492 905 633 905 c 0,24,25
 725 905 725 905 798.5 860.5 c 128,-1,26
 872 816 872 816 872 729 c 0,27,28
 872 673 872 673 839.5 633.5 c 128,-1,29
 807 594 807 594 752 594 c 0,30,31
 719 594 719 594 696.5 614.5 c 128,-1,32
 674 635 674 635 674 668 c 0,33,34
 674 716 674 716 709 750 c 128,-1,35
 744 784 744 784 791 784 c 2,36,-1
 795 784 l 1,37,38
 771 819 771 819 725.5 835.5 c 128,-1,39
 680 852 680 852 631 852 c 0,40,41
 511 852 511 852 421 749.5 c 128,-1,42
 331 647 331 647 285.5 504.5 c 128,-1,43
 240 362 240 362 240 244 c 0,0,1
EndSplineSet
EndChar

StartChar: d
Encoding: 100 100 71
Width: 1065
GlyphClass: 2
Flags: W
LayerCount: 2
Fore
SplineSet
356 -23 m 0,0,1
 227 -23 227 -23 152.5 74.5 c 128,-1,2
 78 172 78 172 78 305 c 0,3,4
 78 436 78 436 146 577 c 128,-1,5
 214 718 214 718 329.5 811.5 c 128,-1,6
 445 905 445 905 578 905 c 0,7,8
 638 905 638 905 686.5 871.5 c 128,-1,9
 735 838 735 838 762 782 c 1,10,-1
 877 1239 l 2,11,12
 885 1274 885 1274 887 1294 c 1,13,14
 887 1327 887 1327 754 1327 c 0,15,16
 733 1327 733 1327 733 1354 c 1,17,18
 734 1359 734 1359 737.5 1372 c 128,-1,19
 741 1385 741 1385 746.5 1392 c 128,-1,20
 752 1399 752 1399 762 1399 c 2,21,-1
 1038 1421 l 1,22,23
 1063 1421 1063 1421 1063 1395 c 1,24,-1
 768 217 l 1,25,26
 754 183 754 183 754 119 c 0,27,28
 754 31 754 31 813 31 c 0,29,30
 877 31 877 31 910.5 112.5 c 128,-1,31
 944 194 944 194 967 301 c 1,32,33
 971 313 971 313 983 313 c 2,34,-1
 1008 313 l 2,35,36
 1016 313 1016 313 1021 306 c 128,-1,37
 1026 299 1026 299 1026 293 c 1,38,39
 990 150 990 150 947.5 63.5 c 128,-1,40
 905 -23 905 -23 809 -23 c 0,41,42
 740 -23 740 -23 687 17.5 c 128,-1,43
 634 58 634 58 621 125 c 1,44,45
 489 -23 489 -23 356 -23 c 0,0,1
358 31 m 0,46,47
 432 31 432 31 501.5 86.5 c 128,-1,48
 571 142 571 142 621 217 c 0,49,50
 623 219 623 219 623 225 c 1,51,-1
 735 676 l 1,52,53
 723 748 723 748 682 800 c 128,-1,54
 641 852 641 852 573 852 c 0,55,56
 504 852 504 852 444.5 795.5 c 128,-1,57
 385 739 385 739 344 662 c 1,58,59
 304 580 304 580 267.5 437 c 128,-1,60
 231 294 231 294 231 215 c 0,61,62
 231 144 231 144 261.5 87.5 c 128,-1,63
 292 31 292 31 358 31 c 0,46,47
EndSplineSet
EndChar

StartChar: e
Encoding: 101 101 72
Width: 952
GlyphClass: 2
Flags: W
LayerCount: 2
Fore
SplineSet
412 -23 m 0,0,1
 314 -23 314 -23 240.5 28 c 128,-1,2
 167 79 167 79 128.5 165.5 c 128,-1,3
 90 252 90 252 90 348 c 0,4,5
 90 494 90 494 163.5 622.5 c 128,-1,6
 237 751 237 751 363 828 c 128,-1,7
 489 905 489 905 633 905 c 0,8,9
 721 905 721 905 786.5 859.5 c 128,-1,10
 852 814 852 814 852 729 c 0,11,12
 852 611 852 611 758 553.5 c 128,-1,13
 664 496 664 496 546 482.5 c 128,-1,14
 428 469 428 469 285 469 c 2,15,-1
 279 469 l 1,16,17
 246 347 246 347 246 260 c 0,18,19
 246 169 246 169 288 100 c 128,-1,20
 330 31 330 31 416 31 c 0,21,22
 538 31 538 31 650.5 87 c 128,-1,23
 763 143 763 143 834 242 c 1,24,25
 840 248 840 248 850 248 c 256,26,27
 860 248 860 248 870.5 236.5 c 128,-1,28
 881 225 881 225 881 215 c 0,29,30
 881 207 881 207 877 203 c 0,31,32
 802 98 802 98 675 37.5 c 128,-1,33
 548 -23 548 -23 412 -23 c 0,0,1
291 522 m 1,34,35
 410 522 410 522 511 533 c 128,-1,36
 612 544 612 544 694 588.5 c 128,-1,37
 776 633 776 633 776 727 c 0,38,39
 776 765 776 765 755 793.5 c 128,-1,40
 734 822 734 822 700.5 837 c 128,-1,41
 667 852 667 852 631 852 c 0,42,43
 544 852 544 852 474.5 805 c 128,-1,44
 405 758 405 758 360 682.5 c 128,-1,45
 315 607 315 607 291 522 c 1,34,35
EndSplineSet
EndChar

StartChar: f
Encoding: 102 102 73
Width: 1001
GlyphClass: 2
Flags: W
LayerCount: 2
Fore
SplineSet
199 -338 m 1,0,1
 237 -367 237 -367 291 -367 c 0,2,3
 364 -367 364 -367 410 -205 c 1,4,5
 429 -127 429 -127 514 309 c 1,6,-1
 608 811 l 1,7,-1
 432 811 l 2,8,9
 412 811 412 811 412 838 c 1,10,11
 420 883 420 883 438 883 c 2,12,-1
 621 883 l 1,13,-1
 645 1016 l 2,14,15
 657 1078 657 1078 667 1122.5 c 128,-1,16
 677 1167 677 1167 688.5 1205 c 128,-1,17
 700 1243 700 1243 723 1290 c 1,18,19
 758 1357 758 1357 817.5 1400.5 c 128,-1,20
 877 1444 877 1444 946 1444 c 0,21,22
 991 1444 991 1444 1033.5 1427.5 c 128,-1,23
 1076 1411 1076 1411 1103 1378 c 128,-1,24
 1130 1345 1130 1345 1130 1300 c 0,25,26
 1130 1248 1130 1248 1095.5 1209.5 c 128,-1,27
 1061 1171 1061 1171 1012 1171 c 0,28,29
 979 1171 979 1171 955.5 1191.5 c 128,-1,30
 932 1212 932 1212 932 1245 c 0,31,32
 932 1290 932 1290 962.5 1323.5 c 128,-1,33
 993 1357 993 1357 1038 1362 c 1,34,35
 1000 1391 1000 1391 944 1391 c 0,36,37
 913 1391 913 1391 885.5 1362 c 128,-1,38
 858 1333 858 1333 850 1300 c 0,39,40
 837 1248 837 1248 793 1018 c 1,41,-1
 768 883 l 1,42,-1
 979 883 l 2,43,44
 999 883 999 883 999 856 c 1,45,46
 998 851 998 851 995 838.5 c 128,-1,47
 992 826 992 826 986.5 818.5 c 128,-1,48
 981 811 981 811 973 811 c 2,49,-1
 754 811 l 1,50,-1
 659 311 l 1,51,52
 641 202 641 202 617.5 89.5 c 128,-1,53
 594 -23 594 -23 551.5 -141.5 c 128,-1,54
 509 -260 509 -260 443 -340 c 128,-1,55
 377 -420 377 -420 287 -420 c 0,56,57
 218 -420 218 -420 163.5 -380.5 c 128,-1,58
 109 -341 109 -341 109 -276 c 0,59,60
 109 -224 109 -224 142.5 -185.5 c 128,-1,61
 176 -147 176 -147 227 -147 c 0,62,63
 261 -147 261 -147 284 -167.5 c 128,-1,64
 307 -188 307 -188 307 -221 c 0,65,66
 307 -265 307 -265 274.5 -301.5 c 128,-1,67
 242 -338 242 -338 199 -338 c 1,0,1
EndSplineSet
EndChar

StartChar: g
Encoding: 103 103 74
Width: 977
GlyphClass: 2
Flags: W
LayerCount: 2
Fore
SplineSet
29 -293 m 0,0,1
 29 -243 29 -243 63.5 -205.5 c 128,-1,2
 98 -168 98 -168 147 -168 c 0,3,4
 180 -168 180 -168 202.5 -188.5 c 128,-1,5
 225 -209 225 -209 225 -242 c 0,6,7
 225 -279 225 -279 204 -308.5 c 128,-1,8
 183 -338 183 -338 150 -350 c 1,9,10
 205 -367 205 -367 322 -367 c 0,11,12
 416 -367 416 -367 494 -294.5 c 128,-1,13
 572 -222 572 -222 596 -127 c 2,14,-1
 655 113 l 1,15,16
 544 0 544 0 424 0 c 0,17,18
 336 0 336 0 273.5 45 c 128,-1,19
 211 90 211 90 178 165 c 128,-1,20
 145 240 145 240 145 324 c 0,21,22
 145 418 145 418 183.5 521 c 128,-1,23
 222 624 222 624 291.5 712 c 128,-1,24
 361 800 361 800 451 852.5 c 128,-1,25
 541 905 541 905 641 905 c 0,26,27
 701 905 701 905 749 872 c 128,-1,28
 797 839 797 839 825 784 c 1,29,30
 845 864 845 864 913 864 c 0,31,32
 939 864 939 864 957 848.5 c 128,-1,33
 975 833 975 833 975 807 c 0,34,35
 975 801 975 801 974.5 798 c 128,-1,36
 974 795 974 795 973 791 c 2,37,-1
 739 -139 l 2,38,39
 723 -203 723 -203 680 -256 c 128,-1,40
 637 -309 637 -309 579 -344.5 c 128,-1,41
 521 -380 521 -380 452 -400 c 128,-1,42
 383 -420 383 -420 319 -420 c 0,43,44
 202 -420 202 -420 115.5 -397.5 c 128,-1,45
 29 -375 29 -375 29 -293 c 0,0,1
428 53 m 0,46,47
 559 53 559 53 686 233 c 1,48,-1
 799 680 l 1,49,50
 785 751 785 751 743 801.5 c 128,-1,51
 701 852 701 852 637 852 c 0,52,53
 569 852 569 852 508.5 796.5 c 128,-1,54
 448 741 448 741 408 664 c 0,55,56
 370 590 370 590 334.5 451.5 c 128,-1,57
 299 313 299 313 299 233 c 0,58,59
 299 163 299 163 331 108 c 128,-1,60
 363 53 363 53 428 53 c 0,46,47
EndSplineSet
EndChar

StartChar: h
Encoding: 104 104 75
Width: 1180
GlyphClass: 2
Flags: W
LayerCount: 2
Fore
SplineSet
109 37 m 0,0,1
 109 49 109 49 111 55 c 2,2,-1
 408 1239 l 2,3,4
 416 1274 416 1274 418 1294 c 1,5,6
 418 1327 418 1327 285 1327 c 0,7,8
 264 1327 264 1327 264 1354 c 1,9,10
 265 1359 265 1359 268.5 1372 c 128,-1,11
 272 1385 272 1385 277.5 1392 c 128,-1,12
 283 1399 283 1399 293 1399 c 2,13,-1
 569 1421 l 1,14,-1
 575 1421 l 1,15,16
 575 1419 575 1419 582 1415.5 c 128,-1,17
 589 1412 589 1412 590 1411 c 0,18,19
 594 1401 594 1401 594 1395 c 1,20,-1
 434 756 l 1,21,22
 560 905 560 905 733 905 c 0,23,24
 805 905 805 905 857.5 880 c 128,-1,25
 910 855 910 855 939.5 804.5 c 128,-1,26
 969 754 969 754 969 684 c 0,27,28
 969 600 969 600 931.5 481 c 128,-1,29
 894 362 894 362 838 215 c 1,30,31
 809 148 809 148 809 92 c 0,32,33
 809 31 809 31 856 31 c 0,34,35
 936 31 936 31 989.5 116.5 c 128,-1,36
 1043 202 1043 202 1065 301 c 1,37,38
 1069 313 1069 313 1081 313 c 2,39,-1
 1106 313 l 2,40,41
 1114 313 1114 313 1119 307.5 c 128,-1,42
 1124 302 1124 302 1124 295 c 0,43,44
 1124 293 1124 293 1122 289 c 0,45,46
 1104 215 1104 215 1068.5 143.5 c 128,-1,47
 1033 72 1033 72 979 24.5 c 128,-1,48
 925 -23 925 -23 852 -23 c 0,49,50
 780 -23 780 -23 729 26.5 c 128,-1,51
 678 76 678 76 678 147 c 0,52,53
 678 185 678 185 694 227 c 0,54,55
 752 381 752 381 790.5 502 c 128,-1,56
 829 623 829 623 829 715 c 0,57,58
 829 774 829 774 806 813 c 128,-1,59
 783 852 783 852 729 852 c 0,60,61
 619 852 619 852 537 784.5 c 128,-1,62
 455 717 455 717 395 606 c 1,63,-1
 256 47 l 2,64,65
 248 16 248 16 225 -3.5 c 128,-1,66
 202 -23 202 -23 172 -23 c 0,67,68
 146 -23 146 -23 127.5 -5.5 c 128,-1,69
 109 12 109 12 109 37 c 0,0,1
EndSplineSet
EndChar

StartChar: i
Encoding: 105 105 76
Width: 705
GlyphClass: 2
Flags: W
LayerCount: 2
Fore
SplineSet
160 147 m 0,0,1
 160 185 160 185 176 227 c 2,2,-1
 342 668 l 1,3,4
 369 743 369 743 369 791 c 0,5,6
 369 852 369 852 324 852 c 0,7,8
 243 852 243 852 190.5 768.5 c 128,-1,9
 138 685 138 685 113 582 c 0,10,11
 109 569 109 569 96 569 c 2,12,-1
 72 569 l 2,13,14
 55 569 55 569 55 588 c 2,15,-1
 55 594 l 1,16,17
 88 716 88 716 156 810.5 c 128,-1,18
 224 905 224 905 328 905 c 0,19,20
 401 905 401 905 451.5 857 c 128,-1,21
 502 809 502 809 502 735 c 0,22,23
 502 697 502 697 485 655 c 1,24,-1
 319 215 l 1,25,26
 291 147 291 147 291 92 c 0,27,28
 291 31 291 31 338 31 c 0,29,30
 418 31 418 31 471.5 116.5 c 128,-1,31
 525 202 525 202 547 301 c 1,32,33
 551 313 551 313 563 313 c 2,34,-1
 588 313 l 2,35,36
 596 313 596 313 601 307.5 c 128,-1,37
 606 302 606 302 606 295 c 0,38,39
 606 293 606 293 604 289 c 1,40,41
 576 173 576 173 506.5 75 c 128,-1,42
 437 -23 437 -23 334 -23 c 0,43,44
 262 -23 262 -23 211 26.5 c 128,-1,45
 160 76 160 76 160 147 c 0,0,1
391 1241 m 0,46,47
 391 1284 391 1284 427 1319 c 128,-1,48
 463 1354 463 1354 506 1354 c 0,49,50
 541 1354 541 1354 563.5 1332.5 c 128,-1,51
 586 1311 586 1311 586 1278 c 0,52,53
 586 1232 586 1232 549.5 1197.5 c 128,-1,54
 513 1163 513 1163 469 1163 c 0,55,56
 436 1163 436 1163 413.5 1185.5 c 128,-1,57
 391 1208 391 1208 391 1241 c 0,46,47
EndSplineSet
EndChar

StartChar: j
Encoding: 106 106 77
Width: 842
GlyphClass: 2
Flags: W
LayerCount: 2
Fore
SplineSet
-27 -291 m 0,0,1
 -27 -241 -27 -241 7.5 -204.5 c 128,-1,2
 42 -168 42 -168 92 -168 c 0,3,4
 125 -168 125 -168 147.5 -188.5 c 128,-1,5
 170 -209 170 -209 170 -242 c 0,6,7
 170 -281 170 -281 145.5 -312.5 c 128,-1,8
 121 -344 121 -344 84 -354 c 1,9,10
 120 -367 120 -367 156 -367 c 0,11,12
 243 -367 243 -367 307 -286.5 c 128,-1,13
 371 -206 371 -206 397 -106 c 2,14,-1
 590 664 l 2,15,16
 604 723 604 723 604 764 c 0,17,18
 604 852 604 852 543 852 c 0,19,20
 453 852 453 852 385.5 770.5 c 128,-1,21
 318 689 318 689 276 582 c 1,22,23
 272 569 272 569 260 569 c 2,24,-1
 236 569 l 2,25,26
 219 569 219 569 219 588 c 2,27,-1
 219 594 l 1,28,29
 265 717 265 717 350 811 c 128,-1,30
 435 905 435 905 547 905 c 0,31,32
 632 905 632 905 686.5 852 c 128,-1,33
 741 799 741 799 741 717 c 0,34,35
 741 688 741 688 735 659 c 1,36,-1
 541 -119 l 2,37,38
 520 -202 520 -202 461 -271 c 128,-1,39
 402 -340 402 -340 320 -380 c 128,-1,40
 238 -420 238 -420 152 -420 c 0,41,42
 83 -420 83 -420 28 -387 c 128,-1,43
 -27 -354 -27 -354 -27 -291 c 0,0,1
621 1241 m 0,44,45
 621 1286 621 1286 656 1320 c 128,-1,46
 691 1354 691 1354 735 1354 c 0,47,48
 770 1354 770 1354 792.5 1332.5 c 128,-1,49
 815 1311 815 1311 815 1278 c 0,50,51
 815 1232 815 1232 778.5 1197.5 c 128,-1,52
 742 1163 742 1163 698 1163 c 0,53,54
 665 1163 665 1163 643 1186 c 128,-1,55
 621 1209 621 1209 621 1241 c 0,44,45
EndSplineSet
EndChar

StartChar: k
Encoding: 107 107 78
Width: 1065
GlyphClass: 2
Flags: W
LayerCount: 2
Fore
SplineSet
109 37 m 0,0,1
 109 49 109 49 111 55 c 2,2,-1
 408 1239 l 2,3,4
 416 1274 416 1274 418 1294 c 1,5,6
 418 1327 418 1327 285 1327 c 0,7,8
 264 1327 264 1327 264 1354 c 1,9,10
 265 1359 265 1359 268.5 1372 c 128,-1,11
 272 1385 272 1385 277.5 1392 c 128,-1,12
 283 1399 283 1399 293 1399 c 2,13,-1
 569 1421 l 1,14,-1
 575 1421 l 1,15,16
 575 1419 575 1419 582 1415.5 c 128,-1,17
 589 1412 589 1412 590 1411 c 0,18,19
 594 1401 594 1401 594 1395 c 1,20,-1
 379 539 l 1,21,22
 453 570 453 570 565.5 686.5 c 128,-1,23
 678 803 678 803 741.5 854 c 128,-1,24
 805 905 805 905 901 905 c 0,25,26
 958 905 958 905 998 866 c 128,-1,27
 1038 827 1038 827 1038 770 c 0,28,29
 1038 734 1038 734 1023 703.5 c 128,-1,30
 1008 673 1008 673 981 654 c 128,-1,31
 954 635 954 635 918 635 c 0,32,33
 885 635 885 635 862.5 655.5 c 128,-1,34
 840 676 840 676 840 709 c 0,35,36
 840 758 840 758 874.5 791.5 c 128,-1,37
 909 825 909 825 958 825 c 1,38,39
 938 852 938 852 897 852 c 0,40,41
 836 852 836 852 779.5 817 c 128,-1,42
 723 782 723 782 657.5 716.5 c 128,-1,43
 592 651 592 651 538 596.5 c 128,-1,44
 484 542 484 542 438 514 c 1,45,46
 559 500 559 500 648 450.5 c 128,-1,47
 737 401 737 401 737 299 c 0,48,49
 737 278 737 278 729 246 c 0,50,51
 711 169 711 169 711 123 c 0,52,53
 711 31 711 31 774 31 c 0,54,55
 848 31 848 31 886.5 112 c 128,-1,56
 925 193 925 193 950 301 c 1,57,58
 954 313 954 313 967 313 c 2,59,-1
 991 313 l 2,60,61
 999 313 999 313 1004.5 308 c 128,-1,62
 1010 303 1010 303 1010 295 c 0,63,64
 1010 293 1010 293 1008 289 c 0,65,66
 931 -23 931 -23 770 -23 c 0,67,68
 712 -23 712 -23 667.5 4 c 128,-1,69
 623 31 623 31 599 77.5 c 128,-1,70
 575 124 575 124 575 182 c 0,71,72
 575 215 575 215 584 250 c 0,73,74
 590 274 590 274 590 295 c 0,75,76
 590 374 590 374 520 415 c 128,-1,77
 450 456 450 456 360 465 c 1,78,-1
 256 47 l 2,79,80
 248 16 248 16 225 -3.5 c 128,-1,81
 202 -23 202 -23 172 -23 c 0,82,83
 146 -23 146 -23 127.5 -5.5 c 128,-1,84
 109 12 109 12 109 37 c 0,0,1
EndSplineSet
EndChar

StartChar: l
Encoding: 108 108 79
Width: 610
GlyphClass: 2
Flags: W
LayerCount: 2
Fore
SplineSet
90 166 m 0,0,1
 90 172 90 172 91.5 184 c 128,-1,2
 93 196 93 196 94.5 207.5 c 128,-1,3
 96 219 96 219 96 225 c 1,4,-1
 350 1239 l 2,5,6
 358 1274 358 1274 360 1294 c 1,7,8
 360 1327 360 1327 227 1327 c 0,9,10
 207 1327 207 1327 207 1354 c 1,11,12
 208 1359 208 1359 211.5 1372 c 128,-1,13
 215 1385 215 1385 220.5 1392 c 128,-1,14
 226 1399 226 1399 236 1399 c 2,15,-1
 512 1421 l 1,16,17
 537 1421 537 1421 537 1395 c 1,18,-1
 242 217 l 1,19,20
 227 184 227 184 227 119 c 0,21,22
 227 31 227 31 287 31 c 0,23,24
 350 31 350 31 381.5 109.5 c 128,-1,25
 413 188 413 188 438 301 c 1,26,27
 442 313 442 313 455 313 c 2,28,-1
 479 313 l 2,29,30
 487 313 487 313 492.5 306.5 c 128,-1,31
 498 300 498 300 498 293 c 1,32,33
 474 194 474 194 454.5 136.5 c 128,-1,34
 435 79 435 79 392 28 c 128,-1,35
 349 -23 349 -23 283 -23 c 0,36,37
 201 -23 201 -23 145.5 30 c 128,-1,38
 90 83 90 83 90 166 c 0,0,1
EndSplineSet
EndChar

StartChar: m
Encoding: 109 109 80
Width: 1798
GlyphClass: 2
Flags: W
LayerCount: 2
Fore
SplineSet
158 35 m 0,0,1
 158 47 158 47 160 53 c 2,2,-1
 313 664 l 2,3,4
 328 721 328 721 328 764 c 0,5,6
 328 852 328 852 268 852 c 0,7,8
 204 852 204 852 173 775.5 c 128,-1,9
 142 699 142 699 113 582 c 1,10,11
 113 576 113 576 107 572.5 c 128,-1,12
 101 569 101 569 96 569 c 2,13,-1
 72 569 l 2,14,15
 65 569 65 569 60 576.5 c 128,-1,16
 55 584 55 584 55 590 c 1,17,18
 77 679 77 679 97.5 741 c 128,-1,19
 118 803 118 803 161.5 854 c 128,-1,20
 205 905 205 905 270 905 c 0,21,22
 347 905 347 905 406 856.5 c 128,-1,23
 465 808 465 808 465 733 c 1,24,25
 526 813 526 813 608 859 c 128,-1,26
 690 905 690 905 782 905 c 0,27,28
 879 905 879 905 949.5 855.5 c 128,-1,29
 1020 806 1020 806 1020 715 c 1,30,31
 1083 804 1083 804 1167.5 854.5 c 128,-1,32
 1252 905 1252 905 1352 905 c 0,33,34
 1458 905 1458 905 1522.5 847.5 c 128,-1,35
 1587 790 1587 790 1587 684 c 0,36,37
 1587 600 1587 600 1549.5 481 c 128,-1,38
 1512 362 1512 362 1456 215 c 1,39,40
 1427 144 1427 144 1427 92 c 0,41,42
 1427 31 1427 31 1475 31 c 0,43,44
 1555 31 1555 31 1608 117 c 128,-1,45
 1661 203 1661 203 1683 301 c 1,46,47
 1689 313 1689 313 1700 313 c 2,48,-1
 1724 313 l 2,49,50
 1732 313 1732 313 1737.5 307.5 c 128,-1,51
 1743 302 1743 302 1743 295 c 0,52,53
 1743 293 1743 293 1741 289 c 1,54,55
 1713 173 1713 173 1643.5 75 c 128,-1,56
 1574 -23 1574 -23 1470 -23 c 0,57,58
 1398 -23 1398 -23 1347 26.5 c 128,-1,59
 1296 76 1296 76 1296 147 c 0,60,61
 1296 183 1296 183 1313 227 c 0,62,63
 1371 381 1371 381 1409.5 502 c 128,-1,64
 1448 623 1448 623 1448 715 c 0,65,66
 1448 772 1448 772 1425 812 c 128,-1,67
 1402 852 1402 852 1348 852 c 0,68,69
 1236 852 1236 852 1154 783.5 c 128,-1,70
 1072 715 1072 715 1012 602 c 1,71,72
 1008 582 1008 582 1006 571 c 2,73,-1
 874 45 l 2,74,75
 867 17 867 17 842.5 -3 c 128,-1,76
 818 -23 818 -23 788 -23 c 0,77,78
 764 -23 764 -23 745.5 -7 c 128,-1,79
 727 9 727 9 727 35 c 0,80,81
 727 47 727 47 729 53 c 2,82,-1
 860 575 l 2,83,84
 881 659 881 659 881 715 c 0,85,86
 881 772 881 772 857.5 812 c 128,-1,87
 834 852 834 852 778 852 c 0,88,89
 703 852 703 852 640 819 c 128,-1,90
 577 786 577 786 530 731.5 c 128,-1,91
 483 677 483 677 444 602 c 1,92,-1
 305 45 l 2,93,94
 298 17 298 17 273.5 -3 c 128,-1,95
 249 -23 249 -23 219 -23 c 0,96,97
 194 -23 194 -23 176 -7 c 128,-1,98
 158 9 158 9 158 35 c 0,0,1
EndSplineSet
EndChar

StartChar: n
Encoding: 110 110 81
Width: 1229
GlyphClass: 2
Flags: W
LayerCount: 2
Fore
SplineSet
158 35 m 0,0,1
 158 47 158 47 160 53 c 2,2,-1
 313 664 l 2,3,4
 328 721 328 721 328 764 c 0,5,6
 328 852 328 852 268 852 c 0,7,8
 204 852 204 852 173 775.5 c 128,-1,9
 142 699 142 699 113 582 c 1,10,11
 113 576 113 576 107 572.5 c 128,-1,12
 101 569 101 569 96 569 c 2,13,-1
 72 569 l 2,14,15
 65 569 65 569 60 576.5 c 128,-1,16
 55 584 55 584 55 590 c 1,17,18
 77 679 77 679 97.5 741 c 128,-1,19
 118 803 118 803 161.5 854 c 128,-1,20
 205 905 205 905 270 905 c 0,21,22
 347 905 347 905 406 856.5 c 128,-1,23
 465 808 465 808 465 733 c 1,24,25
 526 813 526 813 608 859 c 128,-1,26
 690 905 690 905 782 905 c 0,27,28
 855 905 855 905 908 880 c 128,-1,29
 961 855 961 855 990.5 804.5 c 128,-1,30
 1020 754 1020 754 1020 684 c 0,31,32
 1020 600 1020 600 982.5 481 c 128,-1,33
 945 362 945 362 889 215 c 1,34,35
 860 148 860 148 860 92 c 0,36,37
 860 31 860 31 907 31 c 0,38,39
 987 31 987 31 1040.5 117 c 128,-1,40
 1094 203 1094 203 1116 301 c 1,41,42
 1120 313 1120 313 1133 313 c 2,43,-1
 1157 313 l 2,44,45
 1165 313 1165 313 1170.5 308 c 128,-1,46
 1176 303 1176 303 1176 295 c 0,47,48
 1176 293 1176 293 1174 289 c 1,49,50
 1146 173 1146 173 1076.5 75 c 128,-1,51
 1007 -23 1007 -23 903 -23 c 0,52,53
 831 -23 831 -23 780 26.5 c 128,-1,54
 729 76 729 76 729 147 c 0,55,56
 729 185 729 185 745 227 c 0,57,58
 771 294 771 294 804.5 387 c 128,-1,59
 838 480 838 480 859.5 565 c 128,-1,60
 881 650 881 650 881 715 c 0,61,62
 881 772 881 772 857.5 812 c 128,-1,63
 834 852 834 852 778 852 c 0,64,65
 703 852 703 852 640 819 c 128,-1,66
 577 786 577 786 530 731.5 c 128,-1,67
 483 677 483 677 444 602 c 1,68,-1
 305 45 l 2,69,70
 298 17 298 17 273.5 -3 c 128,-1,71
 249 -23 249 -23 219 -23 c 0,72,73
 194 -23 194 -23 176 -7 c 128,-1,74
 158 9 158 9 158 35 c 0,0,1
EndSplineSet
EndChar

StartChar: o
Encoding: 111 111 82
Width: 991
GlyphClass: 2
Flags: W
LayerCount: 2
Fore
SplineSet
412 -23 m 0,0,1
 315 -23 315 -23 239.5 23 c 128,-1,2
 164 69 164 69 123 147 c 128,-1,3
 82 225 82 225 82 324 c 0,4,5
 82 463 82 463 159.5 599 c 128,-1,6
 237 735 237 735 365.5 820 c 128,-1,7
 494 905 494 905 635 905 c 0,8,9
 711 905 711 905 770.5 879 c 128,-1,10
 830 853 830 853 874 806 c 128,-1,11
 918 759 918 759 941.5 696 c 128,-1,12
 965 633 965 633 965 559 c 0,13,14
 965 452 965 452 920 348.5 c 128,-1,15
 875 245 875 245 796.5 160.5 c 128,-1,16
 718 76 718 76 617 26.5 c 128,-1,17
 516 -23 516 -23 412 -23 c 0,0,1
416 31 m 0,18,19
 507 31 507 31 582.5 93 c 128,-1,20
 658 155 658 155 706.5 249.5 c 128,-1,21
 755 344 755 344 781 449 c 128,-1,22
 807 554 807 554 807 639 c 0,23,24
 807 728 807 728 762.5 790 c 128,-1,25
 718 852 718 852 631 852 c 0,26,27
 511 852 511 852 421 749.5 c 128,-1,28
 331 647 331 647 285.5 504.5 c 128,-1,29
 240 362 240 362 240 244 c 0,30,31
 240 155 240 155 285.5 93 c 128,-1,32
 331 31 331 31 416 31 c 0,18,19
EndSplineSet
EndChar

StartChar: p
Encoding: 112 112 83
Width: 1030
GlyphClass: 2
Flags: W
LayerCount: 2
Fore
SplineSet
-51 -397 m 2,0,1
 -70 -397 -70 -397 -70 -371 c 1,2,3
 -63 -326 -63 -326 -43 -326 c 0,4,5
 21 -326 21 -326 46.5 -314.5 c 128,-1,6
 72 -303 72 -303 86 -256 c 1,7,-1
 317 666 l 1,8,9
 332 704 332 704 332 764 c 0,10,11
 332 852 332 852 272 852 c 0,12,13
 208 852 208 852 177 775.5 c 128,-1,14
 146 699 146 699 117 582 c 1,15,16
 117 569 117 569 100 569 c 2,17,-1
 76 569 l 2,18,19
 71 569 71 569 65 576.5 c 128,-1,20
 59 584 59 584 59 590 c 1,21,22
 81 679 81 679 101.5 741 c 128,-1,23
 122 803 122 803 165.5 854 c 128,-1,24
 209 905 209 905 274 905 c 0,25,26
 344 905 344 905 397 865.5 c 128,-1,27
 450 826 450 826 465 758 c 1,28,29
 521 823 521 823 589 864 c 128,-1,30
 657 905 657 905 729 905 c 0,31,32
 815 905 815 905 878.5 859 c 128,-1,33
 942 813 942 813 974 738.5 c 128,-1,34
 1006 664 1006 664 1006 578 c 0,35,36
 1006 446 1006 446 938.5 305 c 128,-1,37
 871 164 871 164 755.5 70.5 c 128,-1,38
 640 -23 640 -23 508 -23 c 0,39,40
 448 -23 448 -23 399.5 11 c 128,-1,41
 351 45 351 45 324 100 c 1,42,-1
 231 -264 l 1,43,44
 226 -294 226 -294 225 -299 c 1,45,46
 225 -326 225 -326 360 -326 c 0,47,48
 381 -326 381 -326 381 -352 c 1,49,50
 374 -379 374 -379 369.5 -388 c 128,-1,51
 365 -397 365 -397 346 -397 c 2,52,-1
 -51 -397 l 2,0,1
510 31 m 0,53,54
 581 31 581 31 642 89.5 c 128,-1,55
 703 148 703 148 741 221 c 0,56,57
 769 276 769 276 793.5 355.5 c 128,-1,58
 818 435 818 435 836 525 c 128,-1,59
 854 615 854 615 854 668 c 0,60,61
 854 715 854 715 841.5 756 c 128,-1,62
 829 797 829 797 800.5 824.5 c 128,-1,63
 772 852 772 852 725 852 c 0,64,65
 650 852 650 852 583.5 798.5 c 128,-1,66
 517 745 517 745 463 666 c 1,67,-1
 463 659 l 1,68,-1
 350 207 l 1,69,70
 364 134 364 134 404 82.5 c 128,-1,71
 444 31 444 31 510 31 c 0,53,54
EndSplineSet
EndChar

StartChar: q
Encoding: 113 113 84
Width: 913
GlyphClass: 2
Flags: W
LayerCount: 2
Fore
SplineSet
301 -371 m 1,0,1
 308 -326 308 -326 328 -326 c 0,2,3
 402 -326 402 -326 444.5 -314 c 128,-1,4
 487 -302 487 -302 500 -256 c 1,5,-1
 588 92 l 1,6,7
 471 -23 471 -23 354 -23 c 0,8,9
 225 -23 225 -23 151.5 74.5 c 128,-1,10
 78 172 78 172 78 305 c 0,11,12
 78 436 78 436 145.5 577 c 128,-1,13
 213 718 213 718 328.5 811.5 c 128,-1,14
 444 905 444 905 578 905 c 0,15,16
 640 905 640 905 690 868 c 128,-1,17
 740 831 740 831 766 770 c 1,18,19
 778 794 778 794 832.5 849.5 c 128,-1,20
 887 905 887 905 909 905 c 0,21,22
 932 905 932 905 932 879 c 1,23,-1
 645 -264 l 1,24,25
 640 -294 640 -294 639 -299 c 1,26,27
 639 -326 639 -326 774 -326 c 0,28,29
 784 -326 784 -326 789.5 -334 c 128,-1,30
 795 -342 795 -342 795 -352 c 1,31,32
 788 -379 788 -379 783.5 -388 c 128,-1,33
 779 -397 779 -397 760 -397 c 2,34,-1
 322 -397 l 2,35,36
 301 -397 301 -397 301 -371 c 1,0,1
358 31 m 0,37,38
 430 31 430 31 498.5 85.5 c 128,-1,39
 567 140 567 140 618 215 c 1,40,-1
 733 676 l 1,41,42
 721 748 721 748 680.5 800 c 128,-1,43
 640 852 640 852 573 852 c 0,44,45
 504 852 504 852 444.5 795.5 c 128,-1,46
 385 739 385 739 344 662 c 1,47,48
 304 580 304 580 267.5 437 c 128,-1,49
 231 294 231 294 231 215 c 0,50,51
 231 144 231 144 261.5 87.5 c 128,-1,52
 292 31 292 31 358 31 c 0,37,38
EndSplineSet
EndChar

StartChar: r
Encoding: 114 114 85
Width: 924
GlyphClass: 2
Flags: W
LayerCount: 2
Fore
SplineSet
158 35 m 0,0,1
 158 47 158 47 160 53 c 2,2,-1
 313 664 l 2,3,4
 328 721 328 721 328 764 c 0,5,6
 328 852 328 852 268 852 c 0,7,8
 204 852 204 852 173 775.5 c 128,-1,9
 142 699 142 699 113 582 c 1,10,11
 113 576 113 576 107 572.5 c 128,-1,12
 101 569 101 569 96 569 c 2,13,-1
 72 569 l 2,14,15
 65 569 65 569 60 576.5 c 128,-1,16
 55 584 55 584 55 590 c 1,17,18
 77 679 77 679 97.5 741 c 128,-1,19
 118 803 118 803 161.5 854 c 128,-1,20
 205 905 205 905 270 905 c 0,21,22
 341 905 341 905 394.5 864 c 128,-1,23
 448 823 448 823 461 756 c 1,24,25
 513 824 513 824 579.5 864.5 c 128,-1,26
 646 905 646 905 725 905 c 0,27,28
 790 905 790 905 839.5 867 c 128,-1,29
 889 829 889 829 889 764 c 0,30,31
 889 712 889 712 856.5 673.5 c 128,-1,32
 824 635 824 635 770 635 c 0,33,34
 737 635 737 635 714.5 655.5 c 128,-1,35
 692 676 692 676 692 709 c 0,36,37
 692 754 692 754 725 789.5 c 128,-1,38
 758 825 758 825 801 825 c 1,39,40
 768 852 768 852 721 852 c 0,41,42
 633 852 633 852 568 789.5 c 128,-1,43
 503 727 503 727 451 631 c 1,44,-1
 305 45 l 2,45,46
 298 17 298 17 273.5 -3 c 128,-1,47
 249 -23 249 -23 219 -23 c 0,48,49
 194 -23 194 -23 176 -7 c 128,-1,50
 158 9 158 9 158 35 c 0,0,1
EndSplineSet
EndChar

StartChar: s
Encoding: 115 115 86
Width: 958
GlyphClass: 2
Flags: W
LayerCount: 2
Fore
SplineSet
178 125 m 1,0,1
 233 31 233 31 399 31 c 0,2,3
 471 31 471 31 536 55.5 c 128,-1,4
 601 80 601 80 643.5 129 c 128,-1,5
 686 178 686 178 686 248 c 0,6,7
 686 301 686 301 648 335 c 128,-1,8
 610 369 610 369 555 381 c 1,9,-1
 444 403 l 1,10,11
 368 422 368 422 319 474 c 128,-1,12
 270 526 270 526 270 600 c 0,13,14
 270 691 270 691 319.5 761 c 128,-1,15
 369 831 369 831 450 868 c 128,-1,16
 531 905 531 905 618 905 c 0,17,18
 711 905 711 905 784.5 860.5 c 128,-1,19
 858 816 858 816 858 729 c 0,20,21
 858 682 858 682 831.5 646 c 128,-1,22
 805 610 805 610 758 610 c 0,23,24
 731 610 731 610 711.5 627.5 c 128,-1,25
 692 645 692 645 692 672 c 0,26,27
 692 696 692 696 705.5 718.5 c 128,-1,28
 719 741 719 741 741.5 754.5 c 128,-1,29
 764 768 764 768 788 768 c 1,30,31
 770 812 770 812 720.5 832 c 128,-1,32
 671 852 671 852 614 852 c 0,33,34
 562 852 562 852 510 831 c 128,-1,35
 458 810 458 810 426.5 769.5 c 128,-1,36
 395 729 395 729 395 674 c 0,37,38
 395 637 395 637 421 609 c 128,-1,39
 447 581 447 581 485 569 c 1,40,-1
 604 545 l 2,41,42
 661 533 661 533 708.5 502.5 c 128,-1,43
 756 472 756 472 783.5 425.5 c 128,-1,44
 811 379 811 379 811 319 c 0,45,46
 811 243 811 243 768.5 169 c 128,-1,47
 726 95 726 95 664 51 c 1,48,49
 555 -23 555 -23 397 -23 c 0,50,51
 288 -23 288 -23 197 27 c 128,-1,52
 106 77 106 77 106 176 c 0,53,54
 106 232 106 232 138.5 273.5 c 128,-1,55
 171 315 171 315 227 315 c 0,56,57
 260 315 260 315 282.5 295 c 128,-1,58
 305 275 305 275 305 242 c 0,59,60
 305 195 305 195 270 160 c 128,-1,61
 235 125 235 125 188 125 c 2,62,-1
 178 125 l 1,0,1
EndSplineSet
EndChar

StartChar: t
Encoding: 116 116 87
Width: 739
GlyphClass: 2
Flags: W
LayerCount: 2
Fore
SplineSet
127 166 m 0,0,1
 127 196 127 196 133 223 c 2,2,-1
 281 811 l 1,3,-1
 66 811 l 2,4,5
 45 811 45 811 45 838 c 1,6,7
 53 883 53 883 72 883 c 2,8,-1
 299 883 l 1,9,-1
 381 1217 l 1,10,11
 389 1244 389 1244 413 1263 c 128,-1,12
 437 1282 437 1282 467 1282 c 0,13,14
 493 1282 493 1282 510.5 1266.5 c 128,-1,15
 528 1251 528 1251 528 1225 c 0,16,17
 528 1219 528 1219 527.5 1215.5 c 128,-1,18
 527 1212 527 1212 526 1208 c 2,19,-1
 444 883 l 1,20,-1
 655 883 l 2,21,22
 676 883 676 883 676 856 c 1,23,24
 675 851 675 851 672 839 c 128,-1,25
 669 827 669 827 664 819 c 128,-1,26
 659 811 659 811 649 811 c 2,27,-1
 426 811 l 1,28,-1
 279 219 l 2,29,30
 264 161 264 161 264 119 c 0,31,32
 264 31 264 31 324 31 c 0,33,34
 414 31 414 31 483.5 115.5 c 128,-1,35
 553 200 553 200 590 301 c 1,36,37
 598 313 598 313 606 313 c 2,38,-1
 631 313 l 2,39,40
 639 313 639 313 644 307.5 c 128,-1,41
 649 302 649 302 649 295 c 0,42,43
 649 291 649 291 647 289 c 1,44,45
 602 165 602 165 516 71 c 128,-1,46
 430 -23 430 -23 319 -23 c 0,47,48
 238 -23 238 -23 182.5 30 c 128,-1,49
 127 83 127 83 127 166 c 0,0,1
EndSplineSet
EndChar

StartChar: u
Encoding: 117 117 88
Width: 1171
GlyphClass: 2
Flags: W
LayerCount: 2
Fore
SplineSet
217 223 m 0,0,1
 217 290 217 290 235 360.5 c 128,-1,2
 253 431 253 431 285.5 517.5 c 128,-1,3
 318 604 318 604 342 668 c 0,4,5
 369 743 369 743 369 791 c 0,6,7
 369 852 369 852 324 852 c 0,8,9
 243 852 243 852 190.5 768.5 c 128,-1,10
 138 685 138 685 113 582 c 0,11,12
 109 569 109 569 96 569 c 2,13,-1
 72 569 l 2,14,15
 55 569 55 569 55 588 c 2,16,-1
 55 594 l 1,17,18
 88 716 88 716 156 810.5 c 128,-1,19
 224 905 224 905 328 905 c 0,20,21
 401 905 401 905 451.5 857 c 128,-1,22
 502 809 502 809 502 735 c 0,23,24
 502 697 502 697 485 655 c 1,25,26
 476 630 476 630 444 546 c 128,-1,27
 412 462 412 462 395 407 c 128,-1,28
 378 352 378 352 367 299 c 128,-1,29
 356 246 356 246 356 193 c 0,30,31
 356 125 356 125 385 78 c 128,-1,32
 414 31 414 31 479 31 c 0,33,34
 610 31 610 31 709 193 c 1,35,36
 711 201 711 201 712.5 208.5 c 128,-1,37
 714 216 714 216 715 223 c 2,38,-1
 862 817 l 2,39,40
 869 844 869 844 894 863.5 c 128,-1,41
 919 883 919 883 948 883 c 0,42,43
 973 883 973 883 991.5 867 c 128,-1,44
 1010 851 1010 851 1010 825 c 0,45,46
 1010 813 1010 813 1008 809 c 2,47,-1
 860 219 l 1,48,49
 846 158 846 158 846 119 c 0,50,51
 846 31 846 31 905 31 c 0,52,53
 971 31 971 31 1003.5 112.5 c 128,-1,54
 1036 194 1036 194 1059 301 c 1,55,56
 1063 313 1063 313 1075 313 c 2,57,-1
 1100 313 l 2,58,59
 1108 313 1108 313 1113 306 c 128,-1,60
 1118 299 1118 299 1118 293 c 1,61,62
 1096 205 1096 205 1075.5 142 c 128,-1,63
 1055 79 1055 79 1011 28 c 128,-1,64
 967 -23 967 -23 901 -23 c 0,65,66
 836 -23 836 -23 784.5 12.5 c 128,-1,67
 733 48 733 48 715 109 c 1,68,69
 668 49 668 49 606 13 c 128,-1,70
 544 -23 544 -23 475 -23 c 0,71,72
 357 -23 357 -23 287 41.5 c 128,-1,73
 217 106 217 106 217 223 c 0,0,1
EndSplineSet
EndChar

StartChar: v
Encoding: 118 118 89
Width: 991
GlyphClass: 2
Flags: W
LayerCount: 2
Fore
SplineSet
219 231 m 0,0,1
 219 277 219 277 230 332 c 128,-1,2
 241 387 241 387 252 422.5 c 128,-1,3
 263 458 263 458 302 561 c 128,-1,4
 341 664 341 664 342 668 c 0,5,6
 369 743 369 743 369 791 c 0,7,8
 369 852 369 852 324 852 c 0,9,10
 243 852 243 852 190.5 768.5 c 128,-1,11
 138 685 138 685 113 582 c 0,12,13
 109 569 109 569 96 569 c 2,14,-1
 72 569 l 2,15,16
 55 569 55 569 55 588 c 2,17,-1
 55 594 l 1,18,19
 88 716 88 716 156 810.5 c 128,-1,20
 224 905 224 905 328 905 c 0,21,22
 401 905 401 905 451.5 857 c 128,-1,23
 502 809 502 809 502 735 c 0,24,25
 502 697 502 697 485 655 c 0,26,27
 445 551 445 551 422 488.5 c 128,-1,28
 399 426 399 426 379.5 348.5 c 128,-1,29
 360 271 360 271 360 205 c 0,30,31
 360 128 360 128 395.5 79.5 c 128,-1,32
 431 31 431 31 506 31 c 0,33,34
 648 31 648 31 762 250 c 0,35,36
 798 321 798 321 830 417 c 128,-1,37
 862 513 862 513 862 573 c 0,38,39
 862 635 862 635 842 669.5 c 128,-1,40
 822 704 822 704 790 741.5 c 128,-1,41
 758 779 758 779 758 801 c 0,42,43
 758 841 758 841 791 874 c 128,-1,44
 824 907 824 907 864 907 c 0,45,46
 913 907 913 907 934.5 862 c 128,-1,47
 956 817 956 817 956 760 c 0,48,49
 956 692 956 692 936.5 598 c 128,-1,50
 917 504 917 504 882.5 403 c 128,-1,51
 848 302 848 302 819 244 c 0,52,53
 684 -23 684 -23 504 -23 c 0,54,55
 375 -23 375 -23 297 41.5 c 128,-1,56
 219 106 219 106 219 231 c 0,0,1
EndSplineSet
EndChar

StartChar: w
Encoding: 119 119 90
Width: 1464
GlyphClass: 2
Flags: W
LayerCount: 2
Fore
SplineSet
221 238 m 0,0,1
 221 281 221 281 232.5 337 c 128,-1,2
 244 393 244 393 258 436.5 c 128,-1,3
 272 480 272 480 305.5 570 c 128,-1,4
 339 660 339 660 342 668 c 0,5,6
 369 743 369 743 369 791 c 0,7,8
 369 852 369 852 324 852 c 0,9,10
 243 852 243 852 190.5 768.5 c 128,-1,11
 138 685 138 685 113 582 c 0,12,13
 109 569 109 569 96 569 c 2,14,-1
 72 569 l 2,15,16
 55 569 55 569 55 588 c 2,17,-1
 55 594 l 1,18,19
 88 716 88 716 156 810.5 c 128,-1,20
 224 905 224 905 328 905 c 0,21,22
 401 905 401 905 451.5 857 c 128,-1,23
 502 809 502 809 502 735 c 0,24,25
 502 697 502 697 485 655 c 0,26,27
 461 593 461 593 428.5 506 c 128,-1,28
 396 419 396 419 378 348 c 128,-1,29
 360 277 360 277 360 211 c 0,30,31
 360 131 360 131 402 81 c 128,-1,32
 444 31 444 31 524 31 c 0,33,34
 633 31 633 31 705 197 c 1,35,36
 702 209 702 209 702 231 c 0,37,38
 702 286 702 286 719 356 c 2,39,-1
 834 817 l 2,40,41
 841 844 841 844 866 863.5 c 128,-1,42
 891 883 891 883 920 883 c 0,43,44
 944 883 944 883 962.5 867 c 128,-1,45
 981 851 981 851 981 825 c 0,46,47
 981 813 981 813 979 809 c 2,48,-1
 864 352 l 2,49,50
 844 270 844 270 844 205 c 0,51,52
 844 128 844 128 879.5 79.5 c 128,-1,53
 915 31 915 31 991 31 c 0,54,55
 1123 31 1123 31 1208 205 c 1,56,57
 1240 267 1240 267 1279.5 388 c 128,-1,58
 1319 509 1319 509 1319 573 c 0,59,60
 1319 632 1319 632 1300 666.5 c 128,-1,61
 1281 701 1281 701 1247.5 741 c 128,-1,62
 1214 781 1214 781 1214 801 c 0,63,64
 1214 840 1214 840 1247.5 873.5 c 128,-1,65
 1281 907 1281 907 1321 907 c 0,66,67
 1370 907 1370 907 1391.5 862 c 128,-1,68
 1413 817 1413 817 1413 760 c 0,69,70
 1413 691 1413 691 1390 584.5 c 128,-1,71
 1367 478 1367 478 1332 370.5 c 128,-1,72
 1297 263 1297 263 1266 199 c 1,73,74
 1154 -23 1154 -23 987 -23 c 0,75,76
 901 -23 901 -23 830 10 c 128,-1,77
 759 43 759 43 725 115 c 1,78,79
 692 56 692 56 638.5 16.5 c 128,-1,80
 585 -23 585 -23 520 -23 c 0,81,82
 385 -23 385 -23 303 41.5 c 128,-1,83
 221 106 221 106 221 238 c 0,0,1
EndSplineSet
EndChar

StartChar: x
Encoding: 120 120 91
Width: 1169
GlyphClass: 2
Flags: W
LayerCount: 2
Fore
SplineSet
160 59 m 1,0,1
 196 31 196 31 262 31 c 0,2,3
 326 31 326 31 375 92.5 c 128,-1,4
 424 154 424 154 442 227 c 2,5,-1
 535 590 l 1,6,7
 557 689 557 689 557 725 c 0,8,9
 557 776 557 776 528.5 814 c 128,-1,10
 500 852 500 852 449 852 c 0,11,12
 384 852 384 852 327 811.5 c 128,-1,13
 270 771 270 771 231 708.5 c 128,-1,14
 192 646 192 646 176 582 c 0,15,16
 172 569 172 569 160 569 c 2,17,-1
 135 569 l 2,18,19
 119 569 119 569 119 588 c 2,20,-1
 119 594 l 1,21,22
 139 670 139 670 187 742.5 c 128,-1,23
 235 815 235 815 304.5 860 c 128,-1,24
 374 905 374 905 453 905 c 0,25,26
 528 905 528 905 588.5 865 c 128,-1,27
 649 825 649 825 674 756 c 1,28,29
 709 819 709 819 763.5 862 c 128,-1,30
 818 905 818 905 883 905 c 0,31,32
 927 905 927 905 973 889.5 c 128,-1,33
 1019 874 1019 874 1048 842 c 128,-1,34
 1077 810 1077 810 1077 762 c 0,35,36
 1077 710 1077 710 1043.5 672.5 c 128,-1,37
 1010 635 1010 635 958 635 c 0,38,39
 925 635 925 635 903 656 c 128,-1,40
 881 677 881 677 881 709 c 0,41,42
 881 752 881 752 910.5 784.5 c 128,-1,43
 940 817 940 817 981 823 c 1,44,45
 944 852 944 852 879 852 c 0,46,47
 813 852 813 852 764.5 791 c 128,-1,48
 716 730 716 730 696 655 c 1,49,-1
 606 293 l 1,50,51
 584 211 584 211 584 158 c 0,52,53
 584 106 584 106 613.5 68.5 c 128,-1,54
 643 31 643 31 692 31 c 0,55,56
 788 31 788 31 863.5 115.5 c 128,-1,57
 939 200 939 200 963 301 c 1,58,59
 967 313 967 313 979 313 c 2,60,-1
 1004 313 l 2,61,62
 1012 313 1012 313 1017 307.5 c 128,-1,63
 1022 302 1022 302 1022 295 c 0,64,65
 1022 293 1022 293 1020 289 c 1,66,67
 991 167 991 167 898 72 c 128,-1,68
 805 -23 805 -23 688 -23 c 0,69,70
 613 -23 613 -23 552.5 17.5 c 128,-1,71
 492 58 492 58 467 127 c 1,72,73
 435 67 435 67 378.5 22 c 128,-1,74
 322 -23 322 -23 258 -23 c 0,75,76
 214 -23 214 -23 167.5 -7.5 c 128,-1,77
 121 8 121 8 92 40 c 128,-1,78
 63 72 63 72 63 121 c 0,79,80
 63 169 63 169 96.5 208.5 c 128,-1,81
 130 248 130 248 180 248 c 0,82,83
 214 248 214 248 237 227.5 c 128,-1,84
 260 207 260 207 260 174 c 0,85,86
 260 131 260 131 231.5 99 c 128,-1,87
 203 67 203 67 160 59 c 1,0,1
EndSplineSet
EndChar

StartChar: y
Encoding: 121 121 92
Width: 1004
GlyphClass: 2
Flags: W
LayerCount: 2
Fore
SplineSet
172 -293 m 1,0,1
 215 -367 215 -367 322 -367 c 0,2,3
 419 -367 419 -367 490 -299 c 128,-1,4
 561 -231 561 -231 604.5 -134.5 c 128,-1,5
 648 -38 648 -38 672 63 c 1,6,7
 581 -23 581 -23 475 -23 c 0,8,9
 394 -23 394 -23 337 5 c 128,-1,10
 280 33 280 33 248.5 88.5 c 128,-1,11
 217 144 217 144 217 223 c 0,12,13
 217 290 217 290 235 360.5 c 128,-1,14
 253 431 253 431 285.5 517.5 c 128,-1,15
 318 604 318 604 342 668 c 0,16,17
 369 743 369 743 369 791 c 0,18,19
 369 852 369 852 324 852 c 0,20,21
 243 852 243 852 190.5 768.5 c 128,-1,22
 138 685 138 685 113 582 c 0,23,24
 109 569 109 569 96 569 c 2,25,-1
 72 569 l 2,26,27
 55 569 55 569 55 588 c 2,28,-1
 55 594 l 1,29,30
 88 716 88 716 156 810.5 c 128,-1,31
 224 905 224 905 328 905 c 0,32,33
 401 905 401 905 451.5 857 c 128,-1,34
 502 809 502 809 502 735 c 0,35,36
 502 697 502 697 485 655 c 1,37,38
 476 630 476 630 444 546 c 128,-1,39
 412 462 412 462 395 407 c 128,-1,40
 378 352 378 352 367 299 c 128,-1,41
 356 246 356 246 356 193 c 0,42,43
 356 125 356 125 385 78 c 128,-1,44
 414 31 414 31 477 31 c 0,45,46
 604 31 604 31 705 186 c 1,47,-1
 860 817 l 2,48,49
 867 844 867 844 892 863.5 c 128,-1,50
 917 883 917 883 946 883 c 0,51,52
 971 883 971 883 989.5 867 c 128,-1,53
 1008 851 1008 851 1008 825 c 0,54,55
 1008 813 1008 813 1006 809 c 2,56,-1
 803 -6 l 2,57,58
 776 -111 776 -111 704 -207 c 128,-1,59
 632 -303 632 -303 530.5 -361.5 c 128,-1,60
 429 -420 429 -420 319 -420 c 0,61,62
 266 -420 266 -420 214 -399.5 c 128,-1,63
 162 -379 162 -379 130 -338 c 128,-1,64
 98 -297 98 -297 98 -242 c 0,65,66
 98 -186 98 -186 131 -145 c 128,-1,67
 164 -104 164 -104 219 -104 c 0,68,69
 252 -104 252 -104 274.5 -124.5 c 128,-1,70
 297 -145 297 -145 297 -178 c 0,71,72
 297 -225 297 -225 262 -260 c 128,-1,73
 227 -295 227 -295 180 -295 c 1,74,75
 178 -294 178 -294 176 -293.5 c 128,-1,76
 174 -293 174 -293 172 -293 c 1,0,1
EndSplineSet
EndChar

StartChar: z
Encoding: 122 122 93
Width: 952
GlyphClass: 2
Flags: W
LayerCount: 2
Fore
SplineSet
100 -23 m 2,0,1
 84 -23 84 -23 84 -4 c 0,2,3
 84 6 84 6 88 10 c 1,4,5
 143 105 143 105 220.5 191.5 c 128,-1,6
 298 278 298 278 396.5 366.5 c 128,-1,7
 495 455 495 455 594.5 544 c 128,-1,8
 694 633 694 633 756 702 c 1,9,-1
 748 702 l 2,10,11
 703 702 703 702 616 731 c 128,-1,12
 529 760 529 760 479 760 c 0,13,14
 425 760 425 760 374 736.5 c 128,-1,15
 323 713 323 713 309 664 c 1,16,17
 306 649 306 649 293 649 c 2,18,-1
 268 649 l 2,19,20
 252 649 252 649 252 670 c 2,21,-1
 252 676 l 1,22,23
 268 736 268 736 304.5 788 c 128,-1,24
 341 840 341 840 394.5 872.5 c 128,-1,25
 448 905 448 905 506 905 c 0,26,27
 547 905 547 905 574 886.5 c 128,-1,28
 601 868 601 868 637 829 c 128,-1,29
 673 790 673 790 695.5 773 c 128,-1,30
 718 756 718 756 752 756 c 0,31,32
 797 756 797 756 832.5 797 c 128,-1,33
 868 838 868 838 903 899 c 1,34,35
 909 905 909 905 918 905 c 2,36,-1
 942 905 l 2,37,38
 949 905 949 905 953.5 900 c 128,-1,39
 958 895 958 895 958 887 c 0,40,41
 958 880 958 880 954 874 c 0,42,43
 899 779 899 779 825.5 696.5 c 128,-1,44
 752 614 752 614 633.5 507.5 c 128,-1,45
 515 401 515 401 433.5 327.5 c 128,-1,46
 352 254 352 254 281 176 c 1,47,48
 297 180 297 180 324 180 c 0,49,50
 374 180 374 180 460.5 151.5 c 128,-1,51
 547 123 547 123 594 123 c 0,52,53
 645 123 645 123 697 145 c 128,-1,54
 749 167 749 167 787 207 c 128,-1,55
 825 247 825 247 838 299 c 1,56,57
 843 313 843 313 854 313 c 2,58,-1
 879 313 l 2,59,60
 887 313 887 313 892 306.5 c 128,-1,61
 897 300 897 300 897 293 c 0,62,63
 897 291 897 291 895 287 c 0,64,65
 876 209 876 209 829 138.5 c 128,-1,66
 782 68 782 68 713.5 22.5 c 128,-1,67
 645 -23 645 -23 567 -23 c 0,68,69
 528 -23 528 -23 501 -5 c 128,-1,70
 474 13 474 13 437.5 52.5 c 128,-1,71
 401 92 401 92 378 109.5 c 128,-1,72
 355 127 355 127 322 127 c 0,73,74
 220 127 220 127 139 -16 c 1,75,76
 132 -23 132 -23 125 -23 c 2,77,-1
 100 -23 l 2,0,1
EndSplineSet
EndChar

StartChar: braceleft
Encoding: 123 123 94
Width: 659
GlyphClass: 2
Flags: W
LayerCount: 2
Fore
SplineSet
160 147 m 0,0,1
 160 185 160 185 176 227 c 2,2,-1
 342 668 l 1,3,4
 369 743 369 743 369 791 c 0,5,6
 369 852 369 852 324 852 c 0,7,8
 243 852 243 852 190.5 768.5 c 128,-1,9
 138 685 138 685 113 582 c 0,10,11
 109 569 109 569 96 569 c 2,12,-1
 72 569 l 2,13,14
 55 569 55 569 55 588 c 2,15,-1
 55 594 l 1,16,17
 88 716 88 716 156 810.5 c 128,-1,18
 224 905 224 905 328 905 c 0,19,20
 401 905 401 905 451.5 857 c 128,-1,21
 502 809 502 809 502 735 c 0,22,23
 502 697 502 697 485 655 c 1,24,-1
 319 215 l 1,25,26
 291 147 291 147 291 92 c 0,27,28
 291 31 291 31 338 31 c 0,29,30
 418 31 418 31 471.5 116.5 c 128,-1,31
 525 202 525 202 547 301 c 1,32,33
 551 313 551 313 563 313 c 2,34,-1
 588 313 l 2,35,36
 596 313 596 313 601 307.5 c 128,-1,37
 606 302 606 302 606 295 c 0,38,39
 606 293 606 293 604 289 c 1,40,41
 576 173 576 173 506.5 75 c 128,-1,42
 437 -23 437 -23 334 -23 c 0,43,44
 262 -23 262 -23 211 26.5 c 128,-1,45
 160 76 160 76 160 147 c 0,0,1
EndSplineSet
EndChar

StartChar: bar
Encoding: 124 124 95
Width: 786
GlyphClass: 2
Flags: W
LayerCount: 2
Fore
SplineSet
-27 -291 m 0,0,1
 -27 -241 -27 -241 7.5 -204.5 c 128,-1,2
 42 -168 42 -168 92 -168 c 0,3,4
 125 -168 125 -168 147.5 -188.5 c 128,-1,5
 170 -209 170 -209 170 -242 c 0,6,7
 170 -278 170 -278 146.5 -310 c 128,-1,8
 123 -342 123 -342 88 -352 c 1,9,10
 131 -367 131 -367 174 -367 c 0,11,12
 257 -367 257 -367 314.5 -286 c 128,-1,13
 372 -205 372 -205 397 -106 c 2,14,-1
 590 664 l 2,15,16
 604 723 604 723 604 764 c 0,17,18
 604 852 604 852 543 852 c 0,19,20
 453 852 453 852 385.5 770.5 c 128,-1,21
 318 689 318 689 276 582 c 1,22,23
 272 569 272 569 260 569 c 2,24,-1
 236 569 l 2,25,26
 219 569 219 569 219 588 c 2,27,-1
 219 594 l 1,28,29
 265 717 265 717 350 811 c 128,-1,30
 435 905 435 905 547 905 c 0,31,32
 632 905 632 905 686.5 852 c 128,-1,33
 741 799 741 799 741 717 c 0,34,35
 741 688 741 688 735 659 c 1,36,-1
 541 -119 l 2,37,38
 520 -200 520 -200 465 -268.5 c 128,-1,39
 410 -337 410 -337 332 -378.5 c 128,-1,40
 254 -420 254 -420 170 -420 c 0,41,42
 97 -420 97 -420 35 -388.5 c 128,-1,43
 -27 -357 -27 -357 -27 -291 c 0,0,1
EndSplineSet
EndChar

StartChar: braceright
Encoding: 125 125 96
Width: 1303
GlyphClass: 2
Flags: W
LayerCount: 2
Fore
SplineSet
293 -442 m 0,0,1
 218 -442 218 -442 185 -392.5 c 128,-1,2
 152 -343 152 -343 152 -268 c 0,3,4
 152 -177 152 -177 179.5 -61 c 128,-1,5
 207 55 207 55 246 160 c 1,6,7
 219 194 219 194 201 227.5 c 128,-1,8
 183 261 183 261 175.5 293 c 128,-1,9
 168 325 168 325 168 373 c 0,10,11
 168 465 168 465 213 600.5 c 128,-1,12
 258 736 258 736 336.5 832 c 128,-1,13
 415 928 415 928 510 928 c 0,14,15
 530 928 530 928 530 907 c 1,16,17
 524 874 524 874 510 874 c 0,18,19
 444 874 444 874 389 793 c 128,-1,20
 334 712 334 712 302 604 c 128,-1,21
 270 496 270 496 270 432 c 0,22,23
 270 357 270 357 309 305 c 1,24,25
 378 445 378 445 482 567 c 128,-1,26
 586 689 586 689 718.5 764.5 c 128,-1,27
 851 840 851 840 999 840 c 0,28,29
 1125 840 1125 840 1197.5 749 c 128,-1,30
 1270 658 1270 658 1270 530 c 0,31,32
 1270 405 1270 405 1205 276.5 c 128,-1,33
 1140 148 1140 148 1030 62.5 c 128,-1,34
 920 -23 920 -23 795 -23 c 0,35,36
 718 -23 718 -23 665 27 c 128,-1,37
 612 77 612 77 612 152 c 0,38,39
 612 250 612 250 674 250 c 0,40,41
 693 250 693 250 705 238.5 c 128,-1,42
 717 227 717 227 717 209 c 0,43,44
 717 189 717 189 704.5 174 c 128,-1,45
 692 159 692 159 672 154 c 1,46,47
 672 101 672 101 708.5 66 c 128,-1,48
 745 31 745 31 799 31 c 0,49,50
 901 31 901 31 978.5 129.5 c 128,-1,51
 1056 228 1056 228 1096.5 364.5 c 128,-1,52
 1137 501 1137 501 1137 598 c 0,53,54
 1137 675 1137 675 1102.5 730.5 c 128,-1,55
 1068 786 1068 786 995 786 c 0,56,57
 788 786 788 786 620 631 c 128,-1,58
 452 476 452 476 348 256 c 1,59,-1
 522 33 l 2,60,61
 561 -17 561 -17 561 -96 c 0,62,63
 561 -168 561 -168 526 -249.5 c 128,-1,64
 491 -331 491 -331 429 -386.5 c 128,-1,65
 367 -442 367 -442 293 -442 c 0,0,1
295 -389 m 0,66,67
 342 -389 342 -389 379 -350.5 c 128,-1,68
 416 -312 416 -312 437.5 -258 c 128,-1,69
 459 -204 459 -204 459 -158 c 256,70,71
 459 -112 459 -112 436 -82 c 2,72,-1
 289 106 l 1,73,74
 255 4 255 4 231 -99 c 128,-1,75
 207 -202 207 -202 207 -272 c 0,76,77
 207 -389 207 -389 295 -389 c 0,66,67
EndSplineSet
EndChar

StartChar: asciitilde
Encoding: 126 126 97
Width: 1024
GlyphClass: 2
Flags: W
LayerCount: 2
Fore
SplineSet
410 1219 m 2,0,1
 394 1219 394 1219 383.5 1231 c 128,-1,2
 373 1243 373 1243 373 1260 c 0,3,4
 373 1275 373 1275 383.5 1287.5 c 128,-1,5
 394 1300 394 1300 410 1300 c 2,6,-1
 1135 1300 l 1,7,8
 1081 1373 1081 1373 1081 1421 c 0,9,10
 1081 1439 1081 1439 1093.5 1450.5 c 128,-1,11
 1106 1462 1106 1462 1122 1462 c 0,12,13
 1156 1462 1156 1462 1163 1430 c 0,14,15
 1183 1342 1183 1342 1260 1294 c 0,16,17
 1280 1281 1280 1281 1280 1260 c 0,18,19
 1280 1235 1280 1235 1260 1225 c 0,20,21
 1144 1167 1144 1167 1073 1071 c 1,22,23
 1065 1057 1065 1057 1042 1057 c 0,24,25
 1027 1057 1027 1057 1014 1069 c 128,-1,26
 1001 1081 1001 1081 1001 1098 c 0,27,28
 1001 1135 1001 1135 1100 1219 c 1,29,-1
 410 1219 l 2,0,1
EndSplineSet
EndChar

StartChar: uni0080
Encoding: 128 128 98
Width: 1364
GlyphClass: 2
Flags: W
LayerCount: 2
Fore
SplineSet
115 45 m 1,0,1
 118 74 118 74 147 94 c 2,2,-1
 403 266 l 1,3,4
 437 311 437 311 481.5 397.5 c 128,-1,5
 526 484 526 484 557 570 c 128,-1,6
 588 656 588 656 588 707 c 0,7,8
 588 718 588 718 586 727.5 c 128,-1,9
 584 737 584 737 578 737 c 0,10,11
 508 737 508 737 434 721 c 128,-1,12
 360 705 360 705 334 668 c 1,13,14
 330 660 330 660 327 653.5 c 128,-1,15
 324 647 324 647 320 643 c 128,-1,16
 316 639 316 639 307 639 c 2,17,-1
 289 639 l 2,18,19
 268 639 268 639 268 666 c 1,20,21
 293 766 293 766 393 824.5 c 128,-1,22
 493 883 493 883 602 883 c 0,23,24
 637 883 637 883 647 855 c 128,-1,25
 657 827 657 827 657 782 c 0,26,27
 657 685 657 685 614 562.5 c 128,-1,28
 571 440 571 440 510 338 c 1,29,-1
 1282 854 l 2,30,31
 1344 895 1344 895 1401 895 c 0,32,33
 1431 895 1431 895 1450.5 880.5 c 128,-1,34
 1470 866 1470 866 1470 838 c 1,35,36
 1465 807 1465 807 1438 788 c 2,37,-1
 1182 616 l 1,38,39
 1149 572 1149 572 1104 485.5 c 128,-1,40
 1059 399 1059 399 1028 313 c 128,-1,41
 997 227 997 227 997 176 c 0,42,43
 997 145 997 145 1008 145 c 0,44,45
 1071 145 1071 145 1148.5 162 c 128,-1,46
 1226 179 1226 179 1251 215 c 0,47,48
 1253 217 1253 217 1259.5 230.5 c 128,-1,49
 1266 244 1266 244 1276 244 c 2,50,-1
 1294 244 l 2,51,52
 1305 244 1305 244 1310 236 c 128,-1,53
 1315 228 1315 228 1315 217 c 1,54,55
 1298 150 1298 150 1246 101 c 128,-1,56
 1194 52 1194 52 1124 26 c 128,-1,57
 1054 0 1054 0 983 0 c 0,58,59
 926 0 926 0 926 100 c 0,60,61
 926 196 926 196 970 319 c 128,-1,62
 1014 442 1014 442 1073 545 c 1,63,-1
 303 29 l 2,64,65
 241 -12 241 -12 184 -12 c 0,66,67
 157 -12 157 -12 136 2.5 c 128,-1,68
 115 17 115 17 115 45 c 1,0,1
EndSplineSet
EndChar

StartChar: exclamdown
Encoding: 161 161 100
Width: 1260
GlyphClass: 2
Flags: W
LayerCount: 2
Fore
SplineSet
96 0 m 2,0,1
 76 0 76 0 76 27 c 1,2,3
 77 32 77 32 80 44.5 c 128,-1,4
 83 57 83 57 88.5 64.5 c 128,-1,5
 94 72 94 72 102 72 c 0,6,7
 227 72 227 72 276 86 c 1,8,9
 303 95 303 95 315 141 c 2,10,-1
 596 1266 l 2,11,12
 600 1286 600 1286 600 1294 c 0,13,14
 600 1316 600 1316 575 1319 c 1,15,16
 537 1327 537 1327 428 1327 c 0,17,18
 408 1327 408 1327 408 1354 c 1,19,20
 409 1359 409 1359 412 1371.5 c 128,-1,21
 415 1384 415 1384 420.5 1391.5 c 128,-1,22
 426 1399 426 1399 434 1399 c 2,23,-1
 1458 1399 l 2,24,25
 1479 1399 1479 1399 1479 1372 c 1,26,-1
 1430 948 l 2,27,28
 1430 943 1430 943 1422.5 936.5 c 128,-1,29
 1415 930 1415 930 1409 930 c 2,30,-1
 1391 930 l 2,31,32
 1370 930 1370 930 1370 956 c 1,33,34
 1382 1060 1382 1060 1382 1116 c 0,35,36
 1382 1216 1382 1216 1343 1261.5 c 128,-1,37
 1304 1307 1304 1307 1243 1317 c 128,-1,38
 1182 1327 1182 1327 1071 1327 c 2,39,-1
 881 1327 l 2,40,41
 825 1327 825 1327 807 1317.5 c 128,-1,42
 789 1308 789 1308 774 1257 c 1,43,-1
 494 133 l 2,44,45
 489 113 489 113 489 113 c 1,46,47
 489 89 489 89 504 86 c 0,48,49
 557 72 557 72 713 72 c 0,50,51
 733 72 733 72 733 45 c 1,52,53
 726 16 726 16 722 8 c 128,-1,54
 718 0 718 0 698 0 c 2,55,-1
 96 0 l 2,0,1
EndSplineSet
EndChar

StartChar: cent
Encoding: 162 162 101
Width: 1706
GlyphClass: 2
Flags: W
LayerCount: 2
Fore
SplineSet
98 12 m 0,0,1
 98 13 98 13 102 23 c 1,2,-1
 1161 1444 l 1,3,4
 1185 1466 1185 1466 1204 1466 c 2,5,-1
 1233 1466 l 2,6,7
 1244 1466 1244 1466 1253 1460.5 c 128,-1,8
 1262 1455 1262 1455 1264 1444 c 2,9,-1
 1614 20 l 1,10,11
 1614 0 1614 0 1593 0 c 2,12,-1
 111 0 l 2,13,14
 98 0 98 0 98 12 c 0,0,1
281 154 m 1,15,-1
 1382 154 l 1,16,-1
 1108 1266 l 1,17,-1
 281 154 l 1,15,-1
EndSplineSet
EndChar

StartChar: sterling
Encoding: 163 163 102
Width: 1561
GlyphClass: 2
Flags: W
LayerCount: 2
Fore
SplineSet
623 -45 m 0,0,1
 469 -45 469 -45 350 25.5 c 128,-1,2
 231 96 231 96 166.5 221.5 c 128,-1,3
 102 347 102 347 102 500 c 0,4,5
 102 723 102 723 228.5 944 c 128,-1,6
 355 1165 355 1165 562 1304.5 c 128,-1,7
 769 1444 769 1444 995 1444 c 0,8,9
 1112 1444 1112 1444 1209 1402 c 128,-1,10
 1306 1360 1306 1360 1373 1285.5 c 128,-1,11
 1440 1211 1440 1211 1476.5 1111 c 128,-1,12
 1513 1011 1513 1011 1513 893 c 0,13,14
 1513 724 1513 724 1441 556.5 c 128,-1,15
 1369 389 1369 389 1241.5 251.5 c 128,-1,16
 1114 114 1114 114 955 34.5 c 128,-1,17
 796 -45 796 -45 623 -45 c 0,0,1
637 10 m 0,18,19
 748 10 748 10 850.5 63.5 c 128,-1,20
 953 117 953 117 1040 207 c 0,21,22
 1128 298 1128 298 1194 425 c 128,-1,23
 1260 552 1260 552 1295.5 692 c 128,-1,24
 1331 832 1331 832 1331 961 c 0,25,26
 1331 1072 1331 1072 1292.5 1171.5 c 128,-1,27
 1254 1271 1254 1271 1175 1331 c 128,-1,28
 1096 1391 1096 1391 981 1391 c 0,29,30
 869 1391 869 1391 767 1335.5 c 128,-1,31
 665 1280 665 1280 575 1190 c 1,32,33
 488 1097 488 1097 423 971 c 128,-1,34
 358 845 358 845 321.5 702.5 c 128,-1,35
 285 560 285 560 285 434 c 0,36,37
 285 322 285 322 324 225 c 128,-1,38
 363 128 363 128 442.5 69 c 128,-1,39
 522 10 522 10 637 10 c 0,18,19
428 555 m 2,40,41
 408 555 408 555 408 582 c 1,42,-1
 471 829 l 2,43,44
 475 848 475 848 492 848 c 2,45,-1
 510 848 l 2,46,47
 530 848 530 848 530 821 c 1,48,-1
 518 778 l 1,49,-1
 1137 778 l 1,50,-1
 1151 829 l 1,51,52
 1155 848 1155 848 1171 848 c 2,53,-1
 1190 848 l 2,54,55
 1210 848 1210 848 1210 821 c 1,56,-1
 1147 573 l 2,57,58
 1143 555 1143 555 1126 555 c 2,59,-1
 1108 555 l 2,60,61
 1087 555 1087 555 1087 582 c 1,62,-1
 1100 625 l 1,63,-1
 481 625 l 1,64,-1
 467 573 l 2,65,66
 463 555 463 555 446 555 c 2,67,-1
 428 555 l 2,40,41
EndSplineSet
EndChar

StartChar: currency
Encoding: 164 164 103
Width: 1421
GlyphClass: 2
Flags: W
LayerCount: 2
Fore
SplineSet
90 0 m 2,0,1
 72 0 72 0 72 27 c 1,2,3
 75 48 75 48 79 60 c 128,-1,4
 83 72 83 72 98 72 c 0,5,6
 171 72 171 72 227.5 107.5 c 128,-1,7
 284 143 284 143 317 205 c 1,8,9
 324 212 324 212 324 211 c 2,10,-1
 1026 1444 l 1,11,12
 1037 1466 1037 1466 1063 1466 c 2,13,-1
 1090 1466 l 2,14,15
 1100 1466 1100 1466 1108 1460.5 c 128,-1,16
 1116 1455 1116 1455 1116 1444 c 2,17,-1
 1206 119 l 1,18,19
 1214 89 1214 89 1252 80.5 c 128,-1,20
 1290 72 1290 72 1346 72 c 0,21,22
 1366 72 1366 72 1366 45 c 1,23,24
 1359 16 1359 16 1355 8 c 128,-1,25
 1351 0 1351 0 1331 0 c 2,26,-1
 838 0 l 2,27,28
 817 0 817 0 817 27 c 1,29,30
 818 32 818 32 821 44 c 128,-1,31
 824 56 824 56 829 64 c 128,-1,32
 834 72 834 72 844 72 c 0,33,34
 1010 72 1010 72 1020 129 c 1,35,-1
 946 1174 l 1,36,-1
 389 190 l 1,37,38
 375 169 375 169 375 143 c 0,39,40
 375 106 375 106 410.5 89 c 128,-1,41
 446 72 446 72 487 72 c 0,42,43
 508 72 508 72 508 45 c 1,44,45
 501 16 501 16 497 8 c 128,-1,46
 493 0 493 0 473 0 c 2,47,-1
 90 0 l 2,0,1
EndSplineSet
EndChar

StartChar: yen
Encoding: 165 165 104
Width: 1520
GlyphClass: 2
Flags: W
LayerCount: 2
Fore
SplineSet
129 0 m 2,0,1
 109 0 109 0 109 27 c 1,2,-1
 166 322 l 2,3,4
 168 329 168 329 173.5 334.5 c 128,-1,5
 179 340 179 340 186 340 c 2,6,-1
 205 340 l 2,7,8
 225 340 225 340 225 313 c 1,9,10
 206 228 206 228 203 166 c 0,11,12
 203 150 203 150 207 150 c 2,13,-1
 1223 150 l 1,14,15
 1236 153 1236 153 1249 181.5 c 128,-1,16
 1262 210 1262 210 1278 260 c 128,-1,17
 1294 310 1294 310 1298 322 c 0,18,19
 1300 329 1300 329 1305.5 334.5 c 128,-1,20
 1311 340 1311 340 1319 340 c 2,21,-1
 1337 340 l 2,22,23
 1358 340 1358 340 1358 313 c 1,24,-1
 1268 18 l 1,25,26
 1259 0 1259 0 1247 0 c 2,27,-1
 129 0 l 2,0,1
449 553 m 2,28,29
 428 553 428 553 428 580 c 1,30,-1
 506 885 l 2,31,32
 510 903 510 903 526 903 c 2,33,-1
 545 903 l 2,34,35
 565 903 565 903 565 877 c 1,36,-1
 545 799 l 1,37,-1
 1219 799 l 1,38,-1
 1241 885 l 2,39,40
 1245 903 1245 903 1262 903 c 2,41,-1
 1280 903 l 2,42,43
 1300 903 1300 903 1300 877 c 1,44,-1
 1223 571 l 2,45,46
 1219 553 1219 553 1202 553 c 2,47,-1
 1184 553 l 2,48,49
 1163 553 1163 553 1163 580 c 1,50,-1
 1184 657 l 1,51,-1
 510 657 l 1,52,-1
 487 571 l 2,53,54
 483 553 483 553 467 553 c 2,55,-1
 449 553 l 2,28,29
393 1081 m 2,56,57
 373 1081 373 1081 373 1108 c 1,58,-1
 457 1380 l 1,59,60
 461 1399 461 1399 477 1399 c 2,61,-1
 1575 1399 l 2,62,63
 1595 1399 1595 1399 1595 1372 c 1,64,-1
 1544 1100 l 2,65,66
 1542 1093 1542 1093 1536 1087 c 128,-1,67
 1530 1081 1530 1081 1524 1081 c 2,68,-1
 1505 1081 l 2,69,70
 1485 1081 1485 1081 1485 1108 c 1,71,72
 1501 1212 1501 1212 1501 1233 c 2,73,-1
 1501 1249 l 1,74,-1
 498 1249 l 1,75,76
 490 1248 490 1248 478.5 1227 c 128,-1,77
 467 1206 467 1206 460 1186 c 128,-1,78
 453 1166 453 1166 444 1138.5 c 128,-1,79
 435 1111 435 1111 432 1100 c 1,80,81
 423 1081 423 1081 412 1081 c 2,82,-1
 393 1081 l 2,56,57
EndSplineSet
EndChar

StartChar: brokenbar
Encoding: 166 166 105
Width: 1702
GlyphClass: 2
Flags: W
LayerCount: 2
Fore
SplineSet
96 0 m 2,0,1
 76 0 76 0 76 27 c 1,2,3
 77 32 77 32 80 44.5 c 128,-1,4
 83 57 83 57 88.5 64.5 c 128,-1,5
 94 72 94 72 102 72 c 0,6,7
 227 72 227 72 276 86 c 1,8,9
 303 95 303 95 315 141 c 2,10,-1
 596 1266 l 2,11,12
 600 1286 600 1286 600 1294 c 0,13,14
 600 1316 600 1316 575 1319 c 1,15,16
 537 1327 537 1327 428 1327 c 0,17,18
 408 1327 408 1327 408 1354 c 1,19,20
 409 1359 409 1359 412 1371.5 c 128,-1,21
 415 1384 415 1384 420.5 1391.5 c 128,-1,22
 426 1399 426 1399 434 1399 c 2,23,-1
 1788 1399 l 2,24,25
 1808 1399 1808 1399 1808 1372 c 1,26,27
 1807 1367 1807 1367 1804 1354.5 c 128,-1,28
 1801 1342 1801 1342 1795.5 1334.5 c 128,-1,29
 1790 1327 1790 1327 1782 1327 c 0,30,31
 1657 1327 1657 1327 1608 1313 c 1,32,33
 1581 1304 1581 1304 1569 1257 c 2,34,-1
 1288 133 l 2,35,36
 1284 113 1284 113 1284 104 c 0,37,38
 1284 83 1284 83 1309 80 c 1,39,40
 1348 72 1348 72 1456 72 c 0,41,42
 1477 72 1477 72 1477 45 c 1,43,44
 1471 21 1471 21 1465 10.5 c 128,-1,45
 1459 0 1459 0 1442 0 c 2,46,-1
 891 0 l 2,47,48
 870 0 870 0 870 27 c 1,49,50
 874 42 874 42 876 49 c 128,-1,51
 878 56 878 56 883.5 64 c 128,-1,52
 889 72 889 72 897 72 c 0,53,54
 1022 72 1022 72 1071 86 c 1,55,56
 1098 95 1098 95 1110 141 c 2,57,-1
 1407 1327 l 1,58,-1
 793 1327 l 1,59,-1
 494 133 l 1,60,61
 489 108 489 108 489 104 c 0,62,63
 489 83 489 83 514 80 c 1,64,65
 553 72 553 72 662 72 c 0,66,67
 682 72 682 72 682 45 c 1,68,69
 675 18 675 18 670.5 9 c 128,-1,70
 666 0 666 0 647 0 c 2,71,-1
 96 0 l 2,0,1
EndSplineSet
EndChar

StartChar: section
Encoding: 167 167 106
Width: 1595
GlyphClass: 2
Flags: W
LayerCount: 2
Fore
SplineSet
141 0 m 2,0,1
 121 0 121 0 121 23 c 0,2,3
 121 33 121 33 129 41 c 2,4,-1
 776 623 l 1,5,-1
 455 1341 l 1,6,7
 453 1348 453 1348 453 1354 c 1,8,9
 461 1399 461 1399 479 1399 c 2,10,-1
 1628 1399 l 2,11,12
 1649 1399 1649 1399 1649 1372 c 1,13,-1
 1599 948 l 2,14,15
 1599 942 1599 942 1592 936 c 128,-1,16
 1585 930 1585 930 1579 930 c 2,17,-1
 1561 930 l 2,18,19
 1540 930 1540 930 1540 956 c 1,20,21
 1548 1030 1548 1030 1548 1067 c 0,22,23
 1548 1174 1548 1174 1510.5 1232.5 c 128,-1,24
 1473 1291 1473 1291 1374 1311 c 0,25,26
 1317 1322 1317 1322 1249.5 1324.5 c 128,-1,27
 1182 1327 1182 1327 1079 1327 c 2,28,-1
 672 1327 l 1,29,-1
 948 709 l 1,30,31
 950 702 950 702 950 700 c 0,32,33
 950 687 950 687 942 682 c 1,34,-1
 289 92 l 1,35,-1
 748 92 l 2,36,37
 918 92 918 92 1008.5 100.5 c 128,-1,38
 1099 109 1099 109 1172 143 c 128,-1,39
 1245 177 1245 177 1305 253.5 c 128,-1,40
 1365 330 1365 330 1419 471 c 1,41,42
 1428 489 1428 489 1440 489 c 2,43,-1
 1458 489 l 2,44,45
 1479 489 1479 489 1479 463 c 1,46,-1
 1311 18 l 1,47,48
 1302 0 1302 0 1290 0 c 2,49,-1
 141 0 l 2,0,1
EndSplineSet
EndChar

StartChar: dieresis
Encoding: 168 168 107
Width: 1194
GlyphClass: 2
Flags: W
LayerCount: 2
Fore
SplineSet
113 27 m 1,0,1
 114 32 114 32 117.5 45 c 128,-1,2
 121 58 121 58 126.5 65 c 128,-1,3
 132 72 132 72 141 72 c 0,4,5
 293 72 293 72 344 82 c 0,6,7
 392 91 392 91 406 141 c 1,8,-1
 545 705 l 1,9,10
 563 752 563 752 575.5 844.5 c 128,-1,11
 588 937 588 937 588 993 c 0,12,13
 588 1072 588 1072 568.5 1138 c 128,-1,14
 549 1204 549 1204 500 1246 c 128,-1,15
 451 1288 451 1288 371 1288 c 0,16,17
 318 1288 318 1288 267.5 1266.5 c 128,-1,18
 217 1245 217 1245 180 1207 c 128,-1,19
 143 1169 143 1169 131 1118 c 1,20,21
 124 1096 124 1096 102 1096 c 2,22,-1
 76 1096 l 2,23,24
 57 1096 57 1096 57 1114 c 0,25,26
 57 1155 57 1155 102.5 1229 c 128,-1,27
 148 1303 148 1303 184 1339 c 0,28,29
 233 1388 233 1388 291.5 1416 c 128,-1,30
 350 1444 350 1444 410 1444 c 0,31,32
 517 1444 517 1444 582.5 1387.5 c 128,-1,33
 648 1331 648 1331 674 1241.5 c 128,-1,34
 700 1152 700 1152 700 1047 c 0,35,36
 700 996 700 996 694 940 c 1,37,38
 749 1071 749 1071 821.5 1182 c 128,-1,39
 894 1293 894 1293 999 1368.5 c 128,-1,40
 1104 1444 1104 1444 1231 1444 c 0,41,42
 1294 1444 1294 1444 1340.5 1412.5 c 128,-1,43
 1387 1381 1387 1381 1410.5 1328.5 c 128,-1,44
 1434 1276 1434 1276 1434 1214 c 0,45,46
 1434 1096 1434 1096 1393 1096 c 2,47,-1
 1366 1096 l 2,48,49
 1348 1096 1348 1096 1348 1114 c 0,50,51
 1348 1116 1348 1116 1350 1118 c 1,52,53
 1354 1148 1354 1148 1354 1155 c 0,54,55
 1354 1198 1354 1198 1331 1227.5 c 128,-1,56
 1308 1257 1308 1257 1270 1272.5 c 128,-1,57
 1232 1288 1232 1288 1192 1288 c 0,58,59
 1067 1288 1067 1288 971.5 1194.5 c 128,-1,60
 876 1101 876 1101 816 966.5 c 128,-1,61
 756 832 756 832 723 698 c 2,62,-1
 584 133 l 2,63,64
 580 117 580 117 580 113 c 0,65,66
 580 87 580 87 610 80 c 1,67,68
 657 72 657 72 803 72 c 0,69,70
 823 72 823 72 823 45 c 1,71,72
 819 19 819 19 813 9.5 c 128,-1,73
 807 0 807 0 788 0 c 2,74,-1
 133 0 l 2,75,76
 113 0 113 0 113 27 c 1,0,1
EndSplineSet
EndChar

StartChar: copyright
Encoding: 169 169 108
Width: 1364
GlyphClass: 2
Flags: W
LayerCount: 2
Fore
SplineSet
160 27 m 1,0,1
 161 32 161 32 164.5 45 c 128,-1,2
 168 58 168 58 173.5 65 c 128,-1,3
 179 72 179 72 188 72 c 0,4,5
 340 72 340 72 391 82 c 0,6,7
 439 91 439 91 453 141 c 1,8,-1
 487 285 l 1,9,10
 393 285 393 285 290 329.5 c 128,-1,11
 187 374 187 374 118 453 c 128,-1,12
 49 532 49 532 49 631 c 0,13,14
 49 728 49 728 113.5 817 c 128,-1,15
 178 906 178 906 277.5 971.5 c 128,-1,16
 377 1037 377 1037 491.5 1075.5 c 128,-1,17
 606 1114 606 1114 696 1114 c 1,18,-1
 733 1266 l 2,19,20
 735 1274 735 1274 735.5 1278 c 128,-1,21
 736 1282 736 1282 737 1286 c 1,22,23
 737 1312 737 1312 707 1319 c 1,24,25
 659 1327 659 1327 512 1327 c 0,26,27
 492 1327 492 1327 492 1354 c 1,28,29
 498 1379 498 1379 503 1389 c 128,-1,30
 508 1399 508 1399 526 1399 c 2,31,-1
 1171 1399 l 2,32,33
 1190 1399 1190 1399 1190 1372 c 1,34,35
 1187 1351 1187 1351 1183 1339 c 128,-1,36
 1179 1327 1179 1327 1163 1327 c 0,37,38
 1012 1327 1012 1327 961 1317 c 0,39,40
 911 1308 911 1308 899 1257 c 2,41,-1
 864 1116 l 1,42,43
 960 1116 960 1116 1066.5 1072.5 c 128,-1,44
 1173 1029 1173 1029 1244 949.5 c 128,-1,45
 1315 870 1315 870 1315 768 c 0,46,47
 1315 669 1315 669 1249 578.5 c 128,-1,48
 1183 488 1183 488 1081 422.5 c 128,-1,49
 979 357 979 357 862.5 320 c 128,-1,50
 746 283 746 283 655 283 c 1,51,-1
 618 133 l 2,52,53
 614 117 614 117 614 113 c 0,54,55
 614 87 614 87 645 80 c 1,56,57
 692 72 692 72 838 72 c 0,58,59
 858 72 858 72 858 45 c 1,60,61
 854 19 854 19 848 9.5 c 128,-1,62
 842 0 842 0 823 0 c 2,63,-1
 180 0 l 2,64,65
 160 0 160 0 160 27 c 1,0,1
670 338 m 1,66,67
 801 352 801 352 903.5 414 c 128,-1,68
 1006 476 1006 476 1063 580.5 c 128,-1,69
 1120 685 1120 685 1120 815 c 0,70,71
 1120 929 1120 929 1045.5 988.5 c 128,-1,72
 971 1048 971 1048 850 1061 c 1,73,-1
 670 338 l 1,66,67
244 584 m 0,74,75
 244 373 244 373 502 340 c 1,76,-1
 682 1059 l 1,77,78
 487 1036 487 1036 365.5 907.5 c 128,-1,79
 244 779 244 779 244 584 c 0,74,75
EndSplineSet
EndChar

StartChar: ordfeminine
Encoding: 170 170 109
Width: 1253
GlyphClass: 2
Flags: W
LayerCount: 2
Fore
SplineSet
113 27 m 1,0,1
 114 32 114 32 117.5 45 c 128,-1,2
 121 58 121 58 126.5 65 c 128,-1,3
 132 72 132 72 141 72 c 0,4,5
 293 72 293 72 344 82 c 0,6,7
 392 91 392 91 406 141 c 1,8,-1
 440 287 l 1,9,10
 282 307 282 307 194 402.5 c 128,-1,11
 106 498 106 498 106 657 c 0,12,13
 106 733 106 733 131 844 c 1,14,15
 150 912 150 912 150 969 c 0,16,17
 150 1077 150 1077 74 1077 c 0,18,19
 65 1077 65 1077 59 1085 c 128,-1,20
 53 1093 53 1093 53 1100 c 0,21,22
 53 1111 53 1111 59.5 1120.5 c 128,-1,23
 66 1130 66 1130 76 1130 c 2,24,-1
 201 1130 l 2,25,26
 262 1130 262 1130 289.5 1086 c 128,-1,27
 317 1042 317 1042 317 977 c 0,28,29
 317 911 317 911 297 836 c 1,30,31
 268 708 268 708 266 623 c 1,32,33
 266 517 266 517 311 442.5 c 128,-1,34
 356 368 356 368 455 342 c 1,35,-1
 686 1266 l 2,36,37
 688 1274 688 1274 688.5 1278 c 128,-1,38
 689 1282 689 1282 690 1286 c 1,39,40
 690 1312 690 1312 659 1319 c 1,41,42
 612 1327 612 1327 465 1327 c 0,43,44
 444 1327 444 1327 444 1354 c 1,45,46
 448 1370 448 1370 451 1379 c 128,-1,47
 454 1388 454 1388 460 1393.5 c 128,-1,48
 466 1399 466 1399 479 1399 c 2,49,-1
 1124 1399 l 2,50,51
 1143 1399 1143 1399 1143 1372 c 1,52,53
 1140 1351 1140 1351 1136 1339 c 128,-1,54
 1132 1327 1132 1327 1116 1327 c 0,55,56
 965 1327 965 1327 913 1317 c 0,57,58
 864 1308 864 1308 852 1257 c 2,59,-1
 625 344 l 1,60,61
 714 365 714 365 782.5 413 c 128,-1,62
 851 461 851 461 899 526 c 128,-1,63
 947 591 947 591 983 674 c 128,-1,64
 1019 757 1019 757 1040 844 c 1,65,66
 1073 962 1073 962 1127.5 1046 c 128,-1,67
 1182 1130 1182 1130 1272 1130 c 2,68,-1
 1397 1130 l 2,69,70
 1405 1130 1405 1130 1411 1123 c 128,-1,71
 1417 1116 1417 1116 1417 1108 c 0,72,73
 1417 1096 1417 1096 1412 1086.5 c 128,-1,74
 1407 1077 1407 1077 1395 1077 c 0,75,76
 1321 1077 1321 1077 1276.5 1005 c 128,-1,77
 1232 933 1232 933 1206 836 c 1,78,79
 1170 684 1170 684 1088.5 565 c 128,-1,80
 1007 446 1007 446 885.5 373.5 c 128,-1,81
 764 301 764 301 608 285 c 1,82,-1
 571 133 l 2,83,84
 567 117 567 117 567 113 c 0,85,86
 567 87 567 87 598 80 c 1,87,88
 645 72 645 72 791 72 c 0,89,90
 811 72 811 72 811 45 c 1,91,92
 807 19 807 19 801 9.5 c 128,-1,93
 795 0 795 0 776 0 c 2,94,-1
 133 0 l 2,95,96
 113 0 113 0 113 27 c 1,0,1
EndSplineSet
EndChar

StartChar: logicalnot
Encoding: 172 172 110
Width: 1581
GlyphClass: 2
Flags: W
LayerCount: 2
Fore
SplineSet
184 0 m 2,0,1
 164 0 164 0 164 27 c 2,2,-1
 168 313 l 2,3,4
 168 319 168 319 174.5 325.5 c 128,-1,5
 181 332 181 332 188 332 c 2,6,-1
 207 332 l 2,7,8
 227 332 227 332 227 305 c 2,9,-1
 227 250 l 2,10,11
 227 166 227 166 233 143 c 1,12,13
 272 133 272 133 371 133 c 2,14,-1
 508 133 l 1,15,-1
 508 141 l 2,16,17
 508 213 508 213 488 283 c 128,-1,18
 468 353 468 353 434 440 c 2,19,-1
 408 506 l 2,20,21
 389 555 389 555 371 609.5 c 128,-1,22
 353 664 353 664 343.5 715 c 128,-1,23
 334 766 334 766 334 813 c 0,24,25
 334 951 334 951 401.5 1067.5 c 128,-1,26
 469 1184 469 1184 581.5 1269 c 128,-1,27
 694 1354 694 1354 828 1399 c 128,-1,28
 962 1444 962 1444 1094 1444 c 0,29,30
 1192 1444 1192 1444 1283 1417.5 c 128,-1,31
 1374 1391 1374 1391 1447.5 1339 c 128,-1,32
 1521 1287 1521 1287 1564.5 1208.5 c 128,-1,33
 1608 1130 1608 1130 1608 1028 c 0,34,35
 1608 909 1608 909 1547 797.5 c 128,-1,36
 1486 686 1486 686 1388.5 574 c 128,-1,37
 1291 462 1291 462 1188.5 345 c 128,-1,38
 1086 228 1086 228 1038 133 c 1,39,-1
 1161 133 l 2,40,41
 1218 133 1218 133 1263 138.5 c 128,-1,42
 1308 144 1308 144 1325 164 c 1,43,44
 1353 206 1353 206 1407 322 c 1,45,46
 1417 332 1417 332 1425 332 c 2,47,-1
 1444 332 l 2,48,49
 1452 332 1452 332 1458 325 c 128,-1,50
 1464 318 1464 318 1464 309 c 0,51,52
 1464 305 1464 305 1462 301 c 2,53,-1
 1321 12 l 1,54,55
 1317 0 1317 0 1305 0 c 2,56,-1
 963 0 l 2,57,58
 942 0 942 0 942 27 c 1,59,60
 970 143 970 143 1020.5 234 c 128,-1,61
 1071 325 1071 325 1187.5 516.5 c 128,-1,62
 1304 708 1304 708 1355.5 830 c 128,-1,63
 1407 952 1407 952 1407 1077 c 0,64,65
 1407 1171 1407 1171 1367.5 1242.5 c 128,-1,66
 1328 1314 1328 1314 1256 1352.5 c 128,-1,67
 1184 1391 1184 1391 1092 1391 c 0,68,69
 1005 1391 1005 1391 921.5 1359 c 128,-1,70
 838 1327 838 1327 766.5 1268 c 128,-1,71
 695 1209 695 1209 647 1137 c 1,72,73
 588 1051 588 1051 559 944.5 c 128,-1,74
 530 838 530 838 530 727 c 0,75,76
 530 684 530 684 536.5 611.5 c 128,-1,77
 543 539 543 539 551 467 c 128,-1,78
 559 395 559 395 564 343.5 c 128,-1,79
 569 292 569 292 569 229 c 0,80,81
 569 114 569 114 547 18 c 0,82,83
 543 0 543 0 526 0 c 2,84,-1
 184 0 l 2,0,1
EndSplineSet
EndChar

StartChar: uni00AD
Encoding: 173 173 111
Width: 1581
GlyphClass: 2
Flags: W
LayerCount: 2
Fore
SplineSet
184 0 m 2,0,1
 164 0 164 0 164 27 c 2,2,-1
 168 313 l 2,3,4
 168 319 168 319 174.5 325.5 c 128,-1,5
 181 332 181 332 188 332 c 2,6,-1
 207 332 l 2,7,8
 227 332 227 332 227 305 c 2,9,-1
 227 250 l 2,10,11
 227 166 227 166 233 143 c 1,12,13
 272 133 272 133 371 133 c 2,14,-1
 508 133 l 1,15,-1
 508 141 l 2,16,17
 508 213 508 213 488 283 c 128,-1,18
 468 353 468 353 434 440 c 2,19,-1
 408 506 l 2,20,21
 389 555 389 555 371 609.5 c 128,-1,22
 353 664 353 664 343.5 715 c 128,-1,23
 334 766 334 766 334 813 c 0,24,25
 334 951 334 951 401.5 1067.5 c 128,-1,26
 469 1184 469 1184 581.5 1269 c 128,-1,27
 694 1354 694 1354 828 1399 c 128,-1,28
 962 1444 962 1444 1094 1444 c 0,29,30
 1192 1444 1192 1444 1283 1417.5 c 128,-1,31
 1374 1391 1374 1391 1447.5 1339 c 128,-1,32
 1521 1287 1521 1287 1564.5 1208.5 c 128,-1,33
 1608 1130 1608 1130 1608 1028 c 0,34,35
 1608 909 1608 909 1547 797.5 c 128,-1,36
 1486 686 1486 686 1388.5 574 c 128,-1,37
 1291 462 1291 462 1188.5 345 c 128,-1,38
 1086 228 1086 228 1038 133 c 1,39,-1
 1161 133 l 2,40,41
 1218 133 1218 133 1263 138.5 c 128,-1,42
 1308 144 1308 144 1325 164 c 1,43,44
 1353 206 1353 206 1407 322 c 1,45,46
 1417 332 1417 332 1425 332 c 2,47,-1
 1444 332 l 2,48,49
 1452 332 1452 332 1458 325 c 128,-1,50
 1464 318 1464 318 1464 309 c 0,51,52
 1464 305 1464 305 1462 301 c 2,53,-1
 1321 12 l 1,54,55
 1317 0 1317 0 1305 0 c 2,56,-1
 963 0 l 2,57,58
 942 0 942 0 942 27 c 1,59,60
 970 143 970 143 1020.5 234 c 128,-1,61
 1071 325 1071 325 1187.5 516.5 c 128,-1,62
 1304 708 1304 708 1355.5 830 c 128,-1,63
 1407 952 1407 952 1407 1077 c 0,64,65
 1407 1171 1407 1171 1367.5 1242.5 c 128,-1,66
 1328 1314 1328 1314 1256 1352.5 c 128,-1,67
 1184 1391 1184 1391 1092 1391 c 0,68,69
 1005 1391 1005 1391 921.5 1359 c 128,-1,70
 838 1327 838 1327 766.5 1268 c 128,-1,71
 695 1209 695 1209 647 1137 c 1,72,73
 588 1051 588 1051 559 944.5 c 128,-1,74
 530 838 530 838 530 727 c 0,75,76
 530 684 530 684 536.5 611.5 c 128,-1,77
 543 539 543 539 551 467 c 128,-1,78
 559 395 559 395 564 343.5 c 128,-1,79
 569 292 569 292 569 229 c 0,80,81
 569 114 569 114 547 18 c 0,82,83
 543 0 543 0 526 0 c 2,84,-1
 184 0 l 2,0,1
EndSplineSet
EndChar

StartChar: registered
Encoding: 174 174 112
Width: 1309
GlyphClass: 2
Flags: W
LayerCount: 2
Fore
SplineSet
412 -23 m 0,0,1
 315 -23 315 -23 239.5 23 c 128,-1,2
 164 69 164 69 123 147 c 128,-1,3
 82 225 82 225 82 324 c 0,4,5
 82 463 82 463 159.5 599 c 128,-1,6
 237 735 237 735 365.5 820 c 128,-1,7
 494 905 494 905 635 905 c 0,8,9
 739 905 739 905 818 850.5 c 128,-1,10
 897 796 897 796 938 705.5 c 128,-1,11
 979 615 979 615 979 512 c 1,12,-1
 981 375 l 1,13,14
 1051 472 1051 472 1099.5 576.5 c 128,-1,15
 1148 681 1148 681 1174 793 c 1,16,17
 1178 805 1178 805 1190 805 c 2,18,-1
 1214 805 l 2,19,20
 1233 805 1233 805 1233 786 c 0,21,22
 1233 784 1233 784 1231 780 c 0,23,24
 1207 686 1207 686 1171 599.5 c 128,-1,25
 1135 513 1135 513 1086.5 432 c 128,-1,26
 1038 351 1038 351 981 285 c 1,27,28
 981 31 981 31 1040 31 c 0,29,30
 1078 31 1078 31 1102.5 53.5 c 128,-1,31
 1127 76 1127 76 1145.5 109 c 128,-1,32
 1164 142 1164 142 1169 143 c 1,33,-1
 1194 143 l 2,34,35
 1210 143 1210 143 1210 123 c 0,36,37
 1210 72 1210 72 1151.5 24.5 c 128,-1,38
 1093 -23 1093 -23 1036 -23 c 0,39,40
 962 -23 962 -23 913 25 c 128,-1,41
 864 73 864 73 846 150 c 1,42,43
 750 68 750 68 638 22.5 c 128,-1,44
 526 -23 526 -23 412 -23 c 0,0,1
416 31 m 0,45,46
 635 31 635 31 836 211 c 1,47,48
 835 223 835 223 833 240.5 c 128,-1,49
 831 258 831 258 831 260 c 2,50,-1
 831 481 l 2,51,52
 831 852 831 852 631 852 c 0,53,54
 511 852 511 852 421 749.5 c 128,-1,55
 331 647 331 647 285.5 504.5 c 128,-1,56
 240 362 240 362 240 244 c 0,57,58
 240 155 240 155 285.5 93 c 128,-1,59
 331 31 331 31 416 31 c 0,45,46
EndSplineSet
EndChar

StartChar: macron
Encoding: 175 175 113
Width: 1157
GlyphClass: 2
Flags: W
LayerCount: 2
Fore
SplineSet
55 -397 m 2,0,1
 49 -397 49 -397 44 -390 c 128,-1,2
 39 -383 39 -383 39 -377 c 1,3,-1
 354 889 l 1,4,5
 381 991 381 991 433 1087 c 128,-1,6
 485 1183 485 1183 563.5 1265.5 c 128,-1,7
 642 1348 642 1348 736 1396 c 128,-1,8
 830 1444 830 1444 936 1444 c 0,9,10
 1012 1444 1012 1444 1073.5 1410.5 c 128,-1,11
 1135 1377 1135 1377 1170.5 1316.5 c 128,-1,12
 1206 1256 1206 1256 1206 1180 c 0,13,14
 1206 1107 1206 1107 1178 1040.5 c 128,-1,15
 1150 974 1150 974 1100 916.5 c 128,-1,16
 1050 859 1050 859 993 823 c 1,17,18
 1026 802 1026 802 1052 769.5 c 128,-1,19
 1078 737 1078 737 1094 701.5 c 128,-1,20
 1110 666 1110 666 1119 622.5 c 128,-1,21
 1128 579 1128 579 1128 541 c 0,22,23
 1128 436 1128 436 1083 334 c 128,-1,24
 1038 232 1038 232 960.5 149 c 128,-1,25
 883 66 883 66 783 17.5 c 128,-1,26
 683 -31 683 -31 578 -31 c 0,27,28
 463 -31 463 -31 371 32 c 128,-1,29
 279 95 279 95 244 203 c 1,30,-1
 96 -385 l 1,31,32
 96 -397 96 -397 80 -397 c 2,33,-1
 55 -397 l 2,0,1
582 25 m 0,34,35
 674 25 674 25 748.5 85.5 c 128,-1,36
 823 146 823 146 871.5 237.5 c 128,-1,37
 920 329 920 329 945.5 431.5 c 128,-1,38
 971 534 971 534 971 618 c 0,39,40
 971 722 971 722 911 782 c 1,41,42
 841 756 841 756 774 756 c 0,43,44
 612 756 612 756 612 811 c 0,45,46
 612 883 612 883 797 883 c 0,47,48
 863 883 863 883 918 862 c 1,49,50
 962 896 962 896 998 962 c 128,-1,51
 1034 1028 1034 1028 1052.5 1100 c 128,-1,52
 1071 1172 1071 1172 1071 1235 c 0,53,54
 1071 1302 1071 1302 1035.5 1346.5 c 128,-1,55
 1000 1391 1000 1391 932 1391 c 0,56,57
 807 1391 807 1391 699.5 1314 c 128,-1,58
 592 1237 592 1237 518 1119.5 c 128,-1,59
 444 1002 444 1002 412 877 c 2,60,-1
 299 424 l 2,61,62
 288 377 288 377 285 319 c 1,63,64
 285 191 285 191 369 108 c 128,-1,65
 453 25 453 25 582 25 c 0,34,35
674 817 m 1,66,67
 705 809 705 809 776 809 c 0,68,69
 811 809 811 809 846 821 c 1,70,71
 844 823 844 823 838 823 c 1,72,73
 816 829 816 829 791 829 c 0,74,75
 698 829 698 829 674 817 c 1,66,67
EndSplineSet
EndChar

StartChar: degree
Encoding: 176 176 114
Width: 1059
GlyphClass: 2
Flags: W
LayerCount: 2
Fore
SplineSet
604 -401 m 0,0,1
 604 -355 604 -355 624.5 -267 c 128,-1,2
 645 -179 645 -179 674.5 -79.5 c 128,-1,3
 704 20 704 20 725 84 c 1,4,5
 733 186 733 186 733 238 c 0,6,7
 733 370 733 370 707 483.5 c 128,-1,8
 681 597 681 597 609 673.5 c 128,-1,9
 537 750 537 750 408 750 c 0,10,11
 340 750 340 750 272.5 721 c 128,-1,12
 205 692 205 692 156.5 640 c 128,-1,13
 108 588 108 588 90 522 c 0,14,15
 86 510 86 510 74 510 c 2,16,-1
 49 510 l 2,17,18
 33 510 33 510 33 528 c 2,19,-1
 33 535 l 1,20,21
 56 627 56 627 114.5 712.5 c 128,-1,22
 173 798 173 798 257.5 851.5 c 128,-1,23
 342 905 342 905 436 905 c 0,24,25
 532 905 532 905 602 840 c 128,-1,26
 672 775 672 775 714 675 c 128,-1,27
 756 575 756 575 774.5 473 c 128,-1,28
 793 371 793 371 793 281 c 1,29,30
 896 561 896 561 1024 811 c 1,31,-1
 1055 877 l 1,32,33
 1061 883 1061 883 1069 883 c 2,34,-1
 1094 883 l 2,35,36
 1110 883 1110 883 1110 864 c 0,37,38
 1110 860 1110 860 1106 852 c 2,39,-1
 1075 788 l 1,40,41
 986 611 986 611 911.5 429 c 128,-1,42
 837 247 837 247 784 78 c 1,43,44
 776 9 776 9 753.5 -111 c 128,-1,45
 731 -231 731 -231 699 -334.5 c 128,-1,46
 667 -438 667 -438 635 -442 c 1,47,48
 604 -442 604 -442 604 -401 c 0,0,1
EndSplineSet
EndChar

StartChar: plusminus
Encoding: 177 177 115
Width: 909
GlyphClass: 2
Flags: W
LayerCount: 2
Fore
SplineSet
410 -31 m 0,0,1
 339 -31 339 -31 278 -4.5 c 128,-1,2
 217 22 217 22 171.5 72 c 128,-1,3
 126 122 126 122 104 183.5 c 128,-1,4
 82 245 82 245 82 317 c 0,5,6
 82 445 82 445 142.5 565.5 c 128,-1,7
 203 686 203 686 307.5 774 c 128,-1,8
 412 862 412 862 535 893 c 1,9,10
 475 1004 475 1004 443.5 1084.5 c 128,-1,11
 412 1165 412 1165 412 1249 c 0,12,13
 412 1311 412 1311 441 1358.5 c 128,-1,14
 470 1406 470 1406 521 1433 c 128,-1,15
 572 1460 572 1460 635 1460 c 0,16,17
 696 1460 696 1460 877 1419 c 0,18,19
 924 1408 924 1408 924 1364 c 0,20,21
 924 1330 924 1330 899 1302 c 128,-1,22
 874 1274 874 1274 840 1274 c 0,23,24
 815 1274 815 1274 795 1285.5 c 128,-1,25
 775 1297 775 1297 732 1326 c 128,-1,26
 689 1355 689 1355 655 1370.5 c 128,-1,27
 621 1386 621 1386 584 1386 c 0,28,29
 542 1386 542 1386 508.5 1360.5 c 128,-1,30
 475 1335 475 1335 475 1294 c 0,31,32
 475 1229 475 1229 532.5 1144.5 c 128,-1,33
 590 1060 590 1060 696 928 c 1,34,35
 817 774 817 774 817 588 c 0,36,37
 817 496 817 496 790.5 389 c 128,-1,38
 764 282 764 282 713.5 187 c 128,-1,39
 663 92 663 92 584.5 30.5 c 128,-1,40
 506 -31 506 -31 410 -31 c 0,0,1
414 25 m 0,41,42
 494 25 494 25 551.5 108 c 128,-1,43
 609 191 609 191 638.5 305.5 c 128,-1,44
 668 420 668 420 668 498 c 0,45,46
 668 651 668 651 561 842 c 1,47,48
 453 812 453 812 375 716 c 128,-1,49
 297 620 297 620 257 495 c 128,-1,50
 217 370 217 370 217 258 c 0,51,52
 217 160 217 160 268 92.5 c 128,-1,53
 319 25 319 25 414 25 c 0,41,42
EndSplineSet
EndChar

StartChar: uni00B2
Encoding: 178 178 116
Width: 829
GlyphClass: 2
Flags: W
LayerCount: 2
Fore
SplineSet
252 289 m 0,0,1
 252 220 252 220 277 161 c 128,-1,2
 302 102 302 102 352.5 66.5 c 128,-1,3
 403 31 403 31 471 31 c 0,4,5
 517 31 517 31 569 51 c 128,-1,6
 621 71 621 71 665.5 95 c 128,-1,7
 710 119 710 119 711 119 c 0,8,9
 722 119 722 119 728.5 106.5 c 128,-1,10
 735 94 735 94 735 82 c 0,11,12
 735 71 735 71 729 68 c 1,13,14
 601 -23 601 -23 469 -23 c 0,15,16
 361 -23 361 -23 274 27.5 c 128,-1,17
 187 78 187 78 139.5 168 c 128,-1,18
 92 258 92 258 92 365 c 0,19,20
 92 471 92 471 135 566.5 c 128,-1,21
 178 662 178 662 254 733 c 128,-1,22
 330 804 330 804 426 843.5 c 128,-1,23
 522 883 522 883 627 883 c 2,24,-1
 743 883 l 2,25,26
 774 883 774 883 774 852 c 0,27,28
 774 835 774 835 762.5 823 c 128,-1,29
 751 811 751 811 735 811 c 2,30,-1
 623 811 l 2,31,32
 541 811 541 811 474.5 775 c 128,-1,33
 408 739 408 739 363 675 c 128,-1,34
 318 611 318 611 293 530 c 1,35,-1
 655 530 l 2,36,37
 669 530 669 530 677.5 521.5 c 128,-1,38
 686 513 686 513 686 500 c 0,39,40
 686 483 686 483 675 471 c 128,-1,41
 664 459 664 459 647 459 c 2,42,-1
 274 459 l 1,43,44
 252 353 252 353 252 289 c 0,0,1
EndSplineSet
EndChar

StartChar: uni00B3
Encoding: 179 179 117
Width: 895
GlyphClass: 2
Flags: W
LayerCount: 2
Fore
SplineSet
362 -319 m 1,0,1
 367 -295 367 -295 391 -295 c 0,2,3
 395 -295 395 -295 426.5 -315.5 c 128,-1,4
 458 -336 458 -336 493.5 -351.5 c 128,-1,5
 529 -367 529 -367 571 -367 c 0,6,7
 615 -367 615 -367 644.5 -326 c 128,-1,8
 674 -285 674 -285 674 -238 c 256,9,10
 674 -191 674 -191 643 -158 c 128,-1,11
 612 -125 612 -125 565 -109 c 2,12,-1
 356 -39 l 1,13,14
 228 5 228 5 161 101.5 c 128,-1,15
 94 198 94 198 94 336 c 0,16,17
 94 453 94 453 136.5 586 c 128,-1,18
 179 719 179 719 254 844 c 128,-1,19
 329 969 329 969 427 1068.5 c 128,-1,20
 525 1168 525 1168 631 1223 c 1,21,22
 610 1265 610 1265 610 1321 c 0,23,24
 610 1432 610 1432 653 1432 c 0,25,26
 664 1432 664 1432 672 1424 c 128,-1,27
 680 1416 680 1416 680 1405 c 0,28,29
 680 1390 680 1390 675 1358.5 c 128,-1,30
 670 1327 670 1327 670 1319 c 0,31,32
 670 1282 670 1282 682 1247 c 1,33,34
 735 1268 735 1268 780 1268 c 0,35,36
 969 1268 969 1268 969 1210 c 0,37,38
 969 1141 969 1141 760 1141 c 0,39,40
 698 1141 698 1141 662 1178 c 1,41,42
 574 1128 574 1128 492.5 1038 c 128,-1,43
 411 948 411 948 348 836 c 128,-1,44
 285 724 285 724 250 610 c 128,-1,45
 215 496 215 496 215 393 c 0,46,47
 215 172 215 172 416 102 c 1,48,-1
 635 29 l 1,49,50
 704 8 704 8 747.5 -44.5 c 128,-1,51
 791 -97 791 -97 791 -170 c 0,52,53
 791 -229 791 -229 761 -287.5 c 128,-1,54
 731 -346 731 -346 680 -383 c 128,-1,55
 629 -420 629 -420 567 -420 c 0,56,57
 518 -420 518 -420 440 -387.5 c 128,-1,58
 362 -355 362 -355 362 -319 c 1,0,1
719 1204 m 0,59,60
 717 1204 717 1204 737 1196 c 1,61,62
 746 1196 746 1196 751.5 1195.5 c 128,-1,63
 757 1195 757 1195 764 1194 c 1,64,65
 862 1194 862 1194 905 1206 c 1,66,67
 866 1214 866 1214 780 1214 c 0,68,69
 752 1214 752 1214 719 1204 c 0,59,60
EndSplineSet
EndChar

StartChar: acute
Encoding: 180 180 118
Width: 1016
GlyphClass: 2
Flags: W
LayerCount: 2
Fore
SplineSet
219 -23 m 0,0,1
 194 -23 194 -23 176 -7 c 128,-1,2
 158 9 158 9 158 35 c 0,3,4
 158 47 158 47 160 53 c 2,5,-1
 313 664 l 2,6,7
 328 721 328 721 328 764 c 0,8,9
 328 852 328 852 268 852 c 0,10,11
 204 852 204 852 173 775.5 c 128,-1,12
 142 699 142 699 113 582 c 1,13,14
 113 576 113 576 107 572.5 c 128,-1,15
 101 569 101 569 96 569 c 2,16,-1
 72 569 l 2,17,18
 65 569 65 569 60 576.5 c 128,-1,19
 55 584 55 584 55 590 c 1,20,21
 77 679 77 679 97.5 741 c 128,-1,22
 118 803 118 803 161.5 854 c 128,-1,23
 205 905 205 905 270 905 c 0,24,25
 346 905 346 905 405.5 857 c 128,-1,26
 465 809 465 809 465 733 c 1,27,28
 525 813 525 813 606 859 c 128,-1,29
 687 905 687 905 782 905 c 0,30,31
 889 905 889 905 953.5 847.5 c 128,-1,32
 1018 790 1018 790 1018 684 c 0,33,34
 1018 623 1018 623 1004 571 c 2,35,-1
 766 -377 l 1,36,37
 760 -406 760 -406 736 -424 c 128,-1,38
 712 -442 712 -442 682 -442 c 0,39,40
 657 -442 657 -442 639 -426.5 c 128,-1,41
 621 -411 621 -411 621 -385 c 0,42,43
 621 -373 621 -373 623 -369 c 2,44,-1
 858 575 l 2,45,46
 879 659 879 659 879 715 c 0,47,48
 879 772 879 772 855 812 c 128,-1,49
 831 852 831 852 778 852 c 0,50,51
 577 852 577 852 444 604 c 1,52,-1
 305 45 l 2,53,54
 298 17 298 17 273.5 -3 c 128,-1,55
 249 -23 249 -23 219 -23 c 0,0,1
EndSplineSet
EndChar

StartChar: uni00B5
Encoding: 181 181 119
Width: 961
GlyphClass: 2
Flags: W
LayerCount: 2
Fore
SplineSet
330 -23 m 2,0,1
 237 -23 237 -23 181 45 c 128,-1,2
 125 113 125 113 103.5 209 c 128,-1,3
 82 305 82 305 82 399 c 2,4,-1
 82 401 l 2,5,6
 82 503 82 503 101.5 613 c 128,-1,7
 121 723 121 723 158 832.5 c 128,-1,8
 195 942 195 942 238 1028 c 0,9,10
 268 1088 268 1088 315.5 1162 c 128,-1,11
 363 1236 363 1236 421.5 1300.5 c 128,-1,12
 480 1365 480 1365 547.5 1404.5 c 128,-1,13
 615 1444 615 1444 684 1444 c 2,14,-1
 686 1444 l 2,15,16
 760 1444 760 1444 809.5 1403 c 128,-1,17
 859 1362 859 1362 886.5 1298 c 128,-1,18
 914 1234 914 1234 925 1161 c 128,-1,19
 936 1088 936 1088 936 1022 c 0,20,21
 936 867 936 867 894 705.5 c 128,-1,22
 852 544 852 544 778 393 c 0,23,24
 750 336 750 336 700.5 259 c 128,-1,25
 651 182 651 182 595.5 121 c 128,-1,26
 540 60 540 60 471 18.5 c 128,-1,27
 402 -23 402 -23 332 -23 c 2,28,-1
 330 -23 l 2,0,1
334 31 m 0,29,30
 402 31 402 31 464.5 103.5 c 128,-1,31
 527 176 527 176 574 279.5 c 128,-1,32
 621 383 621 383 656.5 491.5 c 128,-1,33
 692 600 692 600 709 676 c 1,34,-1
 291 676 l 1,35,36
 259 547 259 547 241 453.5 c 128,-1,37
 223 360 223 360 223 270 c 0,38,39
 223 31 223 31 334 31 c 0,29,30
307 748 m 1,40,-1
 727 748 l 1,41,42
 749 838 749 838 762 898.5 c 128,-1,43
 775 959 775 959 784 1026 c 128,-1,44
 793 1093 793 1093 793 1151 c 0,45,46
 793 1391 793 1391 684 1391 c 0,47,48
 554 1391 554 1391 459.5 1181.5 c 128,-1,49
 365 972 365 972 307 748 c 1,40,-1
EndSplineSet
EndChar

StartChar: paragraph
Encoding: 182 182 120
Width: 723
GlyphClass: 2
Flags: W
LayerCount: 2
Fore
SplineSet
111 147 m 0,0,1
 111 185 111 185 127 227 c 0,2,3
 209 446 209 446 307 840 c 0,4,5
 315 869 315 869 339 887 c 128,-1,6
 363 905 363 905 393 905 c 0,7,8
 420 905 420 905 437.5 889 c 128,-1,9
 455 873 455 873 455 846 c 0,10,11
 455 841 455 841 451 827 c 0,12,13
 430 745 430 745 398 625 c 128,-1,14
 366 505 366 505 336.5 409 c 128,-1,15
 307 313 307 313 270 215 c 1,16,17
 242 147 242 147 242 92 c 0,18,19
 242 31 242 31 289 31 c 0,20,21
 362 31 362 31 429 68.5 c 128,-1,22
 496 106 496 106 544 167.5 c 128,-1,23
 592 229 592 229 610 301 c 0,24,25
 614 313 614 313 627 313 c 2,26,-1
 651 313 l 2,27,28
 659 313 659 313 664.5 307.5 c 128,-1,29
 670 302 670 302 670 295 c 0,30,31
 670 293 670 293 668 289 c 0,32,33
 647 203 647 203 590 132.5 c 128,-1,34
 533 62 533 62 451.5 19.5 c 128,-1,35
 370 -23 370 -23 285 -23 c 0,36,37
 212 -23 212 -23 161.5 25.5 c 128,-1,38
 111 74 111 74 111 147 c 0,0,1
EndSplineSet
EndChar

StartChar: periodcentered
Encoding: 183 183 121
AltUni2: 002219.ffffffff.0
Width: 1180
GlyphClass: 2
Flags: W
LayerCount: 2
Fore
SplineSet
109 35 m 0,0,1
 109 47 109 47 111 53 c 2,2,-1
 307 840 l 2,3,4
 315 869 315 869 339 887 c 128,-1,5
 363 905 363 905 393 905 c 0,6,7
 419 905 419 905 437 889.5 c 128,-1,8
 455 874 455 874 455 848 c 0,9,10
 455 842 455 842 454.5 838.5 c 128,-1,11
 454 835 454 835 453 831 c 2,12,-1
 379 535 l 1,13,14
 461 562 461 562 597 675.5 c 128,-1,15
 733 789 733 789 802.5 836 c 128,-1,16
 872 883 872 883 973 883 c 0,17,18
 1006 883 1006 883 1028.5 862.5 c 128,-1,19
 1051 842 1051 842 1051 807 c 0,20,21
 1051 759 1051 759 1016.5 725.5 c 128,-1,22
 982 692 982 692 934 692 c 0,23,24
 901 692 901 692 878.5 713.5 c 128,-1,25
 856 735 856 735 856 768 c 0,26,27
 856 791 856 791 864 807 c 1,28,29
 815 787 815 787 763.5 751 c 128,-1,30
 712 715 712 715 670 678.5 c 128,-1,31
 628 642 628 642 569 593 c 128,-1,32
 510 544 510 544 463 518 c 1,33,34
 547 518 547 518 635 500 c 128,-1,35
 723 482 723 482 787.5 434 c 128,-1,36
 852 386 852 386 852 303 c 0,37,38
 852 270 852 270 844 246 c 1,39,40
 825 164 825 164 825 123 c 0,41,42
 825 31 825 31 889 31 c 0,43,44
 962 31 962 31 1001 112 c 128,-1,45
 1040 193 1040 193 1065 301 c 1,46,47
 1069 313 1069 313 1081 313 c 2,48,-1
 1106 313 l 2,49,50
 1114 313 1114 313 1119 307.5 c 128,-1,51
 1124 302 1124 302 1124 295 c 0,52,53
 1124 293 1124 293 1122 289 c 1,54,55
 1047 -23 1047 -23 885 -23 c 0,56,57
 827 -23 827 -23 782.5 4 c 128,-1,58
 738 31 738 31 714 77.5 c 128,-1,59
 690 124 690 124 690 182 c 0,60,61
 690 219 690 219 698 250 c 0,62,63
 705 278 705 278 705 297 c 0,64,65
 705 363 705 363 646.5 401 c 128,-1,66
 588 439 588 439 508.5 453 c 128,-1,67
 429 467 429 467 360 467 c 1,68,-1
 256 45 l 2,69,70
 249 17 249 17 224.5 -3 c 128,-1,71
 200 -23 200 -23 170 -23 c 0,72,73
 145 -23 145 -23 127 -7 c 128,-1,74
 109 9 109 9 109 35 c 0,0,1
EndSplineSet
EndChar

StartChar: cedilla
Encoding: 184 184 122
Width: 1194
GlyphClass: 2
Flags: W
LayerCount: 2
Fore
SplineSet
104 35 m 0,0,1
 104 65 104 65 131 92 c 2,2,-1
 707 657 l 1,3,-1
 504 1227 l 2,4,5
 480 1292 480 1292 453.5 1330 c 128,-1,6
 427 1368 427 1368 377 1368 c 0,7,8
 354 1368 354 1368 354 1395 c 1,9,10
 356 1407 356 1407 364 1414 c 128,-1,11
 372 1421 372 1421 385 1421 c 0,12,13
 600 1421 600 1421 645 1294 c 2,14,-1
 1061 133 l 1,15,16
 1088 46 1088 46 1116 16 c 1,17,18
 1126 1 1126 1 1126 -4 c 0,19,20
 1126 -23 1126 -23 1110 -23 c 2,21,-1
 999 -23 l 1,22,23
 948 -8 948 -8 918 66 c 1,24,-1
 731 590 l 1,25,-1
 236 8 l 1,26,27
 199 -27 199 -27 170 -27 c 0,28,29
 144 -27 144 -27 124 -9 c 128,-1,30
 104 9 104 9 104 35 c 0,0,1
EndSplineSet
EndChar

StartChar: uni00B9
Encoding: 185 185 123
Width: 1233
GlyphClass: 2
Flags: W
LayerCount: 2
Fore
SplineSet
57 -385 m 0,0,1
 57 -373 57 -373 59 -369 c 2,2,-1
 360 840 l 1,3,4
 369 869 369 869 392.5 887 c 128,-1,5
 416 905 416 905 446 905 c 0,6,7
 472 905 472 905 490 889.5 c 128,-1,8
 508 874 508 874 508 848 c 0,9,10
 508 842 508 842 507.5 838.5 c 128,-1,11
 507 835 507 835 506 831 c 2,12,-1
 385 352 l 1,13,14
 365 267 365 267 365 205 c 0,15,16
 365 129 365 129 401 80 c 128,-1,17
 437 31 437 31 510 31 c 0,18,19
 659 31 659 31 772 217 c 0,20,21
 773 219 773 219 773.5 220 c 128,-1,22
 774 221 774 221 774 223 c 2,23,-1
 922 817 l 2,24,25
 929 844 929 844 954 863.5 c 128,-1,26
 979 883 979 883 1008 883 c 0,27,28
 1032 883 1032 883 1050.5 867 c 128,-1,29
 1069 851 1069 851 1069 825 c 0,30,31
 1069 813 1069 813 1067 809 c 2,32,-1
 920 219 l 2,33,34
 905 161 905 161 905 119 c 0,35,36
 905 31 905 31 965 31 c 0,37,38
 1029 31 1029 31 1061.5 110 c 128,-1,39
 1094 189 1094 189 1118 301 c 1,40,41
 1122 313 1122 313 1135 313 c 2,42,-1
 1159 313 l 2,43,44
 1167 313 1167 313 1172.5 306.5 c 128,-1,45
 1178 300 1178 300 1178 293 c 1,46,47
 1142 150 1142 150 1099.5 63.5 c 128,-1,48
 1057 -23 1057 -23 961 -23 c 0,49,50
 893 -23 893 -23 840.5 16 c 128,-1,51
 788 55 788 55 772 121 c 1,52,53
 721 57 721 57 652.5 17 c 128,-1,54
 584 -23 584 -23 508 -23 c 0,55,56
 380 -23 380 -23 307 37 c 1,57,-1
 203 -377 l 1,58,59
 197 -406 197 -406 173 -424 c 128,-1,60
 149 -442 149 -442 119 -442 c 0,61,62
 94 -442 94 -442 75.5 -426.5 c 128,-1,63
 57 -411 57 -411 57 -385 c 0,0,1
EndSplineSet
EndChar

StartChar: ordmasculine
Encoding: 186 186 124
Width: 1012
GlyphClass: 2
Flags: W
LayerCount: 2
Fore
SplineSet
129 0 m 2,0,1
 104 0 104 0 104 27 c 1,2,-1
 279 723 l 2,3,4
 287 758 287 758 289 778 c 1,5,6
 289 811 289 811 156 811 c 0,7,8
 135 811 135 811 135 838 c 1,9,10
 136 843 136 843 139.5 856 c 128,-1,11
 143 869 143 869 148.5 876 c 128,-1,12
 154 883 154 883 164 883 c 2,13,-1
 440 905 l 1,14,15
 465 905 465 905 465 879 c 1,16,-1
 264 76 l 1,17,18
 426 130 426 130 562.5 245 c 128,-1,19
 699 360 699 360 793.5 516 c 128,-1,20
 888 672 888 672 930 840 c 0,21,22
 938 869 938 869 962 887 c 128,-1,23
 986 905 986 905 1016 905 c 0,24,25
 1043 905 1043 905 1060 889 c 128,-1,26
 1077 873 1077 873 1077 846 c 0,27,28
 1077 813 1077 813 1050 745.5 c 128,-1,29
 1023 678 1023 678 997 625 c 0,30,31
 916 464 916 464 782 330 c 0,32,33
 698 246 698 246 601.5 181 c 128,-1,34
 505 116 505 116 400 70.5 c 128,-1,35
 295 25 295 25 178 0 c 1,36,-1
 129 0 l 2,0,1
EndSplineSet
EndChar

StartChar: guillemotright
Encoding: 187 187 125
Width: 895
GlyphClass: 2
Flags: W
LayerCount: 2
Fore
SplineSet
334 -319 m 1,0,1
 337 -295 337 -295 362 -295 c 0,2,3
 364 -295 364 -295 400.5 -315 c 128,-1,4
 437 -335 437 -335 481 -351 c 128,-1,5
 525 -367 525 -367 569 -367 c 0,6,7
 607 -367 607 -367 633 -334.5 c 128,-1,8
 659 -302 659 -302 659 -264 c 0,9,10
 659 -210 659 -210 602 -188 c 2,11,-1
 254 -53 l 2,12,13
 164 -18 164 -18 105.5 51.5 c 128,-1,14
 47 121 47 121 47 209 c 0,15,16
 47 288 47 288 89 373.5 c 128,-1,17
 131 459 131 459 197 528.5 c 128,-1,18
 263 598 263 598 338 641 c 1,19,20
 278 677 278 677 244.5 733.5 c 128,-1,21
 211 790 211 790 211 858 c 0,22,23
 211 930 211 930 240.5 992 c 128,-1,24
 270 1054 270 1054 321 1105 c 128,-1,25
 372 1156 372 1156 435 1191.5 c 128,-1,26
 498 1227 498 1227 563 1245 c 1,27,28
 553 1287 553 1287 553 1321 c 0,29,30
 553 1432 553 1432 596 1432 c 0,31,32
 607 1432 607 1432 615 1424 c 128,-1,33
 623 1416 623 1416 623 1405 c 0,34,35
 623 1395 623 1395 617.5 1361 c 128,-1,36
 612 1327 612 1327 612 1319 c 0,37,38
 612 1284 612 1284 621 1257 c 1,39,40
 674 1268 674 1268 723 1268 c 0,41,42
 911 1268 911 1268 911 1210 c 0,43,44
 911 1141 911 1141 702 1141 c 0,45,46
 638 1141 638 1141 598 1184 c 1,47,48
 539 1154 539 1154 489 1099 c 128,-1,49
 439 1044 439 1044 411 976.5 c 128,-1,50
 383 909 383 909 383 840 c 0,51,52
 383 744 383 744 438 686 c 1,53,54
 511 711 511 711 584 711 c 0,55,56
 772 711 772 711 772 653 c 0,57,58
 772 584 772 584 563 584 c 0,59,60
 478 584 478 584 403 610 c 1,61,62
 312 561 312 561 236 461 c 128,-1,63
 160 361 160 361 160 268 c 0,64,65
 160 208 160 208 203.5 162.5 c 128,-1,66
 247 117 247 117 311 90 c 1,67,-1
 674 -51 l 2,68,69
 721 -69 721 -69 750.5 -108.5 c 128,-1,70
 780 -148 780 -148 780 -199 c 0,71,72
 780 -283 780 -283 715.5 -351.5 c 128,-1,73
 651 -420 651 -420 567 -420 c 0,74,75
 541 -420 541 -420 482 -406 c 128,-1,76
 423 -392 423 -392 378.5 -369 c 128,-1,77
 334 -346 334 -346 334 -319 c 1,0,1
500 647 m 1,78,79
 527 637 527 637 567 637 c 0,80,81
 666 637 666 637 709 649 c 1,82,83
 670 657 670 657 582 657 c 0,84,85
 547 657 547 657 500 647 c 1,78,79
657 1206 m 1,86,87
 675 1194 675 1194 707 1194 c 0,88,89
 805 1194 805 1194 848 1206 c 1,90,-1
 657 1206 l 1,86,87
EndSplineSet
EndChar

StartChar: onequarter
Encoding: 188 188 126
Width: 1167
GlyphClass: 2
Flags: W
LayerCount: 2
Fore
SplineSet
207 35 m 0,0,1
 207 46 207 46 215 68 c 1,2,3
 272 187 272 187 321.5 301.5 c 128,-1,4
 371 416 371 416 410.5 524.5 c 128,-1,5
 450 633 450 633 483 756 c 1,6,-1
 352 756 l 2,7,8
 277 756 277 756 212 709 c 128,-1,9
 147 662 147 662 104 590 c 0,10,11
 100 582 100 582 92 582 c 2,12,-1
 68 582 l 2,13,14
 49 582 49 582 49 602 c 0,15,16
 49 606 49 606 53 614 c 0,17,18
 120 728 120 728 196.5 805.5 c 128,-1,19
 273 883 273 883 369 883 c 2,20,-1
 1112 883 l 2,21,22
 1133 883 1133 883 1148 869 c 128,-1,23
 1163 855 1163 855 1163 831 c 0,24,25
 1163 801 1163 801 1141.5 778.5 c 128,-1,26
 1120 756 1120 756 1090 756 c 2,27,-1
 829 756 l 1,28,29
 796 595 796 595 793 442 c 1,30,31
 793 245 793 245 862 86 c 0,32,33
 868 74 868 74 868 61 c 0,34,35
 868 39 868 39 855 20 c 128,-1,36
 842 1 842 1 821.5 -11 c 128,-1,37
 801 -23 801 -23 778 -23 c 0,38,39
 724 -23 724 -23 704 65 c 128,-1,40
 684 153 684 153 684 236 c 0,41,42
 684 353 684 353 704 461.5 c 128,-1,43
 724 570 724 570 768 756 c 1,44,-1
 545 756 l 1,45,46
 383 100 383 100 350 33 c 1,47,48
 321 -23 321 -23 270 -23 c 0,49,50
 245 -23 245 -23 226 -6.5 c 128,-1,51
 207 10 207 10 207 35 c 0,0,1
EndSplineSet
EndChar

StartChar: onehalf
Encoding: 189 189 127
Width: 1059
GlyphClass: 2
Flags: W
LayerCount: 2
Fore
SplineSet
57 -385 m 0,0,1
 57 -373 57 -373 59 -369 c 2,2,-1
 262 449 l 1,3,4
 291 559 291 559 361.5 664.5 c 128,-1,5
 432 770 432 770 532 837.5 c 128,-1,6
 632 905 632 905 743 905 c 0,7,8
 832 905 832 905 898.5 858.5 c 128,-1,9
 965 812 965 812 998.5 736.5 c 128,-1,10
 1032 661 1032 661 1032 571 c 0,11,12
 1032 472 1032 472 991.5 366 c 128,-1,13
 951 260 951 260 879.5 172 c 128,-1,14
 808 84 808 84 715 30.5 c 128,-1,15
 622 -23 622 -23 520 -23 c 0,16,17
 460 -23 460 -23 407 12.5 c 128,-1,18
 354 48 354 48 324 106 c 1,19,-1
 203 -377 l 1,20,21
 197 -406 197 -406 173 -424 c 128,-1,22
 149 -442 149 -442 119 -442 c 0,23,24
 94 -442 94 -442 75.5 -426.5 c 128,-1,25
 57 -411 57 -411 57 -385 c 0,0,1
524 31 m 0,26,27
 633 31 633 31 713.5 142.5 c 128,-1,28
 794 254 794 254 836.5 404.5 c 128,-1,29
 879 555 879 555 879 659 c 0,30,31
 879 737 879 737 845 794.5 c 128,-1,32
 811 852 811 852 739 852 c 0,33,34
 650 852 650 852 582 784.5 c 128,-1,35
 514 717 514 717 473 626 c 128,-1,36
 432 535 432 535 406 436 c 1,37,-1
 350 207 l 1,38,39
 363 133 363 133 408.5 82 c 128,-1,40
 454 31 454 31 524 31 c 0,26,27
EndSplineSet
EndChar

StartChar: threequarters
Encoding: 190 190 128
Width: 1169
GlyphClass: 2
Flags: W
LayerCount: 2
Fore
SplineSet
383 -23 m 0,0,1
 292 -23 292 -23 221.5 20.5 c 128,-1,2
 151 64 151 64 112.5 138 c 128,-1,3
 74 212 74 212 74 301 c 0,4,5
 74 396 74 396 117 501 c 128,-1,6
 160 606 160 606 234.5 693 c 128,-1,7
 309 780 309 780 403 831.5 c 128,-1,8
 497 883 497 883 596 883 c 2,9,-1
 1112 883 l 2,10,11
 1133 883 1133 883 1148 869 c 128,-1,12
 1163 855 1163 855 1163 831 c 0,13,14
 1163 801 1163 801 1141.5 778.5 c 128,-1,15
 1120 756 1120 756 1090 756 c 2,16,-1
 840 756 l 1,17,18
 899 668 899 668 899 543 c 0,19,20
 899 440 899 440 859 340 c 128,-1,21
 819 240 819 240 748 157.5 c 128,-1,22
 677 75 677 75 582.5 26 c 128,-1,23
 488 -23 488 -23 383 -23 c 0,0,1
385 31 m 0,24,25
 497 31 497 31 583.5 118.5 c 128,-1,26
 670 206 670 206 716 332.5 c 128,-1,27
 762 459 762 459 762 567 c 0,28,29
 762 655 762 655 713.5 705.5 c 128,-1,30
 665 756 665 756 578 756 c 0,31,32
 459 756 459 756 375.5 676 c 128,-1,33
 292 596 292 596 250.5 475 c 128,-1,34
 209 354 209 354 209 242 c 0,35,36
 209 154 209 154 255.5 92.5 c 128,-1,37
 302 31 302 31 385 31 c 0,24,25
EndSplineSet
EndChar

StartChar: questiondown
Encoding: 191 191 129
Width: 895
GlyphClass: 2
Flags: W
LayerCount: 2
Fore
SplineSet
319 31 m 0,0,1
 319 45 319 45 322 53 c 2,2,-1
 537 756 l 1,3,-1
 352 756 l 2,4,5
 277 756 277 756 212 709 c 128,-1,6
 147 662 147 662 104 590 c 0,7,8
 100 582 100 582 92 582 c 2,9,-1
 68 582 l 2,10,11
 49 582 49 582 49 602 c 0,12,13
 49 606 49 606 53 614 c 0,14,15
 120 728 120 728 196.5 805.5 c 128,-1,16
 273 883 273 883 369 883 c 2,17,-1
 997 883 l 2,18,19
 1019 883 1019 883 1034 868 c 128,-1,20
 1049 853 1049 853 1049 831 c 0,21,22
 1049 801 1049 801 1027.5 778.5 c 128,-1,23
 1006 756 1006 756 975 756 c 2,24,-1
 604 756 l 1,25,-1
 467 49 l 1,26,27
 459 16 459 16 437 -5.5 c 128,-1,28
 415 -27 415 -27 381 -27 c 0,29,30
 355 -27 355 -27 337 -10.5 c 128,-1,31
 319 6 319 6 319 31 c 0,0,1
EndSplineSet
EndChar

StartChar: Agrave
Encoding: 192 192 130
Width: 1106
GlyphClass: 2
Flags: W
LayerCount: 2
Fore
SplineSet
221 248 m 0,0,1
 221 292 221 292 232.5 344.5 c 128,-1,2
 244 397 244 397 259.5 445 c 128,-1,3
 275 493 275 493 302 562.5 c 128,-1,4
 329 632 329 632 342 668 c 0,5,6
 369 743 369 743 369 791 c 0,7,8
 369 852 369 852 324 852 c 0,9,10
 243 852 243 852 190.5 768.5 c 128,-1,11
 138 685 138 685 113 582 c 0,12,13
 109 569 109 569 96 569 c 2,14,-1
 72 569 l 2,15,16
 55 569 55 569 55 588 c 2,17,-1
 55 594 l 1,18,19
 88 716 88 716 156 810.5 c 128,-1,20
 224 905 224 905 328 905 c 0,21,22
 401 905 401 905 451.5 857 c 128,-1,23
 502 809 502 809 502 735 c 0,24,25
 502 697 502 697 485 655 c 0,26,27
 478 637 478 637 438.5 532 c 128,-1,28
 399 427 399 427 380.5 357.5 c 128,-1,29
 362 288 362 288 362 225 c 0,30,31
 362 133 362 133 415.5 82 c 128,-1,32
 469 31 469 31 563 31 c 0,33,34
 663 31 663 31 759 124.5 c 128,-1,35
 855 218 855 218 916 349.5 c 128,-1,36
 977 481 977 481 977 573 c 0,37,38
 977 632 977 632 958 666.5 c 128,-1,39
 939 701 939 701 905.5 741 c 128,-1,40
 872 781 872 781 872 801 c 0,41,42
 872 840 872 840 905.5 873.5 c 128,-1,43
 939 907 939 907 979 907 c 0,44,45
 1028 907 1028 907 1049.5 862 c 128,-1,46
 1071 817 1071 817 1071 760 c 0,47,48
 1071 658 1071 658 1035 524 c 128,-1,49
 999 390 999 390 932 263.5 c 128,-1,50
 865 137 865 137 768.5 57 c 128,-1,51
 672 -23 672 -23 561 -23 c 0,52,53
 413 -23 413 -23 317 42 c 128,-1,54
 221 107 221 107 221 248 c 0,0,1
EndSplineSet
EndChar

StartChar: Aacute
Encoding: 193 193 131
Width: 1219
GlyphClass: 2
Flags: W
LayerCount: 2
Fore
SplineSet
397 -399 m 1,0,-1
 489 -29 l 1,1,2
 385 -29 385 -29 295 19.5 c 128,-1,3
 205 68 205 68 150.5 155 c 128,-1,4
 96 242 96 242 96 344 c 0,5,6
 96 455 96 455 151 556 c 128,-1,7
 206 657 206 657 301.5 739.5 c 128,-1,8
 397 822 397 822 507 866.5 c 128,-1,9
 617 911 617 911 725 911 c 1,10,-1
 848 1409 l 1,11,12
 852 1421 852 1421 864 1421 c 2,13,-1
 889 1421 l 2,14,15
 897 1421 897 1421 902 1414 c 128,-1,16
 907 1407 907 1407 907 1401 c 1,17,-1
 784 911 l 1,18,19
 861 911 861 911 933 883 c 128,-1,20
 1005 855 1005 855 1060.5 804.5 c 128,-1,21
 1116 754 1116 754 1147 685.5 c 128,-1,22
 1178 617 1178 617 1178 539 c 0,23,24
 1178 428 1178 428 1123 327 c 128,-1,25
 1068 226 1068 226 975 145 c 128,-1,26
 882 64 882 64 767.5 17.5 c 128,-1,27
 653 -29 653 -29 549 -29 c 1,28,-1
 455 -408 l 2,29,30
 451 -420 451 -420 438 -420 c 2,31,-1
 414 -420 l 2,32,33
 406 -420 406 -420 401.5 -412.5 c 128,-1,34
 397 -405 397 -405 397 -399 c 1,0,-1
502 25 m 1,35,-1
 711 858 l 1,36,37
 659 858 659 858 602 837 c 128,-1,38
 545 816 545 816 494.5 784 c 128,-1,39
 444 752 444 752 403 711 c 0,40,41
 353 661 353 661 315 593 c 128,-1,42
 277 525 277 525 257.5 449.5 c 128,-1,43
 238 374 238 374 238 301 c 0,44,45
 238 224 238 224 271 161 c 128,-1,46
 304 98 304 98 364 61.5 c 128,-1,47
 424 25 424 25 502 25 c 1,35,-1
563 25 m 1,48,49
 640 25 640 25 727 69 c 128,-1,50
 814 113 814 113 870 172 c 1,51,52
 947 248 947 248 991.5 358.5 c 128,-1,53
 1036 469 1036 469 1036 582 c 0,54,55
 1036 658 1036 658 1003 721.5 c 128,-1,56
 970 785 970 785 910 821.5 c 128,-1,57
 850 858 850 858 772 858 c 1,58,-1
 563 25 l 1,48,49
EndSplineSet
EndChar

StartChar: Acircumflex
Encoding: 194 194 132
Width: 1280
GlyphClass: 2
Flags: W
LayerCount: 2
Fore
SplineSet
88 -397 m 0,0,1
 78 -397 78 -397 68.5 -388.5 c 128,-1,2
 59 -380 59 -380 59 -371 c 0,3,4
 59 -357 59 -357 68 -350 c 1,5,-1
 569 207 l 1,6,7
 535 331 535 331 492.5 465.5 c 128,-1,8
 450 600 450 600 390.5 726 c 128,-1,9
 331 852 331 852 285 852 c 0,10,11
 245 852 245 852 222 830 c 128,-1,12
 199 808 199 808 181.5 775.5 c 128,-1,13
 164 743 164 743 158 741 c 1,14,-1
 133 741 l 2,15,16
 127 741 127 741 122 748 c 128,-1,17
 117 755 117 755 117 762 c 0,18,19
 117 795 117 795 145.5 828.5 c 128,-1,20
 174 862 174 862 215.5 883.5 c 128,-1,21
 257 905 257 905 293 905 c 0,22,23
 374 905 374 905 440 876 c 128,-1,24
 506 847 506 847 539 782 c 1,25,26
 568 720 568 720 595 648.5 c 128,-1,27
 622 577 622 577 646.5 496 c 128,-1,28
 671 415 671 415 692 342 c 1,29,-1
 1167 870 l 1,30,31
 1177 883 1177 883 1192 883 c 0,32,33
 1204 883 1204 883 1212.5 875.5 c 128,-1,34
 1221 868 1221 868 1221 856 c 0,35,36
 1221 843 1221 843 1212 836 c 1,37,-1
 711 279 l 1,38,39
 735 188 735 188 783 36.5 c 128,-1,40
 831 -115 831 -115 889.5 -241 c 128,-1,41
 948 -367 948 -367 995 -367 c 0,42,43
 1033 -367 1033 -367 1057 -344.5 c 128,-1,44
 1081 -322 1081 -322 1099 -290 c 128,-1,45
 1117 -258 1117 -258 1122 -256 c 1,46,-1
 1147 -256 l 2,47,48
 1163 -256 1163 -256 1163 -276 c 0,49,50
 1163 -327 1163 -327 1102.5 -373.5 c 128,-1,51
 1042 -420 1042 -420 987 -420 c 0,52,53
 907 -420 907 -420 841 -391 c 128,-1,54
 775 -362 775 -362 743 -297 c 1,55,56
 667 -135 667 -135 588 143 c 1,57,-1
 113 -385 l 2,58,59
 103 -397 103 -397 88 -397 c 0,0,1
EndSplineSet
EndChar

StartChar: Atilde
Encoding: 195 195 133
Width: 1333
GlyphClass: 2
Flags: W
LayerCount: 2
Fore
SplineSet
487 -399 m 1,0,-1
 584 -18 l 1,1,2
 495 -18 495 -18 411.5 15.5 c 128,-1,3
 328 49 328 49 276.5 114 c 128,-1,4
 225 179 225 179 225 272 c 0,5,6
 225 325 225 325 244 393 c 128,-1,7
 263 461 263 461 284.5 518 c 128,-1,8
 306 575 306 575 342 668 c 1,9,10
 369 743 369 743 369 791 c 0,11,12
 369 852 369 852 324 852 c 0,13,14
 243 852 243 852 190.5 768.5 c 128,-1,15
 138 685 138 685 113 582 c 0,16,17
 109 569 109 569 96 569 c 2,18,-1
 72 569 l 2,19,20
 55 569 55 569 55 588 c 2,21,-1
 55 594 l 1,22,23
 88 716 88 716 156 810.5 c 128,-1,24
 224 905 224 905 328 905 c 0,25,26
 401 905 401 905 451.5 857 c 128,-1,27
 502 809 502 809 502 735 c 0,28,29
 502 697 502 697 485 655 c 0,30,31
 449 562 449 562 428 507 c 128,-1,32
 407 452 407 452 388 382.5 c 128,-1,33
 369 313 369 313 369 258 c 0,34,35
 369 158 369 158 431.5 103 c 128,-1,36
 494 48 494 48 596 35 c 1,37,-1
 940 1409 l 2,38,39
 944 1421 944 1421 956 1421 c 2,40,-1
 981 1421 l 2,41,42
 997 1421 997 1421 997 1401 c 1,43,-1
 655 31 l 1,44,-1
 678 31 l 2,45,46
 764 31 764 31 859.5 82 c 128,-1,47
 955 133 955 133 1033.5 216 c 128,-1,48
 1112 299 1112 299 1158 394.5 c 128,-1,49
 1204 490 1204 490 1204 573 c 0,50,51
 1204 635 1204 635 1184 669.5 c 128,-1,52
 1164 704 1164 704 1132 741.5 c 128,-1,53
 1100 779 1100 779 1100 801 c 0,54,55
 1100 841 1100 841 1133 874 c 128,-1,56
 1166 907 1166 907 1206 907 c 0,57,58
 1255 907 1255 907 1276.5 862 c 128,-1,59
 1298 817 1298 817 1298 760 c 0,60,61
 1298 700 1298 700 1286 640 c 128,-1,62
 1274 580 1274 580 1253 498 c 0,63,64
 1206 311 1206 311 1057 162 c 0,65,66
 1006 111 1006 111 944.5 68.5 c 128,-1,67
 883 26 883 26 814.5 1.5 c 128,-1,68
 746 -23 746 -23 676 -23 c 2,69,-1
 643 -23 l 1,70,-1
 547 -408 l 2,71,72
 543 -420 543 -420 530 -420 c 2,73,-1
 506 -420 l 2,74,75
 498 -420 498 -420 492.5 -413.5 c 128,-1,76
 487 -407 487 -407 487 -399 c 1,0,-1
EndSplineSet
EndChar

StartChar: Adieresis
Encoding: 196 196 134
Width: 567
GlyphClass: 2
Flags: W
LayerCount: 2
Fore
SplineSet
551 1102 m 2,0,1
 546 1102 546 1102 540.5 1108.5 c 128,-1,2
 535 1115 535 1115 535 1122 c 2,3,-1
 535 1128 l 1,4,5
 554 1204 554 1204 631.5 1258 c 128,-1,6
 709 1312 709 1312 807.5 1337 c 128,-1,7
 906 1362 906 1362 989 1362 c 0,8,9
 1040 1362 1040 1362 1100.5 1351 c 128,-1,10
 1161 1340 1161 1340 1214 1317 c 128,-1,11
 1267 1294 1267 1294 1302 1253 c 128,-1,12
 1337 1212 1337 1212 1337 1155 c 0,13,14
 1337 1102 1337 1102 1315 1102 c 2,15,-1
 1290 1102 l 2,16,17
 1284 1102 1284 1102 1279 1109.5 c 128,-1,18
 1274 1117 1274 1117 1274 1124 c 1,19,20
 1276 1134 1276 1134 1276.5 1138 c 128,-1,21
 1277 1142 1277 1142 1278 1147 c 1,22,23
 1278 1200 1278 1200 1226 1232 c 128,-1,24
 1174 1264 1174 1264 1104.5 1277 c 128,-1,25
 1035 1290 1035 1290 981 1290 c 0,26,27
 917 1290 917 1290 830.5 1272 c 128,-1,28
 744 1254 744 1254 675.5 1214.5 c 128,-1,29
 607 1175 607 1175 592 1116 c 1,30,31
 592 1102 592 1102 575 1102 c 2,32,-1
 551 1102 l 2,0,1
EndSplineSet
EndChar
